<svg xmlns="http://www.w3.org/2000/svg" xmlns:xlink="http://www.w3.org/1999/xlink" version="1.1" width="384pt" height="600pt" viewBox="0 0 384 600">
<defs>
<clipPath id="clip_28">
<path transform="matrix(.24,0,0,.24,0,0)" d="M0 0H1600V2500H0Z" fill-rule="evenodd"/>
</clipPath>
<clipPath id="clip_29">
<path transform="matrix(.24,0,0,.24,0,0)" d="M0 0H1600V2500H0Z" fill-rule="evenodd"/>
</clipPath>
<clipPath id="clip_30">
<path transform="matrix(.24,0,0,.24,0,0)" d="M0 0H1600V2500H0Z" fill-rule="evenodd"/>
</clipPath>
<clipPath id="clip_31">
<path transform="matrix(.24,0,0,.24,0,0)" d="M55.555559 2280H1543.0556V2286.25H55.555559Z" fill-rule="evenodd"/>
</clipPath>
</defs>
<g clip-path="url(#clip_28)">
<path transform="matrix(.75,0,0,.75,0,-607.5)" d="M0 810H512V1610H0Z" fill="#ffffff"/>
</g>
<g clip-path="url(#clip_29)">
<path transform="matrix(.75,0,0,.75,0,0)" d="M0 0H512V800H0Z" fill="#ffffff"/>
</g>
<g clip-path="url(#clip_30)">
<text xml:space="preserve" transform="matrix(.26666669 0 0 .26666669 37.06444 214.64824)" font-size="41.27" font-family="Lora" font-style="italic"><tspan y="66" x="0 41.843568 66.272998 86.78218 112.98604 124.66437 146.7004 169.02529 194.3213 213.92266 225.60099 244.08815 258.2837 280.48478 306.68864 320.8842 335.121 349.31657 369.6607 393.09977 419.30363 435.14979 446.82814 469.153 484.99919 509.4286 529.93777 549.53909 560.1445 571.8228 593.8588 616.1837 641.47976 661.08108 672.7594 694.67166 716.9965 735.4837 753.9709 764.5763 776.25466 798.5795 818.1809 829.85928 851.89529 874.22018 899.5162 919.11758 930.7959 945.0327 964.63406 978.8296 999.33877 1025.5426 1049.2705 1067.7577 1079.436 1097.9232 1121.3623">When your significant other, your boss, or your friends say</tspan></text>
<text xml:space="preserve" transform="matrix(.26666669 0 0 .26666669 37.06444 214.64824)" font-size="41.27" font-family="Lora" font-style="italic"><tspan y="169" x="0 18.487168 40.812059 77.78627 98.295459 114.14162 138.57105 152.76659 178.97045 201.17153 212.84986 228.69602 253.12545 276.5645 292.41069 304.08903 324.43318 346.75807 372.05409 384.55775 408.28565 419.964 441.87623 462.3854 474.06376 499.35978 525.5636 549.2915 569.80068 589.402 607.88919 623.73538 646.06027 668.38516 692.11306 703.7914 727.23049 745.71768 757.396 771.59158 797.7954 816.2826 841.5786 854.0823 869.92849 884.124 910.3279 932.52896 944.2073 966.53219 986.13357 997.8119 1024.0158 1044.5249 1066.726 1090.165 1106.0112 1120.2068 1142.738 1163.2472">something that could be understood as insulting or negative,</tspan></text>
<text xml:space="preserve" transform="matrix(.26666669 0 0 .26666669 37.06444 214.64824)" font-size="41.27" font-family="Lora" font-style="italic"><tspan y="272" x="0 22.036026 44.360918 69.65694 78.570468 91.07411 103.57776 115.25609 138.98401 161.3089 172.98723 206.86652 227.3757 239.87935 252.383 264.06135 279.9075 302.2324 313.91075 328.1063 354.31016 370.1563 390.6655 410.26686 434.65504 454.25639 474.76557 490.61174 502.29008 516.4856 532.3318 544.01016 567.4492 585.9364 597.61477 616.1019 641.39797 661.74209 686.1715 696.5706 708.24899 734.6179 757.93319 782.32138 802.83059 823.1747 839.0209 850.6992 866.5454 890.97488 911.484 923.16238 957.0416 979.3665 998.9679 1017.4551 1033.3013 1044.9796 1060.8258">you&#x2019;ll do well to interpret it as such. Expect the worst to</tspan></text>
<text xml:space="preserve" transform="matrix(.26666669 0 0 .26666669 37.06444 214.64824)" font-size="41.27" font-family="Lora" font-style="italic"><tspan y="375" x="0 24.429429 47.868486 72.25665 96.64482 117.15401 143.35787 153.96329 165.64162 189.08068 215.28453 239.01245 250.69078 274.12983 292.617 311.1042 336.4002 373.37443 393.8836 405.56196 426.07115 448.60237 469.11155 488.7129 510.7489 533.0738 559.27767 579.78689 591.4652 605.66079 624.14797 635.8263 658.1512 683.4472 699.2934 710.97177 726.81796 749.1428 760.82119 783.0222 803.5314 819.37759 831.0559 853.0919 875.4168 900.7128 911.11196 922.7903 954.0698 976.3947 1002.5986 1011.5121 1027.3583 1039.0366 1062.7645 1086.2036 1105.8049">happen, and assume everyone is out to get you. Don&#x2019;t dare</tspan></text>
<text xml:space="preserve" transform="matrix(.26666669 0 0 .26666669 37.06444 214.64824)" font-size="41.27" font-family="Lora" font-style="italic"><tspan y="478" x="0 15.846162 40.27559 54.47113 80.67499 102.9586 114.63693 128.83248 144.67864 156.35697 176.7011 199.02599 224.322 236.82566 260.5536 272.23194 296.66139 320.10044 342.63166 363.14085 374.81919 396.7314 417.2406 437.7498 463.95365 475.632 499.07106 510.7494 527.58596 546.0731 560.2687 597.2429 621.6311 634.13479 654.6439 666.32229 703.2965 717.49209 735.97927 761.27529 787.4791 811.20706 831.7162 851.3175 869.8047 885.6509 909.08999 935.2938 959.0217 973.2173 999.42117 1021.6222 1032.0213">think it could have been a &#x201c;simple misunderstanding.&#x201d;</tspan></text>
<text xml:space="preserve" transform="matrix(.26666669 0 0 .26666669 37.06444 214.64824)" font-size="41.27" font-family="Lora" font-style="italic"><tspan y="581" x="0 33.342836 49.188997 73.61842 94.12761 113.72896 147.60825 161.80379 180.29096 200.80014 211.40557 223.0839 245.11992 267.44483 292.74085 304.4192 341.3934 355.58897 377.79005 402.21949 418.06565 429.744 451.65623 472.1654 483.84376 499.6899 523.12899 545.4126 559.60818 585.812 608.01309 619.6914 639.2927 659.8019 678.28909 702.67727 725.00216 751.206 769.6932 783.88876 805.80099 819.9965 832.5002 846.69577 862.54196 884.57797 896.2563 910.4931 932.818 952.4193 964.09768 986.13369 1008.45858 1033.7546">Otherwise, you might be taking responsibility for your</tspan></text>
<text xml:space="preserve" transform="matrix(.26666669 0 0 .26666669 37.06444 214.64824)" font-size="41.27" font-family="Lora" font-style="italic"><tspan y="684" x="0 20.509186 57.4834 79.80829 95.65445 109.84999 132.17488 158.37874 181.8178 194.32144 205.99977 239.87906 260.38825 272.8919 285.39558 306.15235 328.06459 348.57377 362.76933 388.97319 411.17427 421.7797 433.45805 456.8971 483.10096 506.82887 518.5072 540.5432 562.8681 588.1641 599.84249 620.1866 640.6958 660.2971 676.1433 699.5824 713.77798 739.9818 752.4855 774.5215 786.1998 809.92776 832.2526 858.4565 867.49386 883.34 895.0184 928.89767 952.3367 978.5405 994.3867 1006.06509 1021.91128 1044.2361 1055.9144 1079.6423">emotional well-being, and you certainly don't want to do</tspan></text>
<text xml:space="preserve" transform="matrix(.26666669 0 0 .26666669 37.06444 214.64824)" font-size="41.27" font-family="Lora" font-style="italic"><tspan y="787" x="0 15.846162 40.27559 63.714647 79.56081">that.</tspan></text>
<text fill="#515151" xml:space="preserve" transform="matrix(.26666669 0 0 .26666669 42.35302 77.34017)" font-size="41.27" font-family="Lora" font-style="italic"><tspan y="47" x="413.82814 447.50178 484.76554 516.16958 546.17056 577.7809 608.6897 639.8461 656.0644 675.17129">CHAPTER II</tspan></text>
<text xml:space="preserve" transform="matrix(.26666669 0 0 .26666669 133.80834 567.8611)" font-size="29.47" font-family="Lora" font-style="italic"><tspan y="33" x="156.625 174.80747 188.71695 197.05684 212.99967 223.16661 231.5065 242.52805">07 of 19</tspan></text>
<text fill="#515151" xml:space="preserve" transform="matrix(.26666669 0 0 .26666669 43.624925 98.12947)" font-size="70.75" font-family="Lora"><tspan y="80" x="118.640628 187.55147 236.01557 287.0974 330.46754 377.79963 427.042 482.7226 531.96499 563.94436 614.0357 662.9243 714.00619 745.34878 796.4306 844.8947 895.97659 939.3467">Over-analyze every</tspan></text>
<text fill="#515151" xml:space="preserve" transform="matrix(.26666669 0 0 .26666669 43.624925 98.12947)" font-size="70.75" font-family="Lora"><tspan y="191" x="40.078126 85.570728 125.686328 174.92868 215.04428 266.12614 342.112 393.19386 448.87446 488.99006 520.33267 574.4567 614.5723 669.6869 720.76876 764.13888 809.6315 840.97409 916.9599 966.2023 1016.93038">statement others make</tspan></text>
</g>
<g clip-path="url(#clip_31)">
<path transform="matrix(.71400007,0,0,.71400007,13.333333,369.36698)" d="M0 0H500V500H0Z" fill="#d8ff00"/>
</g>
</svg>
