<svg xmlns="http://www.w3.org/2000/svg" xmlns:xlink="http://www.w3.org/1999/xlink" version="1.1" width="384pt" height="600pt" viewBox="0 0 384 600">
<defs>
<clipPath id="clip_32">
<path transform="matrix(.24,0,0,.24,0,0)" d="M0 0H1600V2500H0Z" fill-rule="evenodd"/>
</clipPath>
<clipPath id="clip_33">
<path transform="matrix(.24,0,0,.24,0,0)" d="M0 0H1600V2500H0Z" fill-rule="evenodd"/>
</clipPath>
<clipPath id="clip_34">
<path transform="matrix(.24,0,0,.24,0,0)" d="M390.9877 514.8071H1209.7377V1555.4321H390.9877Z" fill-rule="evenodd"/>
</clipPath>
<clipPath id="clip_35">
<path transform="matrix(.24,0,0,.24,0,0)" d="M0 0H1600V2500H0Z" fill-rule="evenodd"/>
</clipPath>
</defs>
<g clip-path="url(#clip_32)">
<path transform="matrix(.75,0,0,.75,0,-1215)" d="M0 1620H512V2420H0Z" fill="#ffffff"/>
</g>
<g clip-path="url(#clip_33)">
<path transform="matrix(.75,0,0,.75,0,0)" d="M0 0H512V800H0Z" fill="#ffffff"/>
</g>
<g clip-path="url(#clip_34)">
<path transform="matrix(.19281718,0,0,.19284375,94.45406,128.91378)" d="M357.5 1222.8C351 1043.3 254.2 1037.5 177.3 1032.2001 94.700008 1026.5001 100.4 959.9001 105 922.1001 109.6 884.2001 100.4 887.7001 82.1 862.5001 63.799997 837.3002 87.799999 810.90017 87.799999 810.90017 56.799997 797.10018 77.49999 769.60018 83.2 752.40017 88.899997 735.20016 80.899997 721.40017 53.399999 715.70016 25.899998 710.0001-1.6000023 685.90017 1.7999992 662.90017 5.2 639.9 84.4 543.5 98.2 516 112 488.5 102.799999 466.7 90.2 434.6 77.6 402.5 90.2 364.6 90.2 364.6 126.799999 148.3 320.8-27.699982 629.3 5.600006 937.9 38.900007 1015.9 311.9 1009 464.4 1002.1 617 904.6 760.4 872.5 830.3 847.4 885 851.6 1119.9 854.6 1220 855.3 1244.9 835.39999 1265.5 810.5 1265.5H401.6C377.8 1265.5 358.3 1246.6 357.5 1222.8Z" fill="#f8cf53"/>
<path transform="matrix(.19281718,0,0,.19284375,94.45406,128.91378)" d="M327.9 390.3C327.9 390.3 328 390.3 328 390.3H327.9ZM326.4 390.1C326.5 390.1 326.5 390.1 326.6 390.1 326.5 390.1 326.4 390.1 326.4 390.1ZM331.4 390.7C331.5 390.7 331.5 390.7 331.6 390.7 331.5 390.7 331.5 390.7 331.4 390.7ZM333.2 391C333.30003 391 333.30003 391 333.40003 391 333.3 391 333.3 391 333.2 391ZM337.3 391.8C337.3 391.8 337.2 391.7 337.3 391.8 337.2 391.7 337.3 391.8 337.3 391.8ZM410.6 524.7C431.7 517.60006 448.2 499.40003 452 476 457.5 442.3 434.5 410.5 400.9 405 390.5 403.3 380.3 404.3 371 407.5 383.6 417.8 394.5 434.2 398.4 460 398.4 460 398.69999 503.8 419.3 545.3 415.8 538.4 413 531.5 410.6 524.7ZM317.7 389.8ZM339.4 392.2C339.3 392.2 339.3 392.2 339.19999 392.1 339.2 392.2 339.3 392.2 339.4 392.2ZM318.7 389.8ZM321.2 389.8ZM319.4 389.8C319.4 389.8 319.3 389.8 319.3 389.8H319.4C319.4 389.8 319.4 389.8 319.4 389.8ZM322.3 389.9C322.4 389.9 322.4 389.9 322.5 389.9 322.4 389.9 322.3 389.9 322.3 389.9ZM323.6 389.9ZM421.4 549.5C422.1 550.9 422.9 552.2 423.6 553.6 422.8 552.2 422.1 550.8 421.4 549.5ZM419.2 545.3C419.90003 546.7 420.6 548.1 421.30003 549.39999 420.6 548.1 419.9 546.7 419.2 545.3ZM368.5 405.6C368.6 405.7 368.7 405.80003 368.9 405.9 368.8 405.8 368.7 405.7 368.5 405.6ZM557.5 54.2C413.8 54.2 288.6 132.4 222.9 248.2 222.29999 249.5 157.7 392.5 317 389.8L305 367.4 324.7 353.19999 348 378C360.9 371.7 375.2 368.1 390.2 368L400 335.6 424 339.5 423 373.4C437.1 378.19999 449.6 386.1 459.8 396.19999L489.69999 380.09999 503.9 399.8 479.1 423C485.4 435.9 489 450.2 489.1 465.2L521.5 475 517.6 499 483.69999 498C478.9 512.1 470.99998 524.6 460.9 534.8L477 564.7 457.3 578.9 434 554.1C431.4 555.39999 428.7 556.6 426 557.6 453.7 603.19998 509.2 640.3 620.5 604.3 620.5 604.3 683.7 571.89999 716.2 631.89999 716.2 631.89999 788.3 758.49996 866.6 659.39999 913.5 596.39999 941.19998 518.5 941.19998 434.19996 941.1 224.3 769.4 54.2 557.5 54.2ZM366.6 404.2C366.5 404.1 366.4 404.1 366.4 404 366.5 404.1 366.5 404.2 366.6 404.2ZM426 557.6C425.2 556.3 424.4 554.89999 423.6 553.5 424.4 554.9 425.2 556.3 426 557.6ZM362 401.2C361.9 401.1 361.8 401.1 361.7 401 361.8 401.1 361.9 401.2 362 401.2ZM348 394.7C348 394.7 348 394.8 348 394.7 348 394.8 348 394.7 348 394.7ZM345.9 394C345.8 394 345.69999 393.9 345.6 393.9 345.7 394 345.8 394 345.9 394ZM352.7 396.6C352.6 396.6 352.5 396.5 352.40003 396.5 352.5 396.5 352.6 396.5 352.7 396.6ZM359.7 399.9C359.6 399.9 359.5 399.8 359.40003 399.8 359.5 399.8 359.6 399.9 359.7 399.9ZM354.8 397.5C354.9 397.5 354.9 397.6 355 397.6 354.9 397.5 354.8 397.5 354.8 397.5Z" fill="#ed715c"/>
<path transform="matrix(.19281718,0,0,.19284375,94.45406,128.91378)" d="M507.1 103.6 480.2 123 504.6 168.4C492.2 181.29999 482.4 196.79999 476.2 214.2L424.7 212.7 419.40003 245.4 468.80003 260.19999C469.2 278.69999 473.6 296.49998 481.2 312.59999L443.6 347.99998 463 375 508.4 350.6C521.3 363 536.8 372.80003 554.2 379L552.7 430.5 585.4 435.8 600.2 386.4C618.7 386 636.5 381.6 652.60006 374L688.00009 411.6 714.9001 392.2 690.50009 346.80003C702.9001 333.90003 712.7001 318.40003 718.9001 301.00004L770.4001 302.50004 775.7001 269.80003 726.30007 255.00002C725.9 236.50002 721.50009 218.70001 713.9 202.6L751.5 167.20001 732.1 140.30002 686.69998 164.70001C673.7999 152.30002 658.2999 142.50002 640.89999 136.30002L642.39999 84.80002 609.69998 79.500019 594.89999 128.90003C576.39999 129.30002 558.6 133.70003 542.49996 141.30002L507.1 103.6ZM610.6 177.4C654.8 184.59999 685 226.4 677.8 270.59999 670.6 314.8 628.8 344.99998 584.6 337.8 540.39999 330.59999 510.19999 288.8 517.39999 244.59999 524.5 200.3 566.4 170.2 610.6 177.4Z" fill="#e9f3fe"/>
<path transform="matrix(.19281718,0,0,.19284375,94.45406,128.91378)" d="M935.5 499.5C937.1 490.2 938.4 480.9 939.3 471.4L910.1 462.6C909.69998 449.7 906.6 437.2 901.39999 425.9L932.49996 396.69999 917.69998 376.19999 880.1 396.4C871 387.8 860.1 381 848 376.5L849.3 333.9 824.3 329.8 812 370.59999C799.1 370.99998 786.6 374.09999 775.3 379.3L746 348.19999 725.6 363 745.8 400.6C737.2 409.7 730.39999 420.5 725.89999 432.7L683.3 431.40003 679.2 456.40003 720 468.7C720.4 481.6 723.5 494.1 728.7 505.40003L697.60006 534.7 712.4 555.2 750 535C759.1 543.6 769.9 550.4 782.1 554.9L780.8 597.5 805.8 601.6 818.1 560.8C831 560.39999 843.5 557.3 854.8 552.1L884 583.1 904.5 568.3 884.3 530.7C892.89999 521.60006 899.7 510.7 904.2 498.6L935.5 499.5ZM878.9 475.9C873.2 511.1 839.9 535 804.80007 529.3 769.60006 523.6 745.7001 490.3 751.4 455.19999 757.10006 420.09999 790.4 396.09999 825.5 401.8 860.7 407.5 884.6 440.8 878.9 475.9ZM230.2 336 253.3 323.6C260 330 268 335.1 277.1 338.30003L276.30003 364.50004 293.1 367.20005 300.7 342.10005C310.30003 341.90003 319.6 339.60005 327.90003 335.70005L345.90003 354.80006 359.7 344.80006 347.30003 321.70005C353.7 315.00004 358.80003 307.00004 362.00004 297.90007L388.20005 298.70005 390.90007 281.90007 365.80006 274.30006C365.60005 264.70005 363.30006 255.40006 359.40007 247.10005L378.50007 229.10005 368.50007 215.30005 345.40007 227.70005C338.70005 221.30005 330.70005 216.20005 321.60008 213.00005L322.40007 186.80005 305.60008 184.10005 298.00007 209.20006C288.40007 209.40006 279.10008 211.70006 270.80006 215.60005L255.70005 199.60005C251.60004 204.80005 247.60004 210.10005 243.80005 215.50005L251.40006 229.70005C245.00006 236.40004 239.90006 244.40004 236.70006 253.50005L221.00006 253.00005C219.40006 257.10005 217.10007 263.60005 214.90006 271.70005L232.90006 277.10005C233.10005 286.70005 235.40006 296.00004 239.30005 304.30006L220.20005 322.30006 230.2 336ZM258.7 269C262.30003 246.6 283.6 231.3 306 234.9 328.4 238.5 343.7 259.8 340.1 282.19999 336.5 304.59999 315.30003 319.9 292.80003 316.3 270.3 312.7 255.1 291.5 258.7 269ZM600.6 600.4 594 591.30007C596.4 588.30007 598.4 585.00009 600.1 581.50009L611.19998 583.30007 615.1 559.00009 604 557.2001C603.6 553.30007 602.7 549.50009 601.3 546.00009L610.39999 539.4001 595.99996 519.50009 587 526C584 523.6 580.7 521.5 577.2 519.9L579 508.80003 554.8 504.90003 553 516C549.1 516.4 545.3 517.3 541.7 518.7L535.10006 509.6 515.2 524 521.8 533.1C519.39999 536.1 517.3 539.39999 515.7 542.89999L504.6 541.1 500.7 565.39999 511.80003 567.19998C512.2 571.1 513.10006 574.89999 514.5 578.39999L505.4 584.99996 519.8 604.89999 528.89999 598.3C531.89999 600.7 535.19998 602.8 538.69998 604.39999L536.89999 615.49996 553.89999 618.2999C556.39999 618.0999 558.89999 617.8999 561.39999 617.5999L562.89999 608.3999C566.8 607.9999 570.6 607.0999 574.1 605.6999L580.6 614.6999C580.69998 614.6999 580.8 614.6999 580.89999 614.5999L600.6 600.4ZM554.4 583.7C542.5 581.8 534.4 570.5 536.30007 558.60006 538.2001 546.7 549.50009 538.60006 561.4 540.50009 573.30007 542.4001 581.4 553.7001 579.5 565.60006 577.5 577.5 566.3 585.6 554.4 583.7Z" fill="#f1a3dc"/>
<path transform="matrix(.19281718,0,0,.19284375,94.45406,128.91378)" d="M665.6 562.7 678.6 553.3 674.3 547.3C675.89999 545.39999 677.2 543.2 678.3 540.89999L685.5 542.1 688.1 526.19998 680.89999 524.99996C680.6 522.49996 679.99996 519.99996 679.1 517.5999L685.1 513.2999 675.69998 500.29994 669.7999 504.5999C667.7999 502.9999 665.69998 501.69993 663.3999 500.5999L664.5999 493.3999 648.6999 490.7999 647.4999 497.9999C644.9999 498.2999 642.4999 498.8999 640.09988 499.69993L635.79989 493.79994 622.79989 503.19993 627.09988 509.19993C625.4999 511.0999 624.1998 513.2999 623.09988 515.5999L615.89987 514.3999 613.29989 530.2999 620.4999 531.49996C620.79989 533.99996 621.3999 536.49996 622.29989 538.89999L616.29989 543.19998 625.6999 556.19998 631.6999 551.89999C633.5999 553.49996 635.79989 554.8 638.0999 555.89999L636.8999 563.1 652.7999 565.69998 653.99996 558.49996C656.49996 558.19998 658.99996 557.5999 661.39999 556.7999L665.6 562.7ZM648.5 542.5C640.7 541.2 635.4 533.9 636.7 526.1 638 518.3 645.3 513 653.10006 514.3 660.9 515.6 666.2 522.89999 664.9 530.7 663.6 538.4 656.2 543.7 648.5 542.5Z" fill="#f8cf53"/>
<path transform="matrix(.19281718,0,0,.19284375,94.45406,128.91378)" d="M938.7 189.4C907.60006 139.7 867.9 99.09999 820.60006 68.49999 766.4 33.499994 702.10006 11.799992 629.5 3.9999924 484.4-11.6 355.5 18.2 256.8 90.3 167.19998 155.70001 107.499988 253 88.69998 364.2 87.79998 366.90003 76.29998 403.40003 88.79998 435.1L89.69998 437.4C101.89998 468.5 109.999988 489.1 96.89998 515.3 91.29998 526.39999 74.79998 549.2 57.199979 573.39999 30.299979 610.39999 2.499977 648.6 .39997865 662.6-3.2000213 686.69998 25.299979 711.19998 53.199979 717.1 67.49998 720.1 76.79998 725.3 80.99998 732.6 84.099979 737.89999 84.39998 744.39999 81.89998 751.89999 80.89998 754.99996 79.29998 758.49996 77.69998 762.19998 70.69998 777.99996 61.19998 799.39999 85.59998 811.39999 80.79998 817.49996 64.79999 840.99996 80.999988 863.39999 85.499988 869.6 89.499988 874.1 92.79999 877.8 102.89999 889.2 107.09999 894 103.69999 922 101.19999 943.1 96.39999 982.4 117.69999 1008.1 130.19998 1023.3 150.29999 1031.9 177.4 1033.7999L178.59999 1033.8999C254.9 1039.2 349.8 1045.7999 356.2 1222.9999 357.1 1247.7999 377.1 1267.1998 401.80003 1267.1998H810.5C823 1267.1998 834.6 1262.2998 843.3 1253.2998 852 1244.3998 856.5 1232.5999 856.2 1220.0999 853.2 1121.2998 849 885.4999 874 830.9999 880.8 816.09988 890.6 797.9999 901.9 776.8999 943 700.3999 1005.2 584.8999 1010.60006 464.4999 1014.7 370.9 987.8 268 938.7 189.4ZM1007.4 464.3C1002 584 940.1 699.2 899.1 775.4 887.8 796.5 878 814.7 871.1 829.60006 845.8 884.60006 850.1 1121 853 1220 853.4 1231.6 849.1 1242.6 841 1251 832.9 1259.4 822 1264 810.4 1264H401.6C378.5 1264 359.80003 1245.9 359 1222.7 356.1 1142.7999 335.3 1090 295.2 1061.2999 260.5 1036.3999 217.00002 1033.3999 178.6 1030.7L177.40001 1030.6C151.20001 1028.7999 131.80002 1020.5 119.80001 1006 99.30001 981.2 104.00001 942.8 106.40001 922.1 109.90001 892.8 105.20001 887.39999 94.80001 875.6 91.40001 871.8 87.60001 867.5 83.20001 861.39999 65.80001 837.49996 87.90001 812.69998 88.80001 811.69998 89.10001 811.2999 89.30001 810.89999 89.20001 810.39999 89.10001 809.89999 88.80001 809.49996 88.30001 809.3 64.40001 798.7 72.80001 779.89999 80.20001 763.2 81.90001 759.4 83.500019 755.9 84.500019 752.60006 87.30002 744.30007 86.90002 737.00009 83.40002 730.9 78.70002 722.80007 68.70002 717.10006 53.600019 713.9 40.400018 711.10006 26.700018 703.80007 16.900017 694.4 6.6 684.5 1.7 673.3 3.3 663.1 5.3 649.89999 34.1 610.19998 59.6 575.19998 77.2 550.89999 93.899997 527.99996 99.6 516.69998 113.299999 489.19996 104.6 466.99995 92.5 436.29997L91.6 433.99998C79.299999 402.79997 91.5 365.39997 91.6 364.99998 91.6 364.89997 91.6 364.89997 91.7 364.79997 110.399997 254.29996 169.7 157.59996 258.7 92.69995 339.7 33.5 441.3 3 555.6 3 579.6 3 604.1 4.3 629.1 7 701.3 14.8 765.1 36.3 818.89999 71 865.89999 101.3 905.3 141.7 936.1 190.9 985 269.1 1011.6 371.3 1007.4 464.3ZM292.5 317.8C294.8 318.19999 297.1 318.4 299.4 318.4 320 318.4 338.1 303.5 341.5 282.5 343.3 271.3 340.7 260 334 250.7 327.3 241.4 317.5 235.3 306.2 233.5 295 231.7 283.7 234.3 274.40003 241 265.10005 247.7 259.00004 257.5 257.2 268.8 253.5 292 269.3 314 292.5 317.8ZM260.2 269.3C263.7 247.69998 284.1 232.99999 305.80003 236.49999 316.30003 238.19998 325.40003 243.89998 331.6 252.49999 337.80003 261.09999 340.30003 271.59999 338.6 282.09999 335.1 303.69999 314.7 318.39997 293 314.89997 271.4 311.3 256.7 290.9 260.2 269.3ZM610.8 175.9C565.8 168.59999 523.2 199.29999 515.89999 244.29999 512.39999 266.09999 517.49996 288 530.49996 305.9 543.39999 323.9 562.5999 335.69999 584.2999 339.19999 588.7999 339.9 593.2999 340.3 597.69998 340.3 614.89999 340.3 631.69998 334.9 645.89999 324.59999 663.89999 311.69999 675.69998 292.49998 679.19998 270.8 686.6 225.8 655.9 183.2 610.8 175.9ZM676.3 270.3C672.89999 291.3 661.5 309.69999 644.2 322.19999 626.9 334.69999 605.8 339.69999 584.8 336.19999 563.8 332.8 545.39999 321.4 532.89999 304.09999 520.39999 286.8 515.39999 265.69999 518.89999 244.69998 525.19998 205.59998 559.19998 177.69998 597.6 177.69998 601.8 177.69998 606.1 177.99999 610.39999 178.69998 653.7 185.9 683.3 226.9 676.3 270.3ZM776.2 268.3 727.9 253.79999C727.4 236.09999 723.30007 218.99999 715.80007 202.79999L752.60006 168.19998C753.10006 167.69998 753.2 166.79999 752.80007 166.19998L733.4 139.29999C733 138.69998 732.10006 138.49999 731.5 138.9L687 162.79999C674.1 150.59999 659.1 141.29999 642.5 135.19998L644 84.79998C644 83.99998 643.5 83.39998 642.7 83.29998L610 77.99998C609.3 77.89998 608.5 78.29998 608.3 78.99998L593.8 127.29997C576.1 127.79997 559 131.89998 542.8 139.39998L508.19999 102.599979C507.69999 102.099979 506.8 101.99998 506.19999 102.39998L479.3 121.79998C478.69999 122.19998 478.5 123.09998 478.9 123.69998L502.8 168.19998C490.59999 181.09998 481.3 196.09998 475.19999 212.69998L424.8 211.19998C424.09999 211.09998 423.4 211.69998 423.3 212.49999L418 245.19998C417.9 245.89998 418.3 246.69998 419 246.89998L467.3 261.39997C467.8 279.09999 471.9 296.19996 479.4 312.39997L442.6 347C442.1 347.5 442 348.4 442.4 349L461.8 375.9C462.19999 376.5 463.09999 376.69999 463.69999 376.3L508.19999 352.4C521.1 364.6 536.1 373.9 552.69998 380L551.19998 430.4C551.19998 431.19999 551.69998 431.8 552.49996 431.9L585.19998 437.19999C585.2999 437.19999 585.39999 437.19999 585.39999 437.19999 586.1 437.19999 586.6 436.8 586.8 436.09999L601.3 387.8C619 387.3 636.1 383.19999 652.3 375.69999L686.89999 412.49998C687.39999 412.99998 688.3 413.09999 688.89999 412.69999L715.8 393.3C716.39999 392.9 716.6 392 716.2 391.4L692.3 346.9C704.5 334 713.8 319 719.89999 302.4L770.3 303.9C771 303.9 771.7 303.4 771.8 302.6L777.1 269.9C777.3 269.2 776.9 268.5 776.2 268.3ZM769.2 300.9 719 299.4C718.3 299.4 717.8 299.8 717.5 300.4 711.4 317.4 702 332.6 689.5 345.69999 689 346.19999 689 346.9 689.3 347.49998L713.1 391.79997 688.3 409.69996 653.8 373.09996C653.39999 372.59996 652.7 372.49995 652.1 372.79997 635.69998 380.59996 618.3 384.69996 600.3 385.09996 599.6 385.09996 599.1 385.49995 598.89999 386.19996L584.4 434 554.30007 429.1 555.80007 378.9C555.80007 378.19999 555.4 377.69999 554.80007 377.4 537.80007 371.3 522.60006 361.9 509.50007 349.4 509.00007 348.9 508.30006 348.9 507.70008 349.19999L463.4 373 445.5 348.2 482.1 313.7C482.6 313.30003 482.7 312.6 482.4 312 474.6 295.6 470.5 278.2 470.1 260.2 470.1 259.5 469.7 259 469 258.80003L420.9 244.30002 425.8 214.20001 476 215.70001C476.7 215.70001 477.2 215.30002 477.5 214.70001 483.6 197.70001 493 182.50002 505.5 169.40001 506 168.90001 506 168.20001 505.7 167.6L481.90003 123.3 506.7 105.5 541.2 142.1C541.60006 142.6 542.3 142.70001 542.9 142.40001 559.30007 134.6 576.7 130.50002 594.7 130.1 595.4 130.1 595.9 129.70001 596.10006 129L610.60006 80.9 640.7 85.8 639.2 136C639.2 136.7 639.60006 137.2 640.2 137.5 657.2 143.6 672.4 153 685.5 165.5 686 166 686.7 166 687.3 165.7L731.6 141.9 749.39999 166.7 712.8 201.2C712.3 201.59999 712.2 202.3 712.5 202.9 720.3 219.29999 724.4 236.7 724.8 254.7 724.8 255.4 725.2 255.9 725.89999 256.1L773.99996 270.6 769.2 300.9ZM554.1 585.2C555.39999 585.4 556.6 585.5 557.89999 585.5 562.8 585.5 567.49996 584 571.49996 581.1 576.5999 577.39999 579.89999 572.1 580.89999 565.89999 581.89999 559.69998 580.39999 553.6 576.8 548.49996 573.1 543.39999 567.7 540.0999 561.6 539.0999 548.89999 536.99996 536.89999 545.6999 534.8 558.3999 532.7 571.1 541.4 583.1 554.1 585.2ZM537.8 558.9C539.39999 548.9 548.1 541.80007 557.89999 541.80007 558.99996 541.80007 560.1 541.9 561.19998 542.10006 566.6 543.00009 571.2999 545.9 574.39999 550.30007 577.5 554.7001 578.89999 560.10006 577.99996 565.50009 577.0999 570.9001 574.19998 575.60006 569.7999 578.7001 565.3999 581.9001 559.99996 583.2001 554.5999 582.30007 543.5 580.4 536 570 537.8 558.9ZM676 498.9C675.6 498.8 675.2 498.9 674.9 499.19999L669.9 502.8C668.4 501.69999 666.80007 500.69999 665.10006 499.8L666.10006 493.69999C666.2 492.9 665.7 492.09999 664.9 491.99998L649 489.39997C648.6 489.29997 648.2 489.39997 647.9 489.69996 647.60006 489.89997 647.4 490.29997 647.30007 490.69996L646.30007 496.79997C644.4 497.09996 642.60006 497.49998 640.80007 498.09996L637.2001 493.09996C636.7001 492.39994 635.80007 492.29997 635.1001 492.79997L622.1001 502.19996C621.8001 502.39997 621.6001 502.79997 621.5001 503.19996 621.40017 503.59996 621.5001 503.99995 621.8001 504.29997L625.4001 509.29997C624.3001 510.79997 623.3001 512.39999 622.4001 514.1L616.3001 513.1C615.5001 513 614.70016 513.5 614.6001 514.3L612.0001 530.2C611.90017 531 612.40017 531.8 613.20016 531.9L619.3001 532.9C619.6001 534.80007 620.0001 536.60006 620.6001 538.4L615.6001 542C615.3001 542.2 615.1001 542.6 615.0001 543 614.90017 543.4 615.0001 543.8 615.3001 544.1L624.70016 557.1C625.20016 557.8 626.10018 557.89999 626.8001 557.39999L631.8001 553.8C633.3001 554.89999 634.9001 555.89999 636.6001 556.8L635.6001 562.89999C635.5001 563.69998 636.0001 564.49996 636.8001 564.6L652.70016 567.19998C652.8001 567.19998 652.90017 567.19998 652.90017 567.19998 653.20016 567.19998 653.5001 567.1 653.8002 566.89999 654.10018 566.69998 654.3002 566.3 654.40017 565.89999L655.40017 559.8C657.3002 559.5 659.10018 559.1 660.90017 558.5L664.5001 563.5C664.70016 563.8 665.1001 564 665.5001 564.1 665.90017 564.19998 666.3001 564.1 666.6001 563.8L679.6001 554.39999C679.9001 554.19998 680.1001 553.8 680.2001 553.39999 680.30007 552.99996 680.2001 552.6 679.9001 552.3L676.3001 547.3C677.4001 545.8 678.4001 544.2 679.3001 542.5L685.4001 543.5C686.2001 543.6 687.00009 543.1 687.1001 542.3L689.7001 526.39999C689.80007 525.6 689.30007 524.8 688.50009 524.69998L682.4001 523.69998C682.1001 521.7999 681.7001 519.99996 681.1001 518.19998L686.2001 514.6C686.50009 514.39999 686.7001 514 686.80007 513.6 686.9 513.19998 686.80007 512.8 686.50009 512.5L677.10006 499.5C676.8 499.2 676.4 499 676 498.9ZM678.3 516.5C677.8 516.9 677.5 517.6 677.8 518.2 678.6 520.5 679.2 522.8 679.5 525.2 679.6 525.9 680.1 526.4 680.8 526.5L686.5 527.4 684.4 540.30007 678.7 539.4C678 539.30007 677.4 539.60006 677.10006 540.30007 676.10006 542.50009 674.80007 544.50009 673.30007 546.4 672.9 546.9 672.9 547.7 673.2001 548.2L676.6001 552.9 666.0001 560.5 662.6001 555.8C662.2001 555.3 661.5001 555 660.9001 555.3 658.6001 556.1 656.3001 556.7 653.9001 557 653.2001 557.1 652.7001 557.6 652.6001 558.3L651.7001 564.1 638.80007 562 639.7001 556.2C639.80007 555.5 639.50009 554.9 638.80007 554.60006 636.60006 553.60006 634.60006 552.30007 632.7001 550.80007 632.2001 550.4 631.4001 550.4 630.9001 550.80007L626.2001 554.2001 618.6001 543.6001 623.3001 540.2001C623.9001 539.80007 624.1001 539.1001 623.8001 538.50009 623.0001 536.30007 622.4001 533.9001 622.1001 531.50009 622.0001 530.80007 621.5001 530.30007 620.9001 530.2001L615.2001 529.30007 617.30007 516.4 623.10006 517.30007C623.80007 517.4 624.4 517.10006 624.7 516.4 625.7 514.2 627 512.10006 628.5 510.30003 628.9 509.80003 629 509.00004 628.6 508.50004L625.19998 503.80003 635.7999 496.2 639.19998 500.90003C639.6 501.40003 640.2999 501.7 640.89999 501.40003 643.19998 500.60005 645.49996 500.00004 647.89999 499.7 648.6 499.6 649.1 499.1 649.19998 498.40003L650.1 492.60005 663 494.70005 662.1 500.50004C662 501.20005 662.3 501.80003 663 502.10005 665.1 503.10005 667.2 504.40003 669.1 505.90003 669.6 506.30003 670.39999 506.30003 670.89999 505.90003L675.6 502.50004 683.19998 513.10006 678.3 516.5ZM653.3 512.7C649.1 512 645 513 641.5 515.5 638 518 635.8 521.6 635.1 525.8 633.69998 534.39999 639.6 542.5 648.19998 543.89999 649.1 543.99996 649.89999 544.1 650.69998 544.1 658.2999 544.1 664.99996 538.6 666.2999 530.8 666.99996 526.6 665.99996 522.5 663.49996 519 660.99996 515.5 657.5 513.4 653.3 512.7ZM663.4 530.4C662.30007 537.4 655.7 542.10006 648.7 541 641.7 539.9 637 533.3 638.10006 526.3 638.60006 522.89999 640.50009 520 643.30007 518 646.10006 516 649.50009 515.2 652.80007 515.7 656.2001 516.2 659.10006 518.10006 661.10006 520.9 663.1 523.6 663.9 527 663.4 530.4ZM825.7 400.4C808.3 397.6 790.8 401.69999 776.5 412 762.2 422.3 752.7 437.6 749.9 455 747.10006 472.4 751.2 489.9 761.5 504.2 771.8 518.5 787.1 528 804.5 530.8 808.1 531.39999 811.6 531.7 815.1 531.7 846.89999 531.7 875 508.6 880.3 476.2 883.1 458.80003 879 441.30003 868.7 427 858.4 412.6 843.1 403.2 825.7 400.4ZM877.4 475.7C871.80007 510 839.4 533.4 805 527.9 788.4 525.2 773.8 516.2 764 502.50004 754.1 488.80003 750.2 472.10005 752.9 455.50004 755.60006 438.90003 764.60006 424.30003 778.30007 414.50004 789.2001 406.70005 801.9 402.60005 815.10006 402.60005 818.50009 402.60005 821.9 402.90003 825.30007 403.40003 841.9 406.10005 856.50009 415.10005 866.30007 428.80003 876.2 442.4 880.1 459.1 877.4 475.7ZM829.8 164.4C794.39999 129.4 753.2 101.899997 707.39999 82.59999 659.89999 62.69999 609.49996 52.59999 557.5 52.59999 487.9 52.59999 419.7 71.19999 360.2 106.399997 319.5 130.5 283.7 161.79999 254.6 198.5 254.5 198.6 254.40001 198.8 254.3 198.9 253.40001 200 252.6 201.09999 251.7 202.2 251.5 202.4 251.3 202.7 251.09999 202.9 248.4 206.4 245.7 210 243.09999 213.59999 242.9 213.79999 242.7 214.09999 242.59999 214.29999 235.09999 224.9 227.99999 235.9 221.59999 247.19998 221.59999 247.19998 221.59999 247.29999 221.49999 247.29999 220.29999 249.9 192.39998 312.5 219.99999 354.5 236.39998 379.5 269.09999 391.8 317.09999 391H317.19999C317.3 391 317.3 391 317.4 391H317.5C317.5 391 317.6 391 317.7 391 317.80003 391 317.80003 391 317.90003 391 321.50004 390.9 348.50004 390.6 370.10005 408.4 370.20005 408.5 370.30006 408.5 370.40003 408.6 384.60005 420.4 393.50004 437.5 397.00004 459.80003 397.00004 461.6 397.50004 484.00004 405.00004 511.2 406.20005 515.5 407.60005 520 409.20005 524.7 409.20005 524.8 409.20005 524.8 409.20005 524.9 413.40007 537 418.60005 548.10006 424.70005 558.10006 424.80006 558.2 424.80006 558.30007 424.90007 558.30007 433.40007 572.2001 444.60008 585.60006 459.30006 596.2001 484.50007 614.4001 516.10006 622.1001 553.80007 619.30007 553.80007 619.30007 553.9 619.30007 553.9 619.30007 554 619.30007 554.10006 619.30007 554.10006 619.30007 555.10006 619.2001 556.10006 619.10006 557.10006 619.10006 557.7 619.10006 558.2 619.00009 558.80007 618.9 565.9 618.2 573.2001 617.2 580.7001 615.7H580.80007L581.10006 615.60006C581.10006 615.60006 581.2 615.60006 581.2 615.60006 593.9 613.2 607.10006 609.80007 620.9 605.30007 621 605.30007 621.10006 605.2001 621.10006 605.2001 621.30007 605.1001 636.9 597.2001 656.2 596.7001 681.9 596.00009 701.60006 607.9001 714.7 632.2001 716.10006 634.7001 750.7 694.6001 798.8 698.2001 800.3 698.30007 801.8 698.4001 803.3 698.4001 825.8 698.4001 847.39999 685.50009 867.6 659.9001 916.6 594.00009 942.5 515.80007 942.5 433.80009 942.5 382.30009 932.3 332.30009 912.2 285.30009 893 240.3 865.2 199.5 829.8 164.4ZM255.9 201.9 269.8 216.7C270.19999 217.2 270.9 217.3 271.5 217 279.9 213 288.8 210.9 298.1 210.7 298.80003 210.7 299.30003 210.3 299.5 209.59999L306.7 185.7 320.90003 188 320.2 212.9C320.2 213.59999 320.6 214.09999 321.2 214.4 329.90003 217.5 337.80003 222.29999 344.40003 228.79999 344.90003 229.29999 345.60005 229.29999 346.2 228.99999L368.2 217.19998 376.6 228.89998 358.4 246C357.9 246.4 357.8 247.1 358.1 247.7 362.1 256.1 364.2 265 364.4 274.3 364.4 275 364.8 275.5 365.5 275.69999L389.4 282.9 387.1 297.1 362.2 296.4C361.5 296.4 361 296.8 360.7 297.4 357.6 306.1 352.80003 314 346.30003 320.6 345.80003 321.1 345.80003 321.80003 346.1 322.4L357.9 344.4 346.19999 352.8 329 334.7C328.6 334.2 327.9 334.1 327.3 334.40003 318.9 338.40003 310 340.50004 300.69999 340.7 299.99998 340.7 299.49998 341.1 299.3 341.80003L292.09999 365.7 277.89997 363.40003 278.59999 338.50004C278.59999 337.80003 278.19999 337.30003 277.59999 337.00004 268.89997 333.90003 260.99998 329.10005 254.39998 322.60005 253.89998 322.10005 253.19998 322.00004 252.59998 322.40003L230.59998 334.2 222.19998 322.5 240.39998 305.4C240.89998 305 240.99999 304.3 240.69998 303.69999 236.69998 295.3 234.59998 286.4 234.39998 277.09999 234.39998 276.39997 233.99999 275.89997 233.29998 275.69999L216.69997 270.69999C218.59996 263.99998 220.49997 258.4 221.99997 254.59998L236.69997 254.99997C237.39997 254.99997 237.89997 254.59998 238.19997 253.99997 241.29998 245.29998 246.09996 237.39997 252.59996 230.79998 253.09996 230.29998 253.09996 229.59998 252.79996 228.99997L245.59996 215.69997C245.79996 215.39997 246.09996 214.99997 246.29996 214.69997 247.49996 212.99997 248.79996 211.19997 250.09996 209.49997 250.29996 209.29998 250.49996 208.99997 250.59996 208.79998 251.29996 207.89998 251.99996 206.89998 252.69997 205.99997 252.99997 205.59998 253.29998 205.19997 253.59996 204.79998 254.4 203.7 255.1 202.8 255.9 201.9ZM243.6 218.3 249.5 229.40001C243.4 236.00002 238.7 243.50002 235.6 251.90001L223.1 251.50002C223.70001 250.20001 224 249.30002 224.20001 248.90001 230.2 238.4 236.7 228.1 243.6 218.3ZM422.4 374.7C436.1 379.40003 448.3 387 458.69999 397.2 459.19999 397.7 459.9 397.80003 460.49998 397.5L489.19999 382.1 501.9 399.7 478.19999 422.1C477.69999 422.6 477.59999 423.30003 477.9 423.9 484.3 437 487.6 450.9 487.69999 465.4 487.69999 466.1 488.09999 466.6 488.8 466.8L520 476.19999 516.5 497.59999 483.9 496.59999C483.19999 496.59999 482.6 496.99998 482.4 497.59999 477.69999 511.3 470.1 523.5 459.9 533.89999 459.4 534.39999 459.3 535.1 459.6 535.69998L475 564.39999 457.4 577.1 435 553.39999C434.7 553.1 434.3 552.89999 433.9 552.89999 433.69999 552.89999 433.5 552.89999 433.19999 553.1 430.99998 554.19998 428.8 555.19998 426.49998 556.1 420.49998 546 415.89997 535.6 412.39997 526 434.09999 518.1 449.69996 499.3 453.39997 476.6 456.09999 459.9 452.09999 443.2 442.19996 429.4 432.29997 415.69999 417.69996 406.6 400.99995 403.9 390.99995 402.3 380.69996 403.1 371.09996 406.19999 348.89994 388.3 322.19996 388.49998 317.69996 388.69999L306.69996 368.3 324.29997 355.59999 346.59996 379.3C347.09996 379.8 347.79997 379.9 348.39994 379.59999 361.49995 373.19999 375.39994 369.89997 389.89994 369.8 390.59996 369.8 391.09996 369.4 391.29994 368.69999L400.69993 337.49998 422.0999 340.99998 421.0999 373.49998C421.3 373.9 421.7 374.5 422.4 374.7ZM399.9 460C399.9 459.9 399.9 459.9 399.9 459.8 396.1 434.69999 385.6 418.59999 374 408.19999 382.6 405.59999 391.8 405.09999 400.7 406.49998 416.6 409.09999 430.5 417.69999 440 430.79997 449.5 443.89994 453.2 459.89997 450.6 475.69996 447.1 497.39997 432.2 515.19998 411.6 522.69998 410.2 518.6 408.9 514.49996 407.9 510.79997 400.2 483 399.9 460.2 399.9 460ZM539.2 603C535.8 601.4 532.60006 599.4 529.7 597.1 529.2 596.69998 528.4 596.69998 527.9 597L520 602.7 507.4 585.2 515.3 579.5C515.8 579.1 516.1 578.4 515.8 577.8 514.5 574.3 513.6 570.6 513.2 566.89999 513.10006 566.19998 512.60006 565.69998 511.90003 565.6L502.30003 564 505.80003 542.7 515.4 544.3C516.10006 544.39999 516.7 544.1 517 543.39999 518.6 539.99996 520.5 536.8 522.9 533.89999 523.30007 533.39999 523.30007 532.6 522.9 532.1L517.2 524.19998 534.7 511.59996 540.4 519.49996C540.80007 519.99996 541.5 520.2999 542.10006 519.99996 545.60006 518.69998 549.30007 517.7999 553.00009 517.39999 553.7001 517.3 554.2001 516.8 554.30007 516.1L555.9 506.49998 577.2 509.99998 575.60006 519.6C575.50009 520.3 575.80007 520.89999 576.50009 521.19998 579.9001 522.69998 583.10006 524.69998 586.00009 527.1 586.50009 527.5 587.30007 527.5 587.80007 527.19998L595.7001 521.49996 608.30007 538.99996 600.4 544.69998C599.9 545.1 599.60006 545.7999 599.9 546.39999 601.2 549.89999 602.10006 553.6 602.5 557.3 602.6 558 603.1 558.5 603.8 558.6L613.39999 560.19998 609.89999 581.49996 600.3 579.89999C599.6 579.8 599 580.1 598.7 580.8 597.2 584.2 595.2 587.39999 592.8 590.3 592.39999 590.8 592.39999 591.6 592.8 592.1L598.5 600 581 612.6 575.3 604.69998C574.89999 604.19998 574.2 603.89999 573.6 604.19998 570.1 605.49996 566.39999 606.39999 562.69998 606.7999 561.99996 606.8999 561.49996 607.3999 561.39999 607.99996L560.1 616.0999C560.1 616.0999 560 616.0999 560 616.0999 558.1 616.2999 556.1 616.49996 554.2 616.5999 554.10006 616.5999 554 616.5999 554 616.5999L538.6 614.0999 540.19998 604.49996C540.2 603.9 539.8 603.3 539.2 603ZM577.9 613.6C572.9 614.5 567.9 615.19998 563.10006 615.8L564.10006 609.7C567.30007 609.3 570.4 608.5 573.50009 607.5L577.9 613.6ZM883.1 531.3 902.69998 567.7 884.3 581 856 550.9C855.6 550.4 854.9 550.30007 854.3 550.60006 842.89999 555.9 830.7 558.80007 818.2 559.2 817.60006 559.2 817 559.7 816.8 560.3L804.89999 599.89999 782.49996 596.3 783.69998 555C783.69998 554.4 783.2999 553.8 782.69998 553.5 770.89999 549.2 760.2999 542.6 751.1 533.9 750.6 533.5 749.89999 533.4 749.39999 533.7L713 553.1 699.8 534.69998 729.89999 506.39997C730.39999 505.99998 730.49996 505.29997 730.19998 504.69996 724.89999 493.29997 721.99996 481.09996 721.6 468.59996 721.6 467.99995 721.19998 467.39994 720.5 467.19996L681 455.3 684.6 432.9 725.89999 434.1C726.49996 434.1 727.1 433.7 727.39999 433.1 731.69998 421.30003 738.3 410.7 746.99996 401.5 747.39999 401 747.49996 400.3 747.19998 399.8L727.6 363.4 746 350.19999 774.3 380.3C774.7 380.8 775.39999 380.9 776 380.59999 787.4 375.3 799.6 372.39997 812.1 371.99998 812.69998 371.99998 813.3 371.59999 813.5 370.89997L825.4 331.29997 847.80007 334.89997 846.60006 376.19996C846.60006 376.79997 847.00009 377.39997 847.60006 377.69996 859.4 381.99995 870.00009 388.59996 879.2 397.29997 879.7 397.69996 880.4 397.79997 880.9 397.49998L917.30007 377.89997 930.50009 396.29997 900.4001 424.59996C899.9001 424.99995 899.8001 425.69996 900.1001 426.29997 905.4001 437.69996 908.3001 449.89997 908.7001 462.39997 908.7001 462.99998 909.2001 463.59999 909.80007 463.79997L937.80007 472.19996C936.9 480.69996 935.80007 489.19996 934.30007 497.69996L904.4 496.79997C903.80007 496.79997 903.2 497.19996 902.9 497.79997 898.60006 509.59996 892 520.19998 883.30007 529.39999 882.9 530.1 882.8 530.8 883.1 531.3ZM938 469.4 911.6 461.5C911.1 449.3 908.3 437.4 903.3 426.3L933.6 397.8C934.1 397.3 934.19998 396.4 933.8 395.8L919 375.2C918.6 374.6 917.7 374.40003 917.1 374.80003L880.5 394.50004C871.5 386.20005 861.1 379.80003 849.7 375.40003L851 333.90003C851 333.10005 850.5 332.50004 849.7 332.40003L824.7 328.30003C824 328.2 823.2 328.6 823 329.30003L811 369.1C798.8 369.6 786.9 372.4 775.8 377.4L747.3 347.1C746.8 346.6 745.89999 346.5 745.3 346.9L724.8 361.69999C724.2 362.09999 724 362.99998 724.39999 363.59999L744.1 400.19999C735.8 409.19999 729.39999 419.59999 725 430.99998L683.5 429.79997C682.8 429.79997 682.1 430.29997 682 431.09996L677.9 456.09996C677.80007 456.79997 678.2 457.59996 678.9 457.79997L718.7 469.79997C719.2 481.99998 722 493.89997 727 504.99998L696.7 533.5C696.2 534 696.10006 534.9 696.5 535.5L711.3 556C711.7 556.6 712.6 556.8 713.2 556.4L749.8 536.7C758.8 545 769.2 551.4 780.6 555.8L779.39999 597.3C779.39999 598.1 779.89999 598.7 780.69998 598.8L805.69998 602.89999C805.7999 602.89999 805.89999 602.89999 805.89999 602.89999 806.6 602.89999 807.1 602.49996 807.3 601.8L819.3 562C831.5 561.5 843.39999 558.7 854.5 553.7L883 584C883.5 584.5 884.4 584.6 885 584.2L905.5 569.4C906.1 569 906.3 568.10006 905.9 567.5L886.2 530.9C894.5 521.9 900.9 511.50004 905.3 500.10005L933.7 500.90003C923.5 557.7 900.4 611.30007 865.3 658.5 844.5 684.9 822.2 697.4 799.1 695.6 752.69998 692.1 717.69998 631.69998 717.39999 631.1 700.99996 600.69998 676.69998 594 658.3 594 657.5 594 656.8 594 656 594 636.7 594.6 621.4 602 619.8 602.8 608.6 606.39999 597.7 609.39999 587.3 611.6L601.39999 601.5C601.69998 601.3 601.89999 600.9 601.99996 600.5 602.0999 600.1 601.99996 599.7 601.69998 599.4L595.7999 591.2C597.7999 588.60006 599.49996 585.9 600.8999 583L610.7999 584.6C611.19998 584.69998 611.5999 584.6 611.8999 584.3 612.1999 584.1 612.3999 583.7 612.4999 583.3L616.3999 559C616.4999 558.2 615.9999 557.4 615.1999 557.3L605.29989 555.7C604.89987 552.5 604.09988 549.4 603.09988 546.3L611.29989 540.39999C611.9999 539.89999 612.09988 538.99996 611.59988 538.3L597.1998 518.39999C596.9998 518.1 596.59988 517.89999 596.1998 517.8 595.7998 517.7 595.39987 517.8 595.09988 518.1L586.89987 524C584.29989 522 581.59988 520.3 578.6998 518.9L580.2998 509.00004C580.3998 508.60005 580.2998 508.20005 579.9998 507.90003 579.7998 507.60005 579.39987 507.40003 578.9998 507.30003L554.7998 503.40003C554.3998 503.30003 553.9998 503.40003 553.6998 503.7 553.39987 503.90003 553.1998 504.30003 553.09988 504.7L551.4999 514.60006C548.29989 515.00009 545.09988 515.80007 542.09988 516.80007L536.1998 508.60005C535.9998 508.30006 535.59988 508.10005 535.1998 508.00004 534.7998 507.90003 534.39987 508.00004 534.09988 508.30003L514.1998 522.7C513.4998 523.2 513.39987 524.10006 513.89987 524.8L519.79989 533C517.79989 535.6 516.09988 538.3 514.6999 541.2L504.7999 539.60006C503.9999 539.50009 503.1999 540.00009 503.09989 540.80007L499.1999 565.10006C499.09989 565.9 499.59989 566.7 500.3999 566.80007L510.2999 568.4C510.6999 571.60006 511.4999 574.80007 512.4999 577.80007L504.29988 583.7001C503.99989 583.9001 503.79988 584.30007 503.69987 584.7001 503.59986 585.1001 503.69987 585.50009 503.99986 585.80007L518.39987 605.7001C518.59988 606.00009 518.9998 606.2001 519.39987 606.30007 519.79989 606.4 520.1998 606.30007 520.4998 606.00009L528.6998 600.10006C531.1998 602.10006 533.9998 603.80007 536.89987 605.2L535.29989 615.10006C535.1999 615.9 535.6999 616.7 536.4999 616.80007L538.59988 617.10006C508.19987 617.00009 482.29988 609.30007 461.09986 594.00009 447.09986 583.9001 436.39985 571.30007 428.19987 558.2001 430.09986 557.4001 431.89988 556.7001 433.59986 555.80007L456.09986 579.7001C456.39985 580.00009 456.79988 580.2001 457.19987 580.2001 457.49986 580.2001 457.79988 580.1001 458.09986 579.9001L477.79988 565.7001C478.39988 565.30007 478.59986 564.4001 478.19987 563.80007L462.8 535C472.5 524.9 480.09999 512.6 484.8 499.4L517.6 500.4C518.3 500.4 519 499.9 519.1 499.1L523 475.1C523.1 474.4 522.7 473.6 522 473.4L490.6 464C490.30003 450 487 436 481 423.3L504.9 400.8C505.4 400.3 505.5 399.4 505.1 398.8L490.9 379.09999C490.5 378.49998 489.6 378.3 489 378.69999L460 394.3C449.9 384.59999 437.6 377 424.4 372.3L425.4 339.5C425.4 338.7 424.9 338.1 424.1 338L400.1 334.1C399.4 334 398.6 334.4 398.4 335.1L389 366.5C375 366.8 361 370.1 348.3 376.1L325.8 352.2C325.3 351.7 324.4 351.6 323.8 352L304.09999 366.2C303.49998 366.6 303.3 367.5 303.69999 368.1L314.59999 388.30003C269.09999 388.6 238.09998 376.80003 222.59998 353.1 206.19998 328.1 210.19998 295.5 215.89998 273.40003L231.39998 278.10005C231.69998 287.00004 233.79998 295.70005 237.49999 303.80006L219.19998 321.10005C218.69998 321.60005 218.59998 322.50004 218.99999 323.10005L228.99999 336.90003C229.39998 337.50004 230.29999 337.7 230.89998 337.30003L253.09998 325.40003C259.69999 331.50004 267.19999 336.2 275.59999 339.30003L274.8 364.50004C274.8 365.30003 275.3 365.90003 276.09999 366.00004L292.89997 368.70005C292.99998 368.70005 293.09999 368.70005 293.09999 368.70005 293.8 368.70005 294.3 368.30006 294.49998 367.60005L301.69999 343.50004C310.59999 343.20005 319.3 341.10005 327.4 337.40003L344.69999 355.7C345.19999 356.2 346.09999 356.30003 346.69999 355.90003L360.49998 345.90003C361.09999 345.50004 361.29997 344.60005 360.89997 344.00004L349.2 322C355.30003 315.4 360 307.9 363.1 299.5L388.30003 300.3C389.1 300.3 389.7 299.8 389.80003 299L392.50004 282.2C392.60005 281.5 392.20005 280.7 391.50004 280.5L367.40003 273.3C367.10005 264.4 365.00004 255.69998 361.30003 247.49999L379.6 230.19998C380.1 229.69998 380.2 228.79999 379.80003 228.19998L369.80003 214.39998C369.40003 213.79998 368.50004 213.59998 367.90003 213.99999L345.7 225.89998C339.1 219.79998 331.6 215.09998 323.2 211.99999L324 186.79999C324 185.99999 323.5 185.4 322.7 185.29999L305.90003 182.59999C305.2 182.49999 304.40003 182.9 304.2 183.59999L297 207.7C288.1 208 279.4 210.09999 271.3 213.8L257.8 199.5C286.59999 163.5 321.8 132.8 361.8 109.1 420.8 74.2 488.5 55.699998 557.6 55.699998 609.19998 55.699998 659.19998 65.7 706.39999 85.399997 751.89999 104.49999 792.8 131.79999 827.89999 166.5 862.99996 201.3 890.49996 241.7 909.8 286.8 929.7 333.5 939.8 383 939.8 434.09999 939.6 446 939.1 457.7 938 469.4Z" fill="#231f20"/>
</g>
<g clip-path="url(#clip_35)">
<text fill="#0057ff" fill-opacity=".302" xml:space="preserve" transform="matrix(.75 0 0 .75 56.84496 33.31361)" font-size="129.64" font-family="Horta"><tspan y="97" x="9.71875 59.624406 109.53006 151.65822 201.56388 226.19264 276.0983 326.00398 350.63276 375.26155">HOLD ON...</tspan></text>
<text fill="#0057ff" fill-opacity=".502" xml:space="preserve" transform="matrix(.75 0 0 .75 53.64177 30.899832)" font-size="129.64" font-family="Horta"><tspan y="97" x="9.71875 59.624406 109.53006 151.65822 201.56388 226.19264 276.0983 326.00398 350.63276 375.26155">HOLD ON...</tspan></text>
<text fill="#90c6c1" xml:space="preserve" transform="matrix(.75 0 0 .75 50.438577 28.486054)" font-size="129.64" font-family="Horta"><tspan y="97" x="9.71875 59.624406 109.53006 151.65822 201.56388 226.19264 276.0983 326.00398 350.63276 375.26155">HOLD ON...</tspan></text>
<text fill="#0057ff" fill-opacity=".302" xml:space="preserve" transform="matrix(.75 0 0 .75 98.33884 400.65574)" font-size="91.1" font-family="Horta"><tspan y="69" x="50.140626 79.74611 110.26253 143.05629 160.3641 213.1985">LET ME</tspan></text>
<text fill="#0057ff" fill-opacity=".502" xml:space="preserve" transform="matrix(.75 0 0 .75 96.08794 398.95957)" font-size="91.1" font-family="Horta"><tspan y="69" x="50.140626 79.74611 110.26253 143.05629 160.3641 213.1985">LET ME</tspan></text>
<text fill="#90c6c1" xml:space="preserve" transform="matrix(.75 0 0 .75 93.83704 397.2634)" font-size="91.1" font-family="Horta"><tspan y="69" x="50.140626 79.74611 110.26253 143.05629 160.3641 213.1985">LET ME</tspan></text>
<text fill="#0057ff" fill-opacity=".302" xml:space="preserve" transform="matrix(.75 0 0 .75 98.33884 400.65574)" font-size="91.1" font-family="Horta"><tspan y="160" x="1.40625 36.477357 69.72658 100.243 135.3141 168.10787 203.17897 220.48679 255.55789">OVERTHINK</tspan></text>
<text fill="#0057ff" fill-opacity=".502" xml:space="preserve" transform="matrix(.75 0 0 .75 96.08794 398.95957)" font-size="91.1" font-family="Horta"><tspan y="160" x="1.40625 36.477357 69.72658 100.243 135.3141 168.10787 203.17897 220.48679 255.55789">OVERTHINK</tspan></text>
<text fill="#90c6c1" xml:space="preserve" transform="matrix(.75 0 0 .75 93.83704 397.2634)" font-size="91.1" font-family="Horta"><tspan y="160" x="1.40625 36.477357 69.72658 100.243 135.3141 168.10787 203.17897 220.48679 255.55789">OVERTHINK</tspan></text>
<text fill="#0057ff" fill-opacity=".302" xml:space="preserve" transform="matrix(.75 0 0 .75 98.33884 400.65574)" font-size="91.1" font-family="Horta"><tspan y="251" x="86.8125 119.60626 154.67737 171.98519">THIS</tspan></text>
<text fill="#0057ff" fill-opacity=".502" xml:space="preserve" transform="matrix(.75 0 0 .75 96.08794 398.95957)" font-size="91.1" font-family="Horta"><tspan y="251" x="86.8125 119.60626 154.67737 171.98519">THIS</tspan></text>
<text fill="#90c6c1" xml:space="preserve" transform="matrix(.75 0 0 .75 93.83704 397.2634)" font-size="91.1" font-family="Horta"><tspan y="251" x="86.8125 119.60626 154.67737 171.98519">THIS</tspan></text>
</g>
</svg>
