<svg xmlns="http://www.w3.org/2000/svg" xmlns:xlink="http://www.w3.org/1999/xlink" version="1.1" width="384pt" height="600pt" viewBox="0 0 384 600">
<defs>
<clipPath id="clip_94">
<path transform="matrix(.24,0,0,.24,0,0)" d="M0 0H1600V2500H0Z" fill-rule="evenodd"/>
</clipPath>
<clipPath id="clip_95">
<path transform="matrix(.24,0,0,.24,0,0)" d="M0 0H1600V2500H0Z" fill-rule="evenodd"/>
</clipPath>
<clipPath id="clip_96">
<path transform="matrix(.24,0,0,.24,0,0)" d="M0 0H1600V2500H0Z" fill-rule="evenodd"/>
</clipPath>
<clipPath id="clip_97">
<path transform="matrix(.24,0,0,.24,0,229.2)" d="M0 0H1600V1201H0Z" fill-rule="evenodd"/>
</clipPath>
<clipPath id="clip_98">
<path transform="matrix(.24,0,0,.24,0,229.2)" d="M-1 .26953126H1600.0073V1200.2695H-1Z" fill-rule="evenodd"/>
</clipPath>
</defs>
<g>
<g clip-path="url(#clip_94)">
<path transform="matrix(.75,0,0,.75,0,-1215)" d="M0 1620H512V2420H0Z" fill="#ffffff"/>
</g>
<g clip-path="url(#clip_95)">
<path transform="matrix(.75,0,0,.75,0,0)" d="M0 0H512V800H0Z" fill="#ffffff"/>
</g>
<g clip-path="url(#clip_96)">
<g opacity=".4863">
<g clip-path="url(#clip_97)">
<g clip-path="url(#clip_98)">
<path transform="matrix(0,1.275033,1.0645187,0,614.2757,-569.9579)" d="M631.9-260.3C631.2-267.3 630.60006-274.19999 630-281.09999 628.7-296.49998 627.8-311.8 627.4-327.09999 626.9-342.8 627-359.8 629.2-377.49998 630.10006-384.89997 631.7-393.19999 634.5-401.69999 637.3-409.9 641.5-417.19999 647.1-422.3 649.8-424.69999 652.89999-426.4 656.39999-427.19999 659.69998-427.8 662.99996-427.19999 665.99996-425.49998 672.5999-421.19999 677.19998-414.49998 680.19998-407.49998 684.2999-398.79997 687.2999-389.59999 689.7999-380.79997 692.7999-370.49998 695.3999-359.99998 697.99996-349.79997 700.69998-339.19996 703.2999-328.79997 706.19998-318.69996 708.89999-309.29997 711.6-300.69996 714.89999-293.19996 717.89999-287.09996 719.99996-282.39997 721.69998-281.09996 722.19998-280.59996 722.6-280.19996 722.69998-280.19996 722.7999-279.99995 723.39999-279.99995 724.19998-279.89997 727.69998-279.39997 731.89999-281.69996 735.7999-285.19996 740.8999-289.79997 744.99996-297.99995 749.2999-307.79997 759.8999-333.09996 764.99996-365.09996 769.0999-399.69996 772.7999-432.39997 774.3999-465.79997 774.5999-499.19996 774.6999-509.99995 774.5999-520.69998 774.2999-531.2999 774.19998-534.19998 774.0999-537.0999 773.99996-539.99996 773.99996-540.69998 773.89999-541.49996 773.89999-542.19998 773.89999-542.19998 773.89999-542.2999 773.89999-542.2999 796.1-556.3999 821.6-572.69998 851.39999-591.7999 851.39999-591.5999 851.39999-591.3999 851.39999-591.2999 851.49996-590.19998 851.49996-589.0999 851.6-588.0999 851.8-584.0999 851.89999-580.0999 852.1-576.1999 852.5-561.9999 852.69998-547.6999 852.5-533.29989 852.1-488.99989 849.4-443.89988 843.1-398.99989 837-352.89988 827-306.49989 806.89999-266.99989 799.19998-251.49988 788.69998-237.39987 774.8-227.49988 763-219.09989 748.5-216.29988 733-219.99988 727.2-221.49988 721.1-224.49988 715.1-228.89987 709.69998-233.09987 704.89999-237.99988 701-243.39987 692.9-254.79987 687.7-265.89988 684.5-275.29988 680.5-286.39988 677.6-296.89988 675.3-306.29988 672.7-316.69987 670.6-326.59986 668.6-335.99989 666.6-345.09989 664.8-353.79988 662.8-361.6999 661-368.59989 659.39999-374.6999 657.39999-379.3999 655.69998-382.7999 654.8-385.3999 654.1-385.2999 654-385.2999 654-385.3999 654-385.3999 654.1-385.4999 653.8-385.2999 653.3-385.0999 652.7-384.9999 651.8-383.3999 651-381.5999 649.8-378.9999 649-374.69993 648.2-369.3999 646.2-356.3999 646.3-341.2999 646.7-325.2999 647.10006-310.2999 648.2-294.8999 649.60006-279.09989 650.4-271.59989 651.2-264.09989 652.00009-256.49989 644.8-257.8 638.1-259.1 631.9-260.3Z" fill="#474646"/>
<path transform="matrix(0,1.275033,1.0645187,0,614.2757,-569.9579)" d="M633-260.1 631-281C629.7-296.4 628.8-311.7 628.4-327 627.9-342.7 628-359.6 630.10006-377 631.00009-384.3 632.50009-392.4 635.30007-400.5 638.00009-408.3 642.00009-415.2 647.30007-420 649.80007-422.2 652.80007-423.8 656.10006-424.5 659.2-425 662.2-424.4 665.00009-422.8 671.10006-418.69999 675.50009-412.3 678.4001-405.5 682.3001-397 685.2001-388.1 687.7001-379.4 690.6001-369.19999 693.2001-358.9 695.7001-348.8 698.30007-338.3 700.9001-327.9 703.80007-317.8 706.50009-308.4 709.2001-299.69999 712.60006-291.9 715.60006-285.6 717.9-280.4 720.2-278.5 721-277.7 721.7-277.1 722.10006-276.9 722.60006-276.5 723.50009-276.4 724.60006-276.19999 728.80007-275.59999 733.50009-278.09999 737.9-281.99998 743.4-286.99998 747.9-295.49998 752.30007-305.69999 763.4-331.8 768.60006-364.49998 772.9-399.69999 776.7-433.09999 778.4-467 778.60006-501 778.7-512 778.60006-522.9 778.30007-533.6 778.2001-536.6 778.10006-539.5 778.00009-542.39999 778.00009-543.19998 777.9001-543.89999 777.9001-544.6 777.9001-544.6 777.9001-544.69998 777.9001-544.69998 797.6001-557.2999 820.00009-571.49996 845.6001-587.7999 845.6001-587.5999 845.6001-587.49996 845.6001-587.2999 845.7001-586.19998 845.7001-585.19998 845.8001-584.19998 846.0001-580.2999 846.1001-576.39999 846.3001-572.49996 846.70016-558.5999 846.8001-544.49996 846.70016-530.39999 846.3001-486.89997 843.70016-442.69996 837.70016-398.79997 831.8001-353.59996 822.20016-308.29997 802.90017-269.69996 795.5001-254.59995 785.5001-240.89995 772.3002-231.19995 761.10018-223.09995 747.40017-220.09995 732.7002-223.49996 727.2002-224.79996 721.5002-227.49996 715.8002-231.69995 710.7002-235.59995 706.2002-240.19995 702.40017-245.29996 694.60018-256.09996 689.60018-266.79997 686.40017-275.99998 682.40017-286.89997 679.5001-297.29997 677.20016-306.69999 674.60018-317.09999 672.40017-326.99998 670.40017-336.49998 668.40017-345.69999 666.5001-354.39997 664.40017-362.49998 662.60018-369.49998 660.90017-375.79997 658.8002-380.69999 657.10018-384.3 655.90017-387.19999 655.0002-387.4 654.7002-387.6 654.5002-387.69999 654.4002-387.69999 654.2002-387.8 653.80026-387.49998 653.2002-387.19999 652.3002-386.8 651.1002-384.9 650.2002-382.69999 648.9002-379.69999 648.1002-375.09999 647.2002-369.69999 645.2002-356.3 645.3002-341.19999 645.7002-325.09999 646.1002-310.09999 647.2002-294.69999 648.6002-278.89997 649.4002-271.49998 650.1002-263.99998 650.9002-256.39997 644.4-257.9 638.5-259 633-260.1Z" fill="#f9f0de"/>
<path transform="matrix(0,1.275033,1.0645187,0,614.2757,-569.9579)" d="M634.1-259.9C633.39999-267 632.8-274 632.1-280.9 630.8-296.3 629.89999-311.6 629.5-326.9 629-342.69999 629.1-359.4 631.2-376.6 632.10006-383.80003 633.60006-391.6 636.2-399.4 638.8-406.9 642.7-413.4 647.60006-417.8 650.00009-419.9 652.80007-421.4 655.80007-421.9 658.7001-422.3 661.50009-421.69999 664.10006-420.19999 669.80007-416.4 674.00009-410.19999 676.7-403.59999 680.4-395.39997 683.3-386.59999 685.7-378.09999 688.60006-368.09999 691.10006-357.89997 693.5-347.8 696.1-337.4 698.6-327 701.5-316.9 704.2-307.5 706.9-298.6 710.3-290.69999 713.3-284.09999 715.89999-278.59999 718.6-275.99998 719.6-274.89997 720.6-273.99998 721.39999-273.59999 722.3-272.99998 723.49996-272.69999 724.89999-272.59999 729.8-271.89997 735.1-274.59999 739.8-278.8 745.7-284.09999 750.5-293.09999 755.1-303.5 766.6-330.4 772.1-363.9 776.39999-399.7 780.3-433.7 781.99996-468.30003 782.3-502.80003 782.39999-514 782.3-525.10006 782-536 781.9-539 781.8-542.1 781.7-545 781.7-545.8 781.60006-546.5 781.60006-547.3 781.60006-547.3 781.60006-547.39999 781.60006-547.39999 798.80007-558.39999 818.00009-570.6 839.4-584.3 839.4-584.1 839.4-584 839.4-583.89999 839.5-582.89999 839.5-581.8 839.60006-580.8 839.80007-577 839.9-573.2 840.00009-569.39999 840.4001-555.8 840.50009-541.99996 840.4001-528.1 840.00009-485.39997 837.50009-442.09999 831.7001-399.09999 825.9001-354.69999 816.80007-310.49998 798.2001-272.89997 791.1001-258.19996 781.6001-244.89997 769.1001-235.49997 758.5001-227.59998 745.5001-224.59998 731.7001-227.59998 726.50009-228.79998 721.2001-231.29998 715.9001-235.09998 711.1001-238.69998 706.9001-242.99997 703.2001-247.69998 695.80007-257.9 690.9001-268.19999 687.7001-277.3 683.7001-288 680.9001-298.19999 678.50009-307.69999 675.9001-318.09999 673.7001-327.99998 671.60006-337.49998 669.60006-346.79997 667.60006-355.59999 665.50009-363.79997 663.60006-370.89997 661.9001-377.39997 659.7001-382.49998 657.9001-386.39997 656.50009-389.39997 655.30007-389.99998 654.9-390.29997 654.50009-390.49998 654.10006-390.49998 653.7-390.59999 653.10006-390.29997 652.30007-389.79997 651.00009-389.09996 649.7001-386.89997 648.60006-384.29997 647.2-380.89997 646.30007-375.99998 645.4-370.49998 643.4-356.79997 643.5-341.49998 643.80007-325.49998 644.2001-310.49998 645.30007-295.09999 646.7001-279.29997 647.50009-271.89997 648.2001-264.39997 649.00009-256.89997 643.9-257.9 638.9-258.9 634.1-259.9Z" fill="#474646"/>
<path transform="matrix(0,1.275033,1.0645187,0,614.2757,-569.9579)" d="M640.8-258.6C640.1-265.9 639.39999-273.1 638.7-280.2 638.7-280.2 638.7-280.30003 638.7-280.30003 639.10006-280.30003 639.5-280.2 639.9-280.2 639.9-280.2 639.9-280.1 639.9-280.1 640.60006-272.9 641.30007-265.7 642-258.4 641.6-258.4 641.2-258.5 640.8-258.6ZM637-301.6C636.6-308.6 636.2-315.6 636-322.5 636.4-322.5 636.8-322.4 637.2-322.4 637.4-315.5 637.8-308.5 638.2-301.5 637.8-301.5 637.4-301.6 637-301.6ZM635.7-343.3C635.7-350.19999 636-357.09999 636.5-363.9 636.9-363.8 637.3-363.69999 637.7-363.6 637.2-356.9 636.9-350 636.9-343.2 636.5-343.2 636.1-343.2 635.7-343.3ZM639.4-384.4C640.10006-387.3 640.80007-390 641.80007-392.69999 643.2001-396.4 644.9-399.69999 647.00009-402.3 647.2001-401.59999 647.4001-400.9 647.7001-400.3 645.80007-398 644.1001-394.9 642.9001-391.5 642.00009-389 641.2001-386.4 640.6001-383.6 640.2-383.9 639.8-384.2 639.4-384.4ZM660-406.1C660.1-406.1 660.1-406 660.2-406 663.8-403.6 666.5-398.8 668.8-393.5 669.3-392.4 669.7-391.3 670.2-390.2 669.7-389.6 669.2-389.1 668.7-388.6 668.3-389.7 667.8-390.7 667.4-391.80003 665.2-396.80003 662.7-401.40003 659.5-403.50004 659.5-403.50004 659.4-403.60005 659.4-403.60005 659.5-404.5 659.7-405.3 660-406.1ZM677-368.1C679.1-360.2 681-352.1 682.9-343.80003 682.30007-343.50004 681.7-343.2 681.10006-342.90003 679.2-351.10005 677.30007-359.2 675.30007-366.90003 675.8-367.3 676.4-367.7 677-368.1ZM689-318.2C689.5-316.30003 690-314.40003 690.5-312.5 692.4-305.6 694.4-298.6 696.8-291.7 696.2-291.40003 695.5-291 694.89999-290.7 692.49996-297.7 690.49996-304.80003 688.6-311.7 688.1-313.6 687.6-315.5 687.1-317.40003 687.8-317.7 688.4-317.9 689-318.2ZM709.1-265.7C709.89999-264.6 710.69998-263.6 711.5-262.6 713.8-259.80003 716.3-257.5 719-255.70001 721.9-253.80002 725.1-252.70001 728.2-252.20001 728.8-252.1 729.3-252.00002 729.9-252.00002 730.10006-250.70001 730.4-249.50002 730.60006-248.20001 730.00009-248.30002 729.4-248.30002 728.80007-248.40001 725.4-249.00002 721.9-250.3 718.60006-252.40001 715.60006-254.40001 712.7-257.1 710.2-260.1 709.3-261.2 708.5-262.30003 707.60006-263.5 708.1-264.4 708.6-265.1 709.1-265.7ZM752.3-259.7C752.39999-259.80003 752.6-259.90003 752.7-260 759.5-265.7 765-273.7 769.8-282.8 770.89999-281.9 772.1-281 773.2-280 768.2-270.6 762.3-262.3 755.10006-256.4 755.00009-256.3 754.80007-256.19999 754.7-256.1 753.9-257.3 753.1-258.5 752.3-259.7ZM782.7-314.4C786.4-325.9 789.5-338.1 792-350.6 793.4-350.30003 794.9-349.9 796.3-349.6 793.6-336.80003 790.5-324.30003 786.6-312.5L782.7-314.4ZM798.5-389.7C798.9-393 799.4-396.2 799.8-399.5 801.1-409.7 802.1-419.9 803-430.2L807.7-430.80003C806.8-420.30003 805.7-409.90003 804.4-399.50004 804-396.20005 803.60006-392.90003 803.10006-389.60005 801.5-389.5 800-389.6 798.5-389.7ZM805.7-471.2C806.3-485 806.7-498.7 806.8-512.3L811.6-514.39999C811.5-500.49998 811.1-486.59999 810.5-472.49998L805.7-471.2ZM806.4-552.8C806.30007-555.2 806.2-557.6 806.10006-560 806.10006-560.9 806.00009-561.7 806.00009-562.6 806.00009-562.69998 806.00009-562.8 806.00009-562.89999L810.80007-565.89999C810.80007-565.89999 810.80007-565.6 810.80007-565.6 810.80007-564.69998 810.9-563.8 810.9-562.89999 811-560.49996 811.10006-558.1 811.2-555.6 811.2-555.6 806.4-552.8 806.4-552.8Z" fill="#f9f0de"/>
</g>
</g>
</g>
<text xml:space="preserve" transform="matrix(.75 0 0 .75 .119999248 103.7039)" font-size="15.99" font-family="Lora" font-style="italic"><tspan y="18" x="11.390625 21.700812 29.64532 43.96756 51.91207 66.234317 74.72228 82.666797 90.25965 94.367938 98.89181 108.69049 118.84083 128.30385 137.38324 146.83026 156.27729 161.77619 171.92652 179.87102 187.03229 194.19356 198.71743 204.21633 211.3776 215.90146 226.05179 234.6996 240.83788 245.36174 254.44113 258.965 268.1563 276.10084 283.26213 289.4004 294.8993 305.04963 314.12904 320.2673 325.7662 334.41404 344.56437 349.08824 357.5762 367.37489 373.51316 378.03703 387.11643 391.6403 396.7076 405.35545 415.1541 422.74699 432.8973 440.84184 449.37776 453.4061 457.92997 463.57273 469.08763 473.61149 482.1474 490.79524">Remember, unhappiness is not a destination but a journey. If you</tspan></text>
<text xml:space="preserve" transform="matrix(.75 0 0 .75 .119999248 103.7039)" font-size="15.99" font-family="Lora" font-style="italic"><tspan y="44" x="26.203125 31.718024 40.36584 45.209398 50.052957 58.700777 71.824199 76.34807 82.48635 91.94937 99.89388 107.05516 114.99967 119.523548 125.66183 131.16074 140.60776 147.76905 151.87732 156.40119 164.9371 173.58492 183.38359 186.8365 191.68006 196.5236 201.04747 209.53543 217.47994 222.0038 235.12722 243.07172 247.91527 252.75882 257.28269 265.93049 276.0808 280.60469 289.1406 297.78843 307.5871 315.17997 319.70384 332.82725 341.90666 350.44258 354.96644 361.1047 369.75254 374.2764 383.3558 387.87968 392.72325 398.22215 403.73704 411.68156 416.2054 421.7203 429.31318 437.2577 445.2022 449.72608 455.24098 462.83384 471.48167">follow these tips, you&#x2019;ll be well on your way to a life free from</tspan></text>
<text xml:space="preserve" transform="matrix(.75 0 0 .75 .119999248 103.7039)" font-size="15.99" font-family="Lora" font-style="italic"><tspan y="70" x="68.671878 76.26473 84.20924 91.37052 100.81755 109.46537 119.61571 126.776988 132.2759 140.76386 146.26276 151.10633 156.60523 162.7435 171.27942 175.80329 184.88269 195.03302 204.2243 208.74817 214.88645 224.34946 232.29396 236.81783 246.28084 255.36023 264.80726 274.25428 279.75318 289.9035 297.84803 305.00929 312.17054 316.6944 322.83268 332.29573 341.37513 347.5134 352.03727 360.63713 369.28495 377.22947 384.39076 388.9146 402.03804 407.53694 413.6752 423.1382 427.66209 433.16099 439.29927">responsibility and the happiness that goes with it.</tspan></text>
<text xml:space="preserve" transform="matrix(.26666669 0 0 .26666669 128.73783 566.8977)" font-size="29.47" font-family="Lora" font-style="italic"><tspan y="33" x="158.54688 169.56842 186.77841 195.1183 211.06113 221.22808 229.56797 240.58951">18 of 19</tspan></text>
</g>
</g>
</svg>
