<svg xmlns="http://www.w3.org/2000/svg" xmlns:xlink="http://www.w3.org/1999/xlink" version="1.1" width="384pt" height="600pt" viewBox="0 0 384 600">
<defs>
<clipPath id="clip_88">
<path transform="matrix(.24,0,0,.24,0,0)" d="M0 0H1600V2500H0Z" fill-rule="evenodd"/>
</clipPath>
<clipPath id="clip_89">
<path transform="matrix(.24,0,0,.24,0,0)" d="M0 0H1600V2500H0Z" fill-rule="evenodd"/>
</clipPath>
<clipPath id="clip_90">
<path transform="matrix(.24,0,0,.24,0,0)" d="M55.555559 2280H1543.0556V2286.25H55.555559Z" fill-rule="evenodd"/>
</clipPath>
<clipPath id="clip_91">
<path transform="matrix(.24,0,0,.24,0,0)" d="M84.82725 1250H725.4523V1890.625H84.82725Z" fill-rule="evenodd"/>
</clipPath>
<clipPath id="clip_92">
<path transform="matrix(.24,0,0,.24,0,0)" d="M840.311 1250H1480.936V1890.625H840.311Z" fill-rule="evenodd"/>
</clipPath>
<clipPath id="clip_93">
<path transform="matrix(.24,0,0,.24,0,0)" d="M0 0H1600V2500H0Z" fill-rule="evenodd"/>
</clipPath>
</defs>
<g clip-path="url(#clip_88)">
<path transform="matrix(.75,0,0,.75,0,-607.5)" d="M0 810H512V1610H0Z" fill="#ffffff"/>
</g>
<g clip-path="url(#clip_89)">
<path transform="matrix(.75,0,0,.75,0,0)" d="M0 0H512V800H0Z" fill="#ffffff"/>
</g>
<g clip-path="url(#clip_90)">
<path transform="matrix(.71400007,0,0,.71400007,13.333333,369.36698)" d="M0 0H500V500H0Z" fill="#d8ff00"/>
</g>
<g clip-path="url(#clip_91)">
<path transform="matrix(2.7164312,0,0,2.7164312,18.728682,299.45674)" d="M28.914063 .183594C44.539064 .183594 57.210939 12.855469 57.210939 28.480469 57.210939 44.109376 44.539064 56.777345 28.914063 56.777345 13.285156 56.777345 .61718806 44.109376 .61718806 28.480469 .61718806 12.855469 13.285156 .183594 28.914063 .183594" fill="#ffcc00" fill-rule="evenodd"/>
<path transform="matrix(2.7164312,0,0,2.7164312,18.728682,299.45674)" d="M28.914063 2.621094C36.054689 2.621094 42.51953 5.515625 47.19922 10.195312 51.878908 14.875 54.773439 21.339844 54.773439 28.480469 54.773439 35.621095 51.878908 42.085939 47.19922 46.765626 42.51953 51.445314 36.054689 54.339845 28.914063 54.339845 21.773438 54.339845 15.308594 51.445314 10.628906 46.765626 5.949219 42.085939 3.054688 35.621095 3.054688 28.480469 3.054688 21.339844 5.949219 14.875 10.628906 10.195312 15.308594 5.515625 21.773438 2.621094 28.914063 2.621094ZM46.070314 11.328125C41.679689 6.9375 35.61328 4.222656 28.914063 4.222656 22.214844 4.222656 16.148438 6.9375 11.7578129 11.328125 7.3710939 15.71875 4.6523439 21.78125 4.6523439 28.480469 4.6523439 35.179689 7.3710939 41.246095 11.7578129 45.63672 16.148438 50.023439 22.214844 52.742189 28.914063 52.742189 35.61328 52.742189 41.679689 50.023439 46.070314 45.63672 50.45703 41.246095 53.171876 35.179689 53.171876 28.480469 53.171876 21.78125 50.45703 15.71875 46.070314 11.328125"/>
<path transform="matrix(2.7164312,0,0,2.7164312,18.728682,299.45674)" d="M21.464844 15.277344C23.472657 15.277344 25.101563 18.417969 25.101563 22.289063 25.101563 26.160157 23.472657 29.300782 21.464844 29.300782 19.457032 29.300782 17.832032 26.160157 17.832032 22.289063 17.832032 18.417969 19.457032 15.277344 21.464844 15.277344" fill-rule="evenodd"/>
<path transform="matrix(2.7164312,0,0,2.7164312,18.728682,299.45674)" d="M35.773439 15.277344C37.78125 15.277344 39.410158 18.417969 39.410158 22.289063 39.410158 26.160157 37.78125 29.300782 35.773439 29.300782 33.765626 29.300782 32.13672 26.160157 32.13672 22.289063 32.13672 18.417969 33.765626 15.277344 35.773439 15.277344" fill-rule="evenodd"/>
<path transform="matrix(2.7164312,0,0,2.7164312,18.728682,299.45674)" d="M46.382814 32.78125C45.42578 36.67578 43.19922 40.07422 40.16797 42.51172 37.085939 44.984376 33.171876 46.46875 28.914063 46.46875 24.65625 46.46875 20.742188 44.984376 17.660157 42.51172 14.628906 40.07422 12.402344 36.67578 11.445312 32.78125 11.148438 32.70703 10.871094 32.566408 10.636719 32.378908 10.269531 32.08203 10.003906 31.667969 9.8984379 31.191407 9.828125 30.859375 10.039062 30.53125 10.371094 30.460938 10.703125 30.390625 11.03125 30.601563 11.101562 30.933594 11.144531 31.128907 11.253906 31.300782 11.40625 31.421875 11.5546879 31.539063 11.7421879 31.609375 11.949219 31.609375 12.15625 31.609375 12.34375 31.539063 12.4921879 31.421875 12.640625 31.300782 12.75 31.128907 12.792969 30.933594 12.867188 30.601563 13.195312 30.390625 13.527344 30.460938 13.859375 30.53125 14.070312 30.859375 13.996094 31.191407 13.894531 31.667969 13.628906 32.085939 13.261719 32.378908 13.089844 32.515626 12.902344 32.625 12.6953129 32.703126 13.613281 36.242189 15.660156 39.328126 18.429688 41.554689 21.296875 43.85547 24.945313 45.234376 28.914063 45.234376 32.882814 45.234376 36.527345 43.85547 39.398439 41.554689 42.164064 39.328126 44.214845 36.242189 45.132814 32.703126 44.92578 32.625 44.734376 32.515626 44.566408 32.378908 44.19922 32.085939 43.933595 31.667969 43.83203 31.191407 43.757814 30.859375 43.96875 30.53125 44.30078 30.460938 44.632814 30.390625 44.960939 30.601563 45.03125 30.933594 45.07422 31.128907 45.183595 31.300782 45.335939 31.421875 45.484376 31.539063 45.671876 31.609375 45.878908 31.609375 46.085939 31.609375 46.273439 31.539063 46.421876 31.421875 46.570314 31.300782 46.679689 31.128907 46.722658 30.933594 46.796876 30.601563 47.125 30.390625 47.45703 30.460938 47.789064 30.53125 48 30.859375 47.92578 31.191407 47.82422 31.667969 47.558595 32.085939 47.191408 32.378908 46.95703 32.566408 46.679689 32.70703 46.382814 32.78125"/>
<path transform="matrix(2.7164312,0,0,2.7164312,18.728682,299.45674)" d="M22.34375 16.878907C22.835938 16.878907 23.234375 17.648438 23.234375 18.597657 23.234375 19.542969 22.835938 20.3125 22.34375 20.3125 21.851563 20.3125 21.453125 19.542969 21.453125 18.597657 21.453125 17.648438 21.851563 16.878907 22.34375 16.878907" fill="#ffffff" fill-rule="evenodd"/>
<path transform="matrix(2.7164312,0,0,2.7164312,18.728682,299.45674)" d="M36.882814 16.878907C37.375 16.878907 37.773439 17.648438 37.773439 18.597657 37.773439 19.542969 37.375 20.3125 36.882814 20.3125 36.390626 20.3125 35.992189 19.542969 35.992189 18.597657 35.992189 17.648438 36.390626 16.878907 36.882814 16.878907" fill="#ffffff" fill-rule="evenodd"/>
</g>
<g clip-path="url(#clip_92)">
<path transform="matrix(4.270833,0,0,4.270833,201.67464,300)" d="M36 18C36 27.941 27.941 36 18 36 8.059 36 0 27.941 0 18 0 8.059 8.059 0 18 0 27.941 0 36 8.059 36 18" fill="#ffcc4d"/>
<path transform="matrix(4.270833,0,0,4.270833,201.67464,300)" d="M22 27C22 29.763 20.209 30 18 30 15.79 30 14 29.763 14 27 14 24.239 15.79 21 18 21 20.209 21 22 24.239 22 27ZM30 15C29.876 15 29.75 14.977 29.629 14.928 24.4 12.837 22.257 9.687 22.168 9.554001 21.861 9.094001 21.984999 8.473001 22.445 8.167001 22.904 7.8610007 23.522 7.9830009 23.83 8.441001 23.848999 8.468001 25.76 11.226001 30.371 13.070002 30.884 13.276002 31.134 13.857001 30.929 14.370002 30.772002 14.762002 30.396 15.000002 30 15.000002V15ZM6 15C5.603 15 5.228 14.762 5.071 14.371 4.866 13.858 5.1150004 13.276 5.6280004 13.071 10.24 11.227 12.151 8.469 12.17 8.441999 12.478 7.9859998 13.099 7.8649995 13.557 8.171999 14.014 8.479999 14.1380009 9.096999 13.832 9.554999 13.743 9.688 11.599999 12.837999 6.3719999 14.928999 6.25 14.977 6.124 15 6 15Z" fill="#664500"/>
<path transform="matrix(4.270833,0,0,4.270833,201.67464,300)" d="M24 16H28V35L24 34.954V16ZM8 35 12 34.954V16H8V35Z" fill="#5dadec"/>
<path transform="matrix(4.270833,0,0,4.270833,201.67464,300)" d="M14.999 18C14.849 18 14.695999 17.966 14.5529999 17.895 11.040999 16.139 7.4829995 17.877 7.4479997 17.895 6.9529998 18.144001 6.3529999 17.941 6.1059997 17.448 5.8589994 16.954 6.0589997 16.353 6.5529997 16.105999 6.7349998 16.015999 11.051 13.9089989 15.448 16.105999 15.942 16.352999 16.142 16.953999 15.8949999 17.447999 15.719 17.797999 15.365999 17.999999 14.999 17.999999V18ZM28.999 18C28.849 18 28.696002 17.966 28.553002 17.895 25.04 16.139 21.483002 17.877 21.448002 17.895 20.954003 18.143 20.354002 17.942002 20.106003 17.448 19.859004 16.954 20.059002 16.353 20.553004 16.105999 20.735003 16.015999 25.054003 13.909999 29.448004 16.105999 29.942004 16.352999 30.142004 16.953999 29.895005 17.447999 29.719004 17.797999 29.366005 17.999999 28.999005 17.999999L28.999 18Z" fill="#664500"/>
<path transform="matrix(4.270833,0,0,4.270833,201.67464,300)" d="M36 34C36 34.065504 35.971109 34.130849 35.913324 34.196035 35.855539 34.26122 35.76914 34.325937 35.65413 34.39018 35.53912 34.454423 35.396055 34.517889 35.224924 34.58057 35.05379 34.64325 34.855428 34.704847 34.629827 34.76536 34.40423 34.82588 34.152479 34.88502 33.874578 34.94279 33.59668 35.000558 33.29397 35.05667 32.96645 35.111139 32.63893 35.1656 32.288179 35.21815 31.914187 35.268785 31.540198 35.319417 31.144776 35.367895 30.727919 35.41421 30.311064 35.46053 29.874783 35.504465 29.419077 35.546018 28.96337 35.587575 28.49043 35.62655 28.00026 35.662939 27.51009 35.699335 27.005049 35.732969 26.485138 35.763845 25.965226 35.79472 25.432946 35.82269 24.888298 35.847757 24.34365 35.872827 23.789259 35.894868 23.225125 35.91388 22.660986 35.932897 22.089819 35.94879 21.511624 35.961568 20.93343 35.974348 20.35099 35.983949 19.764307 35.990369 19.177624 35.996789 18.589522 36 18 36 17.410479 36 16.822377 35.996789 16.235693 35.990369 15.649009 35.983949 15.066568 35.974348 14.488373 35.961568 13.910178 35.94879 13.339012 35.932897 12.774874 35.91388 12.210737 35.894868 11.656344 35.872827 11.111696 35.847757 10.56705 35.82269 10.03477 35.79472 9.514858 35.763845 8.9949469 35.732965 8.489905 35.69933 7.999735 35.662935 7.509566 35.626546 7.0366275 35.58757 6.58092 35.546018 6.125214 35.504465 5.688933 35.46053 5.2720777 35.41421 4.855222 35.367895 4.4598009 35.319417 4.085812 35.268785 3.7118228 35.21815 3.3610676 35.1656 3.0335465 35.111139 2.7060257 35.05667 2.4033159 35.000558 2.1254173 34.94279 1.8475182 34.88502 1.5957686 34.82588 1.3701682 34.76536 1.1445679 34.704847 .9462031 34.64325 .7750738 34.58057 .60394468 34.517889 .460875 34.454423 .3458649 34.39018 .23085484 34.325937 .14445819 34.26122 .086674917 34.196035 .028891638 34.130849 0 34.065504 0 34 0 33.934499 .028891638 33.869157 .086674917 33.803968 .14445819 33.738779 .23085484 33.67406 .3458649 33.609819 .460875 33.545576 .60394468 33.48211 .7750739 33.41943 .9462031 33.35675 1.1445679 33.29515 1.3701682 33.23463 1.5957686 33.174116 1.8475182 33.11497 2.1254173 33.057207 2.4033159 32.99944 2.7060257 32.94332 3.0335465 32.88886 3.3610676 32.834398 3.7118228 32.781847 4.085812 32.731214 4.4598009 32.68058 4.855222 32.632104 5.2720777 32.585786 5.688933 32.53947 6.125214 32.495534 6.58092 32.45398 7.0366275 32.412427 7.509566 32.37345 7.999735 32.33706 8.489905 32.30067 8.9949469 32.267038 9.514858 32.236158 10.03477 32.20528 10.56705 32.177309 11.111696 32.15224 11.656344 32.127176 12.210737 32.105138 12.774875 32.08612 13.339012 32.06711 13.910178 32.051214 14.488373 32.03843 15.066568 32.02565 15.649009 32.016054 16.235693 32.009634 16.822377 32.003213 17.410479 32 18 32 18.589522 32 19.177624 32.003213 19.764307 32.009634 20.35099 32.016054 20.93343 32.02565 21.511624 32.03843 22.089819 32.051214 22.660986 32.06711 23.225123 32.08612 23.789259 32.105138 24.34365 32.127176 24.888298 32.15224 25.432946 32.177309 25.965226 32.20528 26.48514 32.23616 27.00505 32.26704 27.51009 32.30067 28.00026 32.33706 28.49043 32.37345 28.96337 32.412427 29.419077 32.45398 29.874783 32.495534 30.311064 32.53947 30.727919 32.585786 31.144776 32.632104 31.540198 32.68058 31.914185 32.731214 32.288175 32.781847 32.63893 32.834398 32.96645 32.88886 33.29397 32.94332 33.59668 32.99944 33.87458 33.05721 34.15248 33.114976 34.404233 33.174116 34.62983 33.23463 34.85543 33.29515 35.053796 33.35675 35.224927 33.41943 35.396055 33.48211 35.539125 33.545576 35.654134 33.609819 35.769144 33.67406 35.855539 33.738779 35.913324 33.803968 35.971109 33.869157 36 33.934499 36 34Z" fill="#5dadec"/>
<path transform="matrix(4.270833,0,0,4.270833,201.67464,300)" d="M21 27C20.999999 27.13132 20.980784 27.261382 20.942355 27.390179 20.903925 27.518977 20.84702 27.644038 20.771636 27.765364 20.69625 27.886689 20.603842 28.001948 20.494406 28.111138 20.384968 28.220328 20.260607 28.321352 20.121319 28.414212 19.98203 28.507069 19.830494 28.589978 19.666708 28.662936 19.502923 28.735894 19.330037 28.7975 19.148047 28.847756 18.966059 28.89801 18.778466 28.935948 18.585268 28.961567 18.39207 28.987189 18.196982 28.999999 18 29 17.803017 28.999999 17.607926 28.987189 17.414727 28.961569 17.221529 28.935948 17.033938 28.89801 16.851948 28.847756 16.669959 28.7975 16.497073 28.735896 16.333289 28.662938 16.169503 28.589978 16.017968 28.507069 15.878678 28.414212 15.739389 28.321352 15.615026 28.220328 15.5055899 28.111138 15.396152 28.001948 15.303741 27.886689 15.228359 27.765364 15.152977 27.644038 15.096071 27.518977 15.057643 27.390179 15.019213 27.261382 14.999999 27.13132 15 27 14.999999 26.868678 15.019213 26.738617 15.057642 26.609818 15.096071 26.48102 15.152977 26.355957 15.228359 26.23463 15.303741 26.113306 15.396152 25.998047 15.505589 25.888857 15.615026 25.779667 15.739389 25.678645 15.878678 25.585785 16.017968 25.492926 16.169503 25.410016 16.333289 25.337058 16.497073 25.2641 16.669959 25.202494 16.851948 25.152239 17.033938 25.101984 17.221529 25.064047 17.414727 25.03843 17.607926 25.01281 17.803017 25 18 25 18.196982 25 18.39207 25.01281 18.585268 25.038428 18.778466 25.064047 18.966059 25.101984 19.148047 25.152239 19.330037 25.202494 19.502923 25.264101 19.666708 25.337059 19.830494 25.410017 19.98203 25.492926 20.121319 25.585785 20.260607 25.678645 20.384968 25.779667 20.494406 25.888857 20.603842 25.998047 20.69625 26.113306 20.771636 26.23463 20.84702 26.355957 20.903925 26.48102 20.942355 26.609818 20.980784 26.738617 20.999999 26.868678 21 27Z" fill="#e75a70"/>
</g>
<g clip-path="url(#clip_93)">
<text xml:space="preserve" transform="matrix(.75 0 0 .75 44.392084 139.20427)" font-size="18.48" font-family="Lora" font-style="italic"><tspan y="20" x="25.78125"> </tspan></text>
<text xml:space="preserve" transform="matrix(.75 0 0 .75 44.392084 139.20427)" font-size="18.48" font-family="Lora" font-style="italic"><tspan y="20" x="31 37.519765 44.61207 48.601606 56.875917 62.102865 72.59344 77.82039 86.92578 97.859607 107.8515 114.20505 123.31044 132.48972 137.88288 143.10982 149.62958 156.00159 161.22853 171.09116 181.08306 192.40471 197.63166 206.73705 217.22762 228.9556 234.18254 243.28794 254.22176 264.21366 274.20558 282.47987 291.65916 296.8861 306.69334 315.87263 322.96495 338.1281 347.3074 356.4867">It&#x2019;s a choice! If you can choose between</tspan></text>
<text xml:space="preserve" transform="matrix(.75 0 0 .75 44.392084 139.20427)" font-size="18.48" font-family="Lora" font-style="italic"><tspan y="49" x="31.46875 39.74306 56.29142 62.64497 68.24129 74.59483 86.322818 96.25931 101.48625 111.47815 120.251117 125.47806 131.85007 141.84197 147.43828 153.03459 163.02649 178.18967 184.54322 196.2712 206.20769 211.43463 221.9252 233.65319 243.51581 248.74275 259.23335 270.9613 281.58116 286.8081 297.29869 302.895 308.4913 313.71827 323.71018 330.08219 335.30915 342.40147 353.3353">smiling or following any and all of the</tspan></text>
<text xml:space="preserve" transform="matrix(.75 0 0 .75 44.392084 139.20427)" font-size="18.48" font-family="Lora" font-style="italic"><tspan y="78" x="13.796875 24.287449 30.659462 40.65136 49.424329 58.603609 75.15196 84.33124 96.05922 103.15152 109.505069 119.49696 131.22495 140.40422 151.02408 156.25102 164.52533 171.61763 180.7969 191.71225 199.98656 204.7333 209.96025 220.5801 230.57199 235.79894 242.89124 253.82506 263.00434 268.23127 273.82759 284.31816 291.41047 298.50279 307.68208 316.45506 321.82975 327.0567 336.91935 346.91127 358.2329 362.22245 370.99543">aforementioned steps, do the latter; you&#x2019;re</tspan></text>
<text xml:space="preserve" transform="matrix(.75 0 0 .75 44.392084 139.20427)" font-size="18.48" font-family="Lora" font-style="italic"><tspan y="107" x="85.15625 101.704608 113.02626 122.13165 133.06548 138.29242 148.09964 157.27892 164.37122 171.46352 180.64279 189.41576 194.6427 204.6346 211.0066 217.37863 222.60558 229.69788 240.6317 251.12227 258.21458 263.44154 278.6047 289.09529 298.9579">much better off that way.</tspan></text>
<text xml:space="preserve" transform="matrix(.75 0 0 .75 44.392084 139.20427)" font-size="18.48" font-family="Lora" font-style="italic"><tspan y="107" x="303.60939"> </tspan></text>
<text xml:space="preserve" transform="matrix(.75 0 0 .75 44.392084 139.20427)" font-size="18.48" font-family="Lora"><tspan y="136" x="196.98438"> </tspan></text>
<text fill="#515151" xml:space="preserve" transform="matrix(.26666669 0 0 .26666669 42.35302 77.34017)" font-size="41.27" font-family="Lora" font-style="italic"><tspan y="47" x="416.79689 450.47053 487.73429 519.1383 549.1393 580.74966 611.65847 642.8149 659.03317">CHAPTER X</tspan></text>
<text xml:space="preserve" transform="matrix(.26666669 0 0 .26666669 133.80834 567.8611)" font-size="29.47" font-family="Lora" font-style="italic"><tspan y="33" x="160.20313 171.22467 185.13416 193.47405 209.41687 219.58382 227.9237 238.94525">17 of 19</tspan></text>
<text fill="#515151" xml:space="preserve" transform="matrix(.26666669 0 0 .26666669 43.624925 98.12947)" font-size="70.75" font-family="Lora"><tspan y="80" x="170.15625 209.28136 264.25447 309.74708 349.86268 381.20527 437.9471 489.02897 520.3716 586.3109 641.9915 697.1061 746.34848 801.32156 856.2946 906.386">Just Be Unhappy!</tspan></text>
</g>
</svg>
