<svg xmlns="http://www.w3.org/2000/svg" xmlns:xlink="http://www.w3.org/1999/xlink" version="1.1" width="384pt" height="600pt" viewBox="0 0 384 600">
<defs>
<clipPath id="clip_36">
<path transform="matrix(.24,0,0,.24,0,0)" d="M0 .00048828127H1600V2500.0006H0Z" fill-rule="evenodd"/>
</clipPath>
<clipPath id="clip_37">
<path transform="matrix(.24,0,0,.24,0,0)" d="M0 .00048828127H1600V2500.0006H0Z" fill-rule="evenodd"/>
</clipPath>
<clipPath id="clip_38">
<path transform="matrix(.24,0,0,.24,0,0)" d="M0 .00048828127H1600V2500.0006H0Z" fill-rule="evenodd"/>
</clipPath>
<clipPath id="clip_39">
<path transform="matrix(.24,0,0,.24,0,0)" d="M55.555559 2280.0006H1543.0556V2286.2506H55.555559Z" fill-rule="evenodd"/>
</clipPath>
</defs>
<g clip-path="url(#clip_36)">
<path transform="matrix(.75,0,0,.75,0,-1822.4999)" d="M0 2430H512V3230H0Z" fill="#ffffff"/>
</g>
<g clip-path="url(#clip_37)">
<path transform="matrix(.75,0,0,.75,0,.0001171875)" d="M0 0H512V800H0Z" fill="#ffffff"/>
</g>
<g clip-path="url(#clip_38)">
<text xml:space="preserve" transform="matrix(.26666669 0 0 .26666669 37.06444 214.64847)" font-size="41.27" font-family="Lora" font-style="italic"><tspan y="66" x="0 26.864106 39.367753 73.24704 96.6861 118.72212 137.20929 148.88762 163.12442 177.31996 203.52382 227.25174 238.93007 253.16687 276.60594 301.90196 314.4056 330.25178 341.9301 375.8094 390.00495 405.8511 430.28053 441.95887 463.99488 486.31977 511.61579 531.21719 549.70437 570.2135 582.71719 596.954 608.6323 632.0714 658.27529 682.0032 693.6815 716.0064 731.8526 756.28207 776.79129 796.3926 814.87979 825.2789 836.9572 868.23678 890.56167 916.7655 925.80288 941.64907 953.3274 975.2396 995.7488 1007.4271 1025.9143 1049.3534 1065.1996 1079.3952 1097.8823 1112.1192 1126.3147 1146.8239">Always find fault with yourself and others. Don't be satisfied</tspan></text>
<text xml:space="preserve" transform="matrix(.26666669 0 0 .26666669 37.06444 214.64847)" font-size="41.27" font-family="Lora" font-style="italic"><tspan y="169" x="0 33.879289 48.07483 63.92099 88.35042 100.02875 123.467807 149.67166 171.70769 187.55385 211.98328 226.17882 252.38268 274.58375 285.18919 296.86753 320.30659 346.51045 370.23835 381.9167 405.6446 427.96949 454.17335 463.21067 479.05683 490.73518 512.6474 533.1566 545.6603 559.85586 580.365 602.8962 623.4054 635.08377 649.2793 675.48318 687.1615 709.1975 731.5224 756.8184 776.4198 794.907 815.41616 827.9198 842.1566 853.83499 876.15988 895.7612 907.4396 929.4756 951.8005 977.0965 996.6979 1008.3762 1031.8153 1053.7276 1067.9231 1080.4268 1094.6223 1110.4685 1124.6641 1145.1732 1163.6604">with anything, and don't believe in yourself or your abilities.</tspan></text>
<text xml:space="preserve" transform="matrix(.26666669 0 0 .26666669 37.06444 214.64847)" font-size="41.27" font-family="Lora" font-style="italic"><tspan y="272" x="0 38.666109 62.105165 84.306247 110.5101 124.70564 138.94245 160.97847 175.17401 201.37787 223.57895 235.25728 253.74445 290.71867 314.1577 326.66139 339.16505 350.84339 365.03895 391.2428 411.5869 433.9118 460.11567 482.64686 503.15605 529.35989 543.5554 564.0646 590.26846 610.61257 631.1217 649.6089 660.2143 671.89266 695.62057 729.4998 750.00906 762.5127 775.01638 789.2119 815.4158 837.6168 849.29519 871.62008 897.8239 909.50228 933.89047 957.32949 975.81668 991.66287 1003.3412 1017.578 1041.0171 1055.2127 1067.7163 1093.0123 1112.6137 1133.1228 1151.61">Magnifying small inconveniences, dwelling on past failures,</tspan></text>
<text xml:space="preserve" transform="matrix(.26666669 0 0 .26666669 37.06444 214.64847)" font-size="41.27" font-family="Lora" font-style="italic"><tspan y="375" x="0 23.439057 49.642915 73.370838 85.049167 99.285968 113.48151 136.79677 160.23583 176.08199 190.27753 216.48139 238.68247 250.3608 272.68568 298.88954 310.56788 330.912 350.51335 364.7089 380.55506 394.7506 415.09474 429.29029 447.77748 484.75169 496.43003 516.7742 540.21328 566.4171 578.09548 598.4396 618.0409 638.55007 661.98916 677.8353 698.3445 710.0228 733.4619 745.14028 765.4844 777.98806 800.3129 825.60897 849.33688 861.0152 883.3401 897.5769 909.25527 935.4591 955.96829 978.1693 1001.6084 1017.4546 1031.6502 1054.1814 1068.377 1084.2232">and fixating on criticism can create a cloud of negativity</tspan></text>
<text xml:space="preserve" transform="matrix(.26666669 0 0 .26666669 37.06444 214.64847)" font-size="41.27" font-family="Lora" font-style="italic"><tspan y="478" x="0 15.846162 40.27559 63.714647 79.56081 91.239139 113.564029 136.09523 156.60442 176.20577 194.69293 219.12236 242.56142 266.28935 288.61424 322.49354 340.9807 352.65907 377.04725 399.37214 417.8593 432.05488 447.90104 462.0966 484.6278 505.137 516.8153 537.32449 560.6397 585.0279 605.5371 625.1384 639.334 659.84317 686.047 706.3911 726.90029 745.38748 755.78659 767.4649 782.03189 808.2357 826.7229 842.5691 863.07827 886.51736 910.24526 921.9236 944.2485 958.4853 970.16366 988.6508 1009.16006 1029.6692 1051.9528 1066.1483 1092.3522">that overshadows positive experiences. Instead of seeking</tspan></text>
<text xml:space="preserve" transform="matrix(.26666669 0 0 .26666669 37.06444 214.64847)" font-size="41.27" font-family="Lora" font-style="italic"><tspan y="581" x="0 18.487168 40.812059 53.315706 78.611728 94.457889 108.65343 130.97832 157.18218 175.66934 187.34767 210.78673 236.99059 260.7185 272.39686 286.63368 300.82923 327.03309 350.761 364.95655 391.1604 413.36149 425.03984 443.52699 457.72254 470.2262 492.7574 513.2666 532.8679 544.54629 557.0499 571.2455 597.44937 611.6449 637.84878 660.0498 678.537 689.1424 700.82077 724.54867 745.05789 767.58908 788.09829 800.6019 822.9268 847.315 858.99337 882.4324 894.1107 918.54019 941.97927 963.8915 978.08706 993.9332 1005.6116 1027.9365">solutions and finding silver linings, develop a habit of</tspan></text>
<text xml:space="preserve" transform="matrix(.26666669 0 0 .26666669 37.06444 214.64847)" font-size="41.27" font-family="Lora" font-style="italic"><tspan y="684" x="0 24.388169 44.897356 63.38452 81.87169 96.06723 133.04145 147.23699 165.72415 202.69837 214.3767 237.81575 264.0196 287.7475 299.42585 311.9295 332.4387 348.28486 359.9632 386.16706 406.67625 428.87733 452.31639 468.16255 482.3581 504.88929 525.39846 537.0768 552.923 577.3524 599.6773 624.9733 647.17446 671.6039 687.4501 705.93728 717.6156 737.9597 760.2846 786.48849 804.97567 830.27169 867.24588 887.755 899.43338 921.46939 943.79428 969.0903 988.69168 1000.37 1037.3442 1051.5398 1077.7437 1101.4716">pessimism and let negative thoughts consume your mind.</tspan></text>
<text fill="#515151" xml:space="preserve" transform="matrix(.26666669 0 0 .26666669 42.35302 77.34035)" font-size="41.27" font-family="Lora" font-style="italic"><tspan y="47" x="404.26564 437.93928 475.20304 506.60707 536.60806 568.2184 599.1272 630.2836 646.5019 665.60879 684.7156">CHAPTER III</tspan></text>
<text xml:space="preserve" transform="matrix(.26666669 0 0 .26666669 133.80834 567.8612)" font-size="29.47" font-family="Lora" font-style="italic"><tspan y="33" x="155.14063 173.32309 190.17946 198.51935 214.46218 224.62912 232.96901 243.99056">09 of 19</tspan></text>
<text fill="#515151" xml:space="preserve" transform="matrix(.26666669 0 0 .26666669 43.624925 98.12941)" font-size="70.75" font-family="Lora"><tspan y="80" x="313.21876 369.9606 421.04246 452.38508 514.5747 557.9448 590.5609 630.6765 663.2926 713.66696 762.9093">Be Critical</tspan></text>
</g>
<g clip-path="url(#clip_39)">
<path transform="matrix(.71400007,0,0,.71400007,13.333333,369.36717)" d="M0 0H500V500H0Z" fill="#d8ff00"/>
</g>
</svg>
