<svg xmlns="http://www.w3.org/2000/svg" xmlns:xlink="http://www.w3.org/1999/xlink" version="1.1" width="384pt" height="600pt" viewBox="0 0 384 600">
<defs>
<clipPath id="clip_75">
<path transform="matrix(.24,0,0,.24,0,0)" d="M0 0H1600V2500H0Z" fill-rule="evenodd"/>
</clipPath>
<clipPath id="clip_76">
<path transform="matrix(.24,0,0,.24,0,0)" d="M0 0H1600V2500H0Z" fill-rule="evenodd"/>
</clipPath>
<clipPath id="clip_77">
<path transform="matrix(.24,0,0,.24,0,0)" d="M55.555559 2280H1543.0556V2286.25H55.555559Z" fill-rule="evenodd"/>
</clipPath>
<clipPath id="clip_78">
<path transform="matrix(.24,0,0,.24,0,0)" d="M0 0H1600V2500H0Z" fill-rule="evenodd"/>
</clipPath>
<clipPath id="clip_79">
<path transform="matrix(.24,0,0,.24,53.76,197.51999)" d="M0 0H1154V1154H0Z" fill-rule="evenodd"/>
</clipPath>
<clipPath id="clip_80">
<path transform="matrix(.24,0,0,.24,53.76,197.51999)" d="M.108932498 .021484375H1150.1089V1150.0215H.108932498Z" fill-rule="evenodd"/>
</clipPath>
</defs>
<g>
<g clip-path="url(#clip_75)">
<path transform="matrix(.75,0,0,.75,0,-2430)" d="M0 3240H512V4040H0Z" fill="#ffffff"/>
</g>
<g clip-path="url(#clip_76)">
<path transform="matrix(.75,0,0,.75,0,0)" d="M0 0H512V800H0Z" fill="#ffffff"/>
</g>
<g clip-path="url(#clip_77)">
<path transform="matrix(.71400007,0,0,.71400007,13.333333,369.36708)" d="M0 0H500V500H0Z" fill="#d8ff00"/>
</g>
<g clip-path="url(#clip_78)">
<text xml:space="preserve" transform="matrix(.75 0 0 .75 44.392084 158.67234)" font-size="18.48" font-family="Lora" font-style="italic"><tspan y="20" x="15.21875 26.614293 37.104867 46.96749 52.19444 62.685014 69.77731 76.86961 86.04889 97.77687 104.86917 111.22272 121.214618 132.9426 138.16954 145.26184 155.25374 160.48069 170.97126 176.56757 182.16388 187.39083 194.48313 205.41695 214.59622 219.82317 229.63039 240.12096 250.7408 255.96775 263.06007 273.9939 280.34745 292.07545 302.01194 310.28627 315.5132 321.86677 333.59477 338.82173 348.68437 358.67628 369.99794">Pay attention to all the bad things in your</tspan></text>
<text xml:space="preserve" transform="matrix(.75 0 0 .75 44.392084 158.67234)" font-size="18.48" font-family="Lora" font-style="italic"><tspan y="49" x="18.09375 23.690068 30.043618 36.415628 45.594907 50.249315 55.47626 69.475917 84.63909 93.81837 99.41468 105.010997 110.23794 120.229839 131.95783 137.18477 147.0474 157.03929 168.36095 177.13391 182.36086 193.2762 202.04917 212.04106 221.84828 227.4446 236.62387 253.17223 261.44654 266.67347 277.16407 288.89207 299.5119 304.73887 319.90205 329.89396 338.66694 347.4399 353.79347 362.97276 371.24708">life. Dwell on your problems and worries.</tspan></text>
<text xml:space="preserve" transform="matrix(.75 0 0 .75 44.392084 158.67234)" font-size="18.48" font-family="Lora" font-style="italic"><tspan y="78" x="23.984375 37.984029 47.97593 59.70391 63.74885 70.841159 76.0681 81.66441 90.84369 97.93599 103.16293 113.02556 123.017459 134.33911 143.11208 151.38639 160.56568 166.16199 172.534 177.76094 186.94022 198.6682 204.52307 214.51497 224.3776 229.60454 236.69684 247.63066 256.80995 262.03688 271.97337 281.96528 291.95719 302.57704 307.804 316.0783 323.17063 334.49229 340.8643 347.2363 351.89073 357.11769 363.63746">Don't let yourself enjoy the good stuff. If</tspan></text>
<text xml:space="preserve" transform="matrix(.75 0 0 .75 44.392084 158.67234)" font-size="18.48" font-family="Lora" font-style="italic"><tspan y="107" x="4.46875 14.331378 24.323279 35.644937 39.63447 48.40744 57.58672 62.813669 69.18568 78.36495 87.54423 93.14054 99.49409 111.22207 121.15856 126.385509 134.65982 144.65172 153.42469 162.60396 167.8309 174.18445 185.91243 191.13938 201.002 210.9939 222.31555 231.08852 236.31546 248.04344 257.22273 266.32814 276.30158 281.52854 290.81864 296.0456 301.6419 307.99546 317.9689 327.1482 332.7445 342.60716 347.8341 354.20613 362.9791 372.971">you&#x2019;re feeling sore in your neck - likely from</tspan></text>
<text xml:space="preserve" transform="matrix(.75 0 0 .75 44.392084 158.67234)" font-size="18.48" font-family="Lora" font-style="italic"><tspan y="136" x="8.46875 14.840762 24.832663 30.428978 36.025297 46.017198 61.180379 67.53393 79.26191 89.1984 94.42535 102.69965 109.791957 118.97123 129.88657 135.11351 143.38782 152.5671 162.65134 171.83061 183.5586 188.78554">following step seven -</tspan></text>
<text xml:space="preserve" transform="matrix(.75 0 0 .75 44.392084 158.67234)" font-size="18.48" font-family="Lora" font-style="italic"><tspan y="136" x="198.0625 203.28945 213.22594 221.9989 231.17818 241.66875 248.76105 254.1542 259.38117 276.68675 287.1773 297.15077 306.33003 311.55696 319.83125 331.1529 339.92585 349.1051 354.33204 364.19465 374.18653"> great! Make sure you</tspan></text>
<text xml:space="preserve" transform="matrix(.75 0 0 .75 44.392084 158.67234)" font-size="18.48" font-family="Lora" font-style="italic"><tspan y="165" x="1.21875 15.495425 25.487326 35.479227 45.41572 51.01204 60.19132 65.41827 75.28089 85.27279 96.594448 105.36741 110.59435 118.86866 128.7313 145.27967 156.195 163.28731 173.2792 189.82756 198.10187 203.32881 213.81938 225.54737 236.1672 241.39415 247.7477 259.4757 266.56803 275.7473 284.5203 295.43565 304.20863 313.3879 320.48023 325.70719 332.7995 343.73335 352.91264 369.461 374.68797 381.0415">Google your symptoms and interpret them in</tspan></text>
<text xml:space="preserve" transform="matrix(.75 0 0 .75 44.392084 158.67234)" font-size="18.48" font-family="Lora" font-style="italic"><tspan y="194" x="17.71875 24.811055 35.74488 44.924158 50.151105 65.314289 75.30618 84.07915 92.353458 99.445758 104.6727 119.83588 130.32645 140.18907 145.41602 156.33136 166.32326 174.59757 182.87187 189.22542 199.03264 204.62895 213.80823 218.46263 223.68958 230.20934 236.58135 241.80829 251.67092 261.6628 272.98448 276.974 287.05827 296.23756 301.4645 311.27174 321.26365 332.5853 342.5218 353.45564 360.54795 365.7749">the worst way possible. If you&#x2019;ve bought a</tspan></text>
<text xml:space="preserve" transform="matrix(.75 0 0 .75 44.392084 158.67234)" font-size="18.48" font-family="Lora" font-style="italic"><tspan y="223" x="1.34375 6.9400665 17.43064 26.203606 36.140104 45.31938 54.60947 61.701776 68.05532 77.16071 87.13415 96.31342 103.40572 108.63267 114.98621 122.078517 131.2578 147.80615 152.5529 157.77985 174.3282 184.81877 194.7922 203.97148 209.19843 217.47274 228.79439 237.56735 246.74663 251.97357 261.8362 271.82814 283.14979 288.37675 297.48216 307.47407 319.20207 327.47639 333.82994 342.10426 349.19657 358.37586 370.10386 377.19618 382.79249">large-ticket item, make sure you consistently</tspan></text>
<text xml:space="preserve" transform="matrix(.75 0 0 .75 44.392084 158.67234)" font-size="18.48" font-family="Lora" font-style="italic"><tspan y="252" x="1.359375 9.633685 18.73908 29.229653 40.957639 46.184587 53.27689 64.21072 73.38999 78.616939 85.136699 96.86468 103.95698 113.13625 121.90922 133.6372 142.81649 149.90879 155.13573 161.50774 171.49964 180.2726 185.49954 195.99011 201.21706 211.02428 220.20355 227.29586 234.38816 243.56743 252.3404 257.56736 268.4827 277.25569 283.60923 292.71464 301.89393 307.12089 314.2132 324.2051 329.43208 338.20506 347.38435 363.9327 370.28627 382.01426">scan the Internet for a better price to remind</tspan></text>
<text xml:space="preserve" transform="matrix(.75 0 0 .75 44.392084 158.67234)" font-size="18.48" font-family="Lora" font-style="italic"><tspan y="281" x="18.71875 28.581379 38.57328 49.894937 58.667905 66.942218 76.12149 81.717807 88.08981 93.31676 103.308658 109.680667 114.90761 125.84143 135.83333 150.99652 156.22347 172.77182 184.09348 193.19887 204.13269 209.35964 214.95595 224.13523 232.40953 240.68384 245.91078 255.7734 265.76533 277.08699">yourself of how much less you </tspan></text>
<text xml:space="preserve" transform="matrix(.75 0 0 .75 44.392084 158.67234)" font-size="18.48" font-family="Lora" font-weight="bold" font-style="italic"><tspan y="281" x="282.3125 291.3071 301.1882 312.6022 318.5679">could</tspan></text>
<text xml:space="preserve" transform="matrix(.75 0 0 .75 44.392084 158.67234)" font-size="18.48" font-family="Lora" font-style="italic"><tspan y="281" x="329.34376 334.5707 345.50456 355.99513 366.07939"> have</tspan></text>
<text xml:space="preserve" transform="matrix(.75 0 0 .75 44.392084 158.67234)" font-size="18.48" font-family="Lora" font-style="italic"><tspan y="310" x="9.9375 20.852849 31.343422 37.696969 48.316816 52.971223 58.19817 64.71793 71.08995 76.316898 86.17952 96.17142 107.49307 112.72002 119.81232 129.80422 139.79611 149.76955 154.99649 164.85912 174.85102 186.17267 194.94564 200.17258 206.54459 217.03516 233.58351 239.93706 245.53337 255.396 260.62294 270.6148 282.3428 287.56977 298.06034 303.2873 318.45048 327.62977 336.80906 346.7825 352.3788 362.37074 374.09873">paid. If you took your family on a weeklong</tspan></text>
<text xml:space="preserve" transform="matrix(.75 0 0 .75 44.392084 158.67234)" font-size="18.48" font-family="Lora" font-style="italic"><tspan y="339" x="9.875 19.959248 30.449822 39.555215 50.045789 57.138093 63.491643 73.48354 85.211528 90.43847 97.53077 107.52267 112.74961 123.24018 134.96817 140.19513 146.54868 154.82299 160.4193 170.90987 182.63785 193.25769 198.48464 207.2576 216.43688 224.71118 234.70308 243.47605 250.56835 255.3151 260.54206 269.31504 278.49433 287.59974 298.0903 303.6866 309.28294 314.5099 324.5018 336.2298 341.8261 351.68876 356.9157 364.00804 374.94187">vacation to an island resort, recall only the</tspan></text>
<text xml:space="preserve" transform="matrix(.75 0 0 .75 44.392084 158.67234)" font-size="18.48" font-family="Lora" font-style="italic"><tspan y="368" x="16.609375 33.157735 42.337015 58.885374 68.87727 77.65024 84.003787 93.18306 101.45737 106.68431 116.67621 123.04822 128.27516 135.36746 146.3013 155.48058 160.70752 167.79982 174.15337 190.70172 199.881 205.10794 212.20024 223.13407 232.31334 237.54029 248.03086 254.3844 263.15736 268.75367 275.10725 286.83525 296.01454 301.2415 306.8378 316.8297 325.10404 332.19636 337.4233 347.28596 357.27787 368.59953">memories of the time the airline lost your</tspan></text>
<text xml:space="preserve" transform="matrix(.75 0 0 .75 44.392084 158.67234)" font-size="18.48" font-family="Lora" font-style="italic"><tspan y="397" x="6.1875 11.783816 23.105475 33.04197 42.978467 53.46904 63.405538 72.584819 77.331569 82.55851 89.65081 100.58463 109.76391 114.99085 123.76382 132.94309 141.2174 148.30971 158.80028 170.12194 178.8949 189.38547 201.11345 208.20575 213.4327 223.23992 234.56157 243.33454 255.06252 264.2418 274.86164 280.0886 289.95124 299.94316 311.2648 320.03779 325.26475 335.07197 346.39363 355.1666 365.1031 374.28239 383.05537">luggage, the restaurant burned your burger,</tspan></text>
<text xml:space="preserve" transform="matrix(.75 0 0 .75 44.392084 158.67234)" font-size="18.48" font-family="Lora" font-style="italic"><tspan y="426" x="20.546875 31.037449 42.765436 53.385278 58.612226 65.70453 76.63835 85.81763 91.04457 101.97839 111.97029 119.06259 128.24187 133.83818 139.06513 149.99897 160.48954 171.10938 176.33632 186.32822 198.0562 203.65251 213.51514 218.74208 229.23265 234.4596 244.39609 255.71775 264.89704 274.0763 285.8043 295.0944 303.3687 309.72227 318.79075 327.97004 338.58988 343.81684 353.62406 362.80335">and the hotel had only a queen-sized bed</tspan></text>
<text xml:space="preserve" transform="matrix(.75 0 0 .75 44.392084 158.67234)" font-size="18.48" font-family="Lora" font-style="italic"><tspan y="455" x="10.734375 17.087925 28.81591 37.090219 44.18252 53.3618 63.852376 74.47222 79.699169 89.69106 96.06307 101.290019 108.38232 119.31614 128.49542 133.72237 143.6958 150.04935 161.77733 171.71382 181.0039 189.27822 195.63176 204.70023 213.8795 219.10645 229.09835 240.82633 250.0056 255.23255 265.09516 275.08705 286.4087 290.39823 301.01808 306.24504 316.23695 325.00993 335.62977 344.80906 353.58204 362.76133 373.38117">instead of the king-size one you&#x2019;d ordered.</tspan></text>
<text xml:space="preserve" transform="matrix(.75 0 0 .75 44.392084 158.67234)" font-size="18.48" font-family="Lora" font-style="italic"><tspan y="455" x="378.03126"> </tspan></text>
<g opacity=".2275">
<g clip-path="url(#clip_79)">
<g clip-path="url(#clip_80)">
<path transform="matrix(7.6666667,0,0,7.6666667,53.78614,197.52515)" d="M36 18C36 27.941 27.941 36 18 36 8.059999 36 0 27.941 0 18 0 8.06 8.06 0 18 0 27.941 0 36 8.06 36 18" fill="#ffcc4d"/>
<path transform="matrix(7.6666667,0,0,7.6666667,53.78614,197.52515)" d="M14 14.5C13.999999 14.61463 13.995986 14.728983 13.987961 14.8430609 13.979935 14.957137 13.967935 15.070389 13.951961 15.182815 13.935987 15.295241 13.916117 15.4063019 13.892349 15.515996 13.868582 15.625689 13.841031 15.733487 13.809697 15.83939 13.778364 15.945294 13.743399 16.048794 13.704802 16.149888 13.666205 16.250983 13.624162 16.349184 13.578672 16.444495 13.533184 16.539807 13.484468 16.631768 13.432526 16.720377 13.380583 16.808987 13.325663 16.893818 13.267766 16.974873 13.209869 17.055928 13.149276 17.132815 13.085983 17.205534 13.02269 17.278256 12.957004 17.346457 12.888924 17.410141 12.820845 17.473826 12.7507 17.532687 12.678491 17.586724 12.60628 17.64076 12.532352 17.68971 12.456707 17.733576 12.381062 17.777445 12.304063 17.816018 12.22571 17.84929 12.147358 17.882565 12.068029 17.910384 11.987725 17.932745 11.907421 17.955109 11.826527 17.97191 11.745043 17.983147 11.66356 17.994383 11.581879 18 11.5 18 11.418122 18 11.336441 17.994383 11.254958 17.983147 11.173474 17.97191 11.09258 17.955109 11.012274 17.932745 10.93197 17.910384 10.85264 17.882565 10.774287 17.84929 10.695935 17.816018 10.618937 17.777445 10.54329 17.733576 10.467646 17.68971 10.393718 17.64076 10.321507 17.586724 10.249298 17.532689 10.1791529 17.473828 10.111073 17.410143 10.0429949 17.346459 9.977308 17.278256 9.914016 17.205534 9.850724 17.132815 9.79013 17.055928 9.732232 16.974873 9.6743359 16.893818 9.619415 16.808987 9.567473 16.720377 9.515531 16.631768 9.466814 16.539807 9.421325 16.444495 9.375835 16.349184 9.333793 16.250983 9.295197 16.149888 9.256599 16.048794 9.221634 15.945294 9.1903 15.83939 9.158967 15.733487 9.131417 15.625689 9.107649 15.515996 9.08388 15.4063019 9.06401 15.295241 9.048036 15.182814 9.032063 15.070388 9.020062 14.957137 9.012037 14.84306 9.004012 14.728983 9 14.61463 9 14.5 9 14.385371 9.004012 14.271018 9.012037 14.15694 9.020062 14.042863 9.032063 13.92961 9.048036 13.8171839 9.06401 13.704758 9.08388 13.593698 9.107649 13.484003 9.131417 13.3743109 9.158967 13.266512 9.1903 13.160607 9.221634 13.054704 9.256599 12.951205 9.295197 12.850111 9.333793 12.749017 9.375835 12.650814 9.421325 12.555503 9.466814 12.460193 9.515531 12.368233 9.567473 12.279624 9.619415 12.191014 9.6743359 12.106182 9.732232 12.025126 9.79013 11.944071 9.850724 11.867184 9.914016 11.794464 9.977308 11.721745 10.0429949 11.653542 10.111073 11.589856 10.1791529 11.526172 10.249298 11.467312 10.321507 11.413276 10.393718 11.35924 10.467646 11.310288 10.54329 11.26642 10.618937 11.222554 10.695935 11.183984 10.774287 11.150709 10.85264 11.117434 10.93197 11.089614 11.012274 11.067251 11.09258 11.0448889 11.173474 11.02809 11.254958 11.016854 11.336441 11.005619 11.418122 11.000001 11.5 11 11.581879 11.000001 11.66356 11.005619 11.745043 11.016855 11.826527 11.02809 11.90742 11.0448889 11.987724 11.067251 12.068029 11.089614 12.147358 11.117434 12.225711 11.150709 12.304062 11.183984 12.381061 11.222554 12.456706 11.26642 12.5323519 11.310288 12.606279 11.35924 12.678491 11.413276 12.7507 11.467312 12.820844 11.526173 12.888923 11.589857 12.957003 11.6535429 13.02269 11.721745 13.085982 11.794464 13.149275 11.867184 13.209869 11.944071 13.267766 12.025126 13.325663 12.106182 13.380583 12.191014 13.432527 12.279624 13.484468 12.368233 13.533184 12.460193 13.578672 12.555503 13.624162 12.650814 13.666205 12.749017 13.7048029 12.850111 13.743399 12.951205 13.778364 13.054704 13.809697 13.160606 13.841031 13.266511 13.868582 13.37431 13.892349 13.484003 13.916118 13.593698 13.935988 13.704758 13.9519619 13.8171839 13.967935 13.92961 13.979935 14.042863 13.987962 14.15694 13.995987 14.271018 13.999999 14.385371 14 14.5Z" fill="#664500"/>
<path transform="matrix(7.6666667,0,0,7.6666667,53.78614,197.52515)" d="M27 14.5C27.000002 14.61463 26.995989 14.728983 26.987963 14.8430609 26.979935 14.957137 26.967934 15.070389 26.95196 15.182815 26.935988 15.295241 26.916117 15.4063019 26.892348 15.515996 26.86858 15.625689 26.841029 15.733487 26.809693 15.83939 26.77836 15.945294 26.743395 16.048794 26.704798 16.149888 26.6662 16.250983 26.624157 16.349184 26.578669 16.444495 26.53318 16.539807 26.484467 16.631768 26.432524 16.720377 26.38058 16.808987 26.32566 16.893818 26.267764 16.974873 26.209868 17.055928 26.149273 17.132815 26.085982 17.205534 26.022688 17.278256 25.957 17.346457 25.888922 17.410141 25.820843 17.473826 25.750699 17.532687 25.67849 17.586724 25.60628 17.64076 25.53235 17.68971 25.456704 17.733576 25.38106 17.777445 25.30406 17.816018 25.225708 17.84929 25.147356 17.882565 25.068028 17.910384 24.987723 17.932745 24.907422 17.955109 24.826527 17.97191 24.745043 17.983147 24.663559 17.994383 24.581879 18 24.5 18 24.418124 18 24.336443 17.994383 24.25496 17.983147 24.173474 17.97191 24.092577 17.955109 24.012272 17.932745 23.931967 17.910384 23.852639 17.882565 23.774287 17.84929 23.695935 17.816018 23.618937 17.777445 23.54329 17.733576 23.467644 17.68971 23.393715 17.64076 23.321505 17.586724 23.249299 17.532689 23.179154 17.473828 23.111073 17.410143 23.042994 17.346459 22.977309 17.278256 22.914017 17.205534 22.850726 17.132815 22.79013 17.055928 22.732234 16.974873 22.674338 16.893818 22.61942 16.808987 22.567477 16.720377 22.515534 16.631768 22.466816 16.539807 22.421326 16.444495 22.375838 16.349184 22.333794 16.250983 22.295197 16.149888 22.2566 16.048794 22.221634 15.945294 22.1903 15.83939 22.158967 15.733487 22.131417 15.625689 22.107649 15.515996 22.08388 15.4063019 22.064009 15.295241 22.048035 15.182814 22.032063 15.070388 22.020064 14.957137 22.012038 14.84306 22.004014 14.728983 22 14.61463 22 14.5 22 14.385371 22.004014 14.271018 22.012038 14.15694 22.020064 14.042863 22.032063 13.92961 22.048035 13.8171839 22.064009 13.704758 22.08388 13.593698 22.107647 13.484003 22.131415 13.3743109 22.158967 13.266512 22.1903 13.160607 22.221634 13.054704 22.2566 12.951205 22.295197 12.850111 22.333794 12.749017 22.375838 12.650814 22.421326 12.555503 22.466816 12.460193 22.515534 12.368233 22.567477 12.279624 22.61942 12.191014 22.674338 12.106182 22.732234 12.025126 22.79013 11.944071 22.850726 11.867184 22.914019 11.794464 22.97731 11.721745 23.042994 11.653542 23.111073 11.589856 23.179154 11.526172 23.249299 11.467312 23.321507 11.413276 23.393717 11.35924 23.467644 11.310288 23.54329 11.26642 23.618937 11.222554 23.695935 11.183984 23.774287 11.150709 23.852639 11.117434 23.931967 11.089614 24.012272 11.067251 24.092577 11.0448889 24.173474 11.02809 24.25496 11.016854 24.336443 11.005619 24.418124 11.000001 24.5 11 24.581879 11.000001 24.663559 11.005619 24.745043 11.016855 24.826527 11.02809 24.907422 11.0448889 24.987723 11.067251 25.068028 11.089614 25.147356 11.117434 25.225708 11.150709 25.30406 11.183984 25.38106 11.222554 25.456704 11.26642 25.53235 11.310288 25.60628 11.35924 25.67849 11.413276 25.750699 11.467312 25.820843 11.526173 25.888922 11.589857 25.957 11.6535429 26.022688 11.721745 26.08598 11.794464 26.149273 11.867184 26.209868 11.944071 26.267764 12.025126 26.32566 12.106182 26.38058 12.191014 26.432524 12.279624 26.484467 12.368233 26.53318 12.460193 26.578669 12.555503 26.624157 12.650814 26.6662 12.749017 26.704798 12.850111 26.743395 12.951205 26.77836 13.054704 26.809693 13.160606 26.841029 13.266511 26.86858 13.37431 26.892348 13.484003 26.916117 13.593698 26.935988 13.704758 26.95196 13.8171839 26.967934 13.92961 26.979935 14.042863 26.987963 14.15694 26.995989 14.271018 27.000002 14.385371 27 14.5Z" fill="#664500"/>
<path transform="matrix(7.6666667,0,0,7.6666667,53.78614,197.52515)" d="M8.665 27.871C8.843 28.032 9.109 28.042 9.3 27.9 9.339 27.871 13.222 25 18 25 22.765999 25 26.661999 27.871 26.7 27.9 26.891 28.042 27.157002 28.029999 27.335001 27.871 27.512001 27.711 27.552002 27.447 27.429 27.243 27.3 27.029 24.212 22 18 22 11.788 22 8.699 27.028 8.571 27.243 8.448 27.448 8.487 27.711 8.665 27.871Z" fill="#664500"/>
</g>
</g>
</g>
<text fill="#515151" xml:space="preserve" transform="matrix(.26666669 0 0 .26666669 42.35302 77.34023)" font-size="41.27" font-family="Lora" font-style="italic"><tspan y="47" x="387.85939 421.53303 458.79679 490.2008 520.2018 551.81216 582.72097 613.8774 630.09567 662.9027 682.0095 701.11636">CHAPTER VIII</tspan></text>
<text xml:space="preserve" transform="matrix(.26666669 0 0 .26666669 133.80834 567.8611)" font-size="29.47" font-family="Lora" font-style="italic"><tspan y="33" x="159.15625 170.1778 186.17957 194.51946 210.46228 220.62923 228.96912 239.99066">15 of 19</tspan></text>
<text fill="#515151" xml:space="preserve" transform="matrix(.26666669 0 0 .26666669 43.624925 98.129299)" font-size="70.75" font-family="Lora"><tspan y="80" x="55.1875 106.69385 160.81795 211.19229 266.1654 311.65803 343.00065 397.12474 452.80534 484.14793 524.26358 579.3781 630.45999 661.80258 728.4494 779.53128 831.39138 880.6337 920.7493 953.3654 1001.8295">Focus on the Negative</tspan></text>
</g>
</g>
</svg>
