<svg xmlns="http://www.w3.org/2000/svg" xmlns:xlink="http://www.w3.org/1999/xlink" version="1.1" width="384pt" height="600pt" viewBox="0 0 384 600">
<defs>
<clipPath id="clip_20">
<path transform="matrix(.24,0,0,.24,0,0)" d="M0 0H1600V2500H0Z" fill-rule="evenodd"/>
</clipPath>
<clipPath id="clip_21">
<path transform="matrix(.24,0,0,.24,0,0)" d="M0 0H1600V2500H0Z" fill-rule="evenodd"/>
</clipPath>
<clipPath id="clip_22">
<path transform="matrix(.24,0,0,.24,0,0)" d="M0 0H1600V2500H0Z" fill-rule="evenodd"/>
</clipPath>
<clipPath id="clip_23">
<path transform="matrix(.24,0,0,.24,0,0)" d="M55.555559 2280H1543.0556V2286.25H55.555559Z" fill-rule="evenodd"/>
</clipPath>
</defs>
<g clip-path="url(#clip_20)">
<path transform="matrix(.75,0,0,.75,0,-2430)" d="M0 3240H512V4040H0Z" fill="#ffffff"/>
</g>
<g clip-path="url(#clip_21)">
<path transform="matrix(.75,0,0,.75,0,0)" d="M0 0H512V800H0Z" fill="#ffffff"/>
</g>
<g clip-path="url(#clip_22)">
<text xml:space="preserve" transform="matrix(.26666669 0 0 .26666669 37.06444 214.64836)" font-size="41.27" font-family="Lora" font-style="italic"><tspan y="66" x="0 38.666109 62.105165 84.38878 104.897968 116.576297 135.06346 160.35948 179.96083 200.47002 212.14835 234.18437 256.50929 281.8053 293.48365 313.085 338.381 375.35523 389.55079 415.75465 439.1937 455.03987 475.54905 487.2274 509.55229 532.0835 552.59268 572.194 583.8723 604.3815 626.91268 647.4219 667.0232 689.0592 700.73757 713.2412 727.43679 743.28298 759.12918 771.6328 792.14199 803.8203 819.6665 844.09597 858.2915 884.49539 906.6964 918.37478 934.22097 958.6504 982.0895 997.93569 1009.614 1034.0435 1057.4826">Make sure you ruminate over every little thing that has</tspan></text>
<text xml:space="preserve" transform="matrix(.26666669 0 0 .26666669 37.06444 214.64836)" font-size="41.27" font-family="Lora" font-style="italic"><tspan y="169" x="0 24.429429 47.868486 72.25665 96.64482 117.15401 143.35787 163.86705 187.59497 199.2733 215.11946 237.44435 249.12268 271.1587 293.48359 318.7796 330.45796 352.78285 375.31404 395.8232 415.42457 427.1029 442.94908 467.37849 487.88768 499.566 519.91018 542.23507 567.53109 587.13247 605.6196 626.1288 637.8071 660.132 674.36886 686.0472 708.0832 730.4081 755.7041 775.3054 786.98379 799.4874 813.683 827.9198 848.42898 859.03439 870.7127 894.15176 920.3556 944.0835 955.76187 979.48977 1001.81466 1013.493 1039.6968 1062.0217">happened to you over the course of your life, and do not</tspan></text>
<text xml:space="preserve" transform="matrix(.26666669 0 0 .26666669 37.06444 214.64836)" font-size="41.27" font-family="Lora" font-style="italic"><tspan y="272" x="0 14.236802 36.56169 56.16304 78.36412 92.55966 115.090869 135.60005 147.27838 170.71744 196.9213 218.95732 241.28221 267.48609 287.99528 299.6736 313.91044 336.23533 355.83668 367.515 390.95408 417.15794 439.19398 450.8723 475.2605 495.76969 515.37106 535.71517 556.22439 570.4199 592.9511 613.4603 637.18826 648.8666 682.74588 702.34719 724.67208 750.8759 773.077 784.7554 805.0995 827.4244 864.39859 901.3728 915.56838 931.41458 947.26077 967.7699 991.4978 1003.17617 1026.6152 1048.8163 1072.2554 1086.4509 1112.6548 1131.142">forgive anyone for any perceived wrong committed against</tspan></text>
<text xml:space="preserve" transform="matrix(.26666669 0 0 .26666669 37.06444 214.64836)" font-size="41.27" font-family="Lora" font-style="italic"><tspan y="375" x="0 22.036026 44.360918 69.65694 80.05603 91.73436 118.804798 143.23423 157.42977 175.91693 187.59526 221.47455 244.9136 266.94966 277.55509 289.23344 311.26948 333.59437 358.89039 367.80393 380.3076 392.81126 404.4896 426.40184 446.911 458.58937 478.93348 499.44267 519.044 534.8902 558.3292 572.5248 598.72866 610.407 626.2532 648.57809 660.2564 674.4932 696.8181 717.16226 742.45828 760.94546 772.6238 794.94869 821.1525 832.8309 848.67709 873.1065 893.6157 905.29409 921.14028 945.5697 959.76528 985.9691 1008.17019 1026.6574 1038.3357 1060.3717 1082.6965">you. This way, you&#x2019;ll be certain to focus on the things you</tspan></text>
<text xml:space="preserve" transform="matrix(.26666669 0 0 .26666669 37.06444 214.64836)" font-size="41.27" font-family="Lora" font-style="italic"><tspan y="478" x="0 20.344132 43.783189 69.987049 79.02437 94.87053 106.54886 126.89299 149.21788 175.42174 191.2679 210.86925 233.19414 245.69779 257.37614 271.5717 297.77555 316.2627 332.10887 352.61805 376.0571 399.78504 411.46339 433.78828 448.0251 459.70344 482.02833 508.23219 519.9105 535.7567 560.18618 582.51107 600.9982 621.50747 633.1858 655.2218 677.5467 702.8427 714.52108 734.8652 758.3042 784.50808 795.11349 806.7918 840.6711 865.1005 879.2961 899.6402 924.06967 935.748 972.72219 986.9177 1009.1188 1033.5482">can't control instead of on those you can, which might</tspan></text>
<text xml:space="preserve" transform="matrix(.26666669 0 0 .26666669 37.06444 214.64836)" font-size="41.27" font-family="Lora" font-style="italic"><tspan y="581" x="0 23.439057 43.783189 59.62935 84.92537 108.364429 120.86807 133.37172 155.40775 167.08608 204.06029 227.49935 249.78296 270.29216 281.9705 304.00654 326.33143 351.62745 363.3058 397.18507 420.6241 446.82798 462.67414 474.35249 490.19865 512.52359 524.2019 538.39749 575.3717 599.7599 619.3612 641.6861 664.2173 684.72647 696.4048 718.4408 740.7657 766.0617 785.6631 797.34146 809.8451 832.17 848.0162 858.4153 870.0936 896.4625 916.9717 940.41079 960.0121 974.20767 1000.4115 1022.61257 1034.2909 1050.1371 1074.5665 1096.8914 1115.3786">actually make you want to improve your lot. Bearing those</tspan></text>
<text xml:space="preserve" transform="matrix(.26666669 0 0 .26666669 37.06444 214.64836)" font-size="41.27" font-family="Lora" font-style="italic"><tspan y="684" x="0 22.20108 41.80243 67.09845 90.82637 113.02745 133.53664 152.0238 163.70214 187.14119 213.34505 237.07297 248.7513 273.18074 295.5056 308.00929 331.73719 345.93275 372.1366 394.33769 406.01603 428.3409 454.54478 470.39094 492.71583 504.39418 520.24038 544.6698 568.1089 583.9551 595.6334 615.23477 635.7439 654.2311 674.74026 700.9441 716.7903 753.7645 774.2737 800.47756 816.3237 828.0021 848.3462 871.7853 897.98916 909.6675 931.5797 952.08889 963.7672 988.1554 1010.4803 1044.3596 1064.8688 1084.4701 1098.7069 1124.0029">grudges and holding onto that resentment can be powerful</tspan></text>
<text xml:space="preserve" transform="matrix(.26666669 0 0 .26666669 37.06444 214.64836)" font-size="41.27" font-family="Lora" font-style="italic"><tspan y="787" x="0 33.879289 57.318346 79.35437 97.84154 109.51987 125.36603 147.69092 159.36925 179.71338 192.21703 206.41257 232.61643 252.96056 277.38999 289.06834 304.9145 329.34394 343.5395 362.02668 373.70503 399.00105 425.2049 449.63435 473.0734 497.46156 521.84976 536.0453 562.24917 582.7583 601.2455 619.73269 630.1318 641.8101 674.0801 699.3761 718.9774 734.8236 760.1196 779.72097 800.2301 811.90847 826.14529 846.6544 867.1636 879.66726 893.8628 920.06668 942.2677 960.7549 972.4332 994.7581 1008.99496 1020.6733 1044.1123 1070.3162 1092.5172 1113.0264">ways to clinch this unhappiness. Nurture feelings of anger</tspan></text>
<text xml:space="preserve" transform="matrix(.26666669 0 0 .26666669 37.06444 214.64836)" font-size="41.27" font-family="Lora" font-style="italic"><tspan y="890" x="0 23.439057 49.642915 73.370838 85.049167 106.961399 121.15694 137.0031 152.84926 173.35845 192.9598 219.16365 239.67284 258.16 276.64717 288.3255 304.17167 326.49656 360.37586 383.8149 403.41627 427.14418 445.63136 457.3097 473.15586 497.58528 519.91018 538.39736 558.9065 570.58486 604.4641 628.89358 651.21847 662.8968 687.32626 710.76528 733.29647 753.80569 765.484 799.3633 818.9646 841.2895 867.49337 889.69448 910.2036 933.9315 945.60989 967.6459 989.97079 1015.2668 1025.6659 1037.3442 1063.7131">and bitterness towards those who have wronged you. By</tspan></text>
<text xml:space="preserve" transform="matrix(.26666669 0 0 .26666669 37.06444 214.64836)" font-size="41.27" font-family="Lora" font-style="italic"><tspan y="993" x="0 20.344132 42.66902 68.87288 87.36005 103.20621 126.64526 152.84912 168.69528 181.19893 203.23496 214.91329 234.51464 255.02382 279.412 291.91566 315.3547 337.39076 351.5863 377.79017 399.99125 411.6696 437.87345 458.38264 480.5837 504.02278 519.86898 534.0645 556.5957 577.10488 588.7832 609.29238 631.82357 652.33279 678.5366 694.3828 712.87 724.54837 738.7439 764.94778 776.6261 798.6621 820.987 846.283 865.8844 877.56277 914.537 928.73257 954.9364 978.6643 989.2697 1000.94808 1022.9841 1045.309 1070.605 1079.5186 1092.0222">constantly replaying negative events in your mind, you&#x2019;ll</tspan></text>
<text xml:space="preserve" transform="matrix(.26666669 0 0 .26666669 37.06444 214.64836)" font-size="41.27" font-family="Lora" font-style="italic"><tspan y="1096" x="0 36.974214 60.41327 82.696887 103.20607 114.8844 135.22853 155.73772 175.33907 191.18523 214.62429 228.81983 255.02368 266.70204 282.5482 306.9776 330.41667 346.26283 357.94117 383.23719 409.44105 433.87049 457.30955 481.6977 506.08589 520.28146 546.4853 566.9945 585.4817 603.9689 615.6472 635.24856 655.7577 692.73196 716.171 730.3666 756.57046 775.0576 786.73599 810.17507 821.8534 842.1975 864.5224 890.72628 909.21347 925.05966 948.49868 974.7025">make certain that unhappiness remains a constant</tspan></text>
<text xml:space="preserve" transform="matrix(.26666669 0 0 .26666669 37.06444 214.64836)" font-size="41.27" font-family="Lora" font-style="italic"><tspan y="1199" x="0 20.344132 42.66902 79.643238 104.0314 127.47046 153.67432 167.86986 190.19475 216.3986">companion.</tspan></text>
<text fill="#515151" xml:space="preserve" transform="matrix(.26666669 0 0 .26666669 42.35302 77.34023)" font-size="41.27" font-family="Lora" font-style="italic"><tspan y="47" x="423.375 457.04866 494.3124 525.71646 555.7174 587.32778 618.2366 649.393 665.61129">CHAPTER I</tspan></text>
<text xml:space="preserve" transform="matrix(.26666669 0 0 .26666669 133.80834 567.8611)" font-size="29.47" font-family="Lora" font-style="italic"><tspan y="33" x="155.57813 173.76059 189.76236 198.10225 214.04508 224.21202 232.55191 243.57346">05 of 19</tspan></text>
<text fill="#515151" xml:space="preserve" transform="matrix(.26666669 0 0 .26666669 43.624925 98.129299)" font-size="70.75" font-family="Lora"><tspan y="80" x="78.171878 143.61598 197.74008 253.42069 280.87205 320.98765 352.33027 405.9591 457.04096 497.15657 528.49917 585.24099 635.3323 687.1924 741.31649 796.9971 848.0789 893.57156 924.9141 978.826">Don't Let Bygones be</tspan></text>
<text fill="#515151" xml:space="preserve" transform="matrix(.26666669 0 0 .26666669 43.624925 98.129299)" font-size="70.75" font-family="Lora"><tspan y="191" x="371.51564 428.25749 478.34883 530.2089 584.333 640.0136 691.09548">Bygones</tspan></text>
</g>
<g clip-path="url(#clip_23)">
<path transform="matrix(.71400007,0,0,.71400007,13.333333,369.36708)" d="M0 0H500V500H0Z" fill="#d8ff00"/>
</g>
</svg>
