<svg xmlns="http://www.w3.org/2000/svg" xmlns:xlink="http://www.w3.org/1999/xlink" version="1.1" width="384pt" height="600pt" viewBox="0 0 384 600">
<defs>
<clipPath id="clip_53">
<path transform="matrix(.24,0,0,.24,0,0)" d="M0 0H1600V2500H0Z" fill-rule="evenodd"/>
</clipPath>
<clipPath id="clip_54">
<path transform="matrix(.24,0,0,.24,0,0)" d="M0 0H1600V2500H0Z" fill-rule="evenodd"/>
</clipPath>
<clipPath id="clip_55">
<path transform="matrix(.24,0,0,.24,0,0)" d="M55.555559 2280H1543.0556V2286.25H55.555559Z" fill-rule="evenodd"/>
</clipPath>
<clipPath id="clip_56">
<path transform="matrix(.24,0,0,.24,0,0)" d="M0 0H1600V2500H0Z" fill-rule="evenodd"/>
</clipPath>
</defs>
<g clip-path="url(#clip_53)">
<path transform="matrix(.75,0,0,.75,0,-607.5)" d="M0 810H512V1610H0Z" fill="#ffffff"/>
</g>
<g clip-path="url(#clip_54)">
<path transform="matrix(.75,0,0,.75,0,0)" d="M0 0H512V800H0Z" fill="#ffffff"/>
</g>
<g clip-path="url(#clip_55)">
<path transform="matrix(.71400007,0,0,.71400007,13.333333,369.36698)" d="M0 0H500V500H0Z" fill="#d8ff00"/>
</g>
<g clip-path="url(#clip_56)">
<text fill="#515151" xml:space="preserve" transform="matrix(.26666669 0 0 .26666669 42.35302 77.34017)" font-size="41.27" font-family="Lora" font-style="italic"><tspan y="47" x="406.96876 440.6424 477.90617 509.31019 539.31118 570.9215 601.8303 632.98678 649.205 682.0121">CHAPTER VI</tspan></text>
<text xml:space="preserve" transform="matrix(.26666669 0 0 .26666669 133.80834 567.8611)" font-size="29.47" font-family="Lora" font-style="italic"><tspan y="33" x="159.125 170.14655 186.20725 194.54714 210.48996 220.6569 228.9968 240.01834">12 of 19</tspan></text>
<text fill="#515151" xml:space="preserve" transform="matrix(.26666669 0 0 .26666669 43.624925 98.12947)" font-size="70.75" font-family="Lora"><tspan y="80" x="92.46875 154.65836 208.78246 284.7683 339.7414 388.98377 432.35389 483.43574 514.7783 572.36917 626.4933 681.4664 724.8365 770.3291 821.41098 853.3903 890.0392 921.3818 961.4974">Compare Yourself to</tspan></text>
<text fill="#515151" xml:space="preserve" transform="matrix(.26666669 0 0 .26666669 43.624925 98.12947)" font-size="70.75" font-family="Lora"><tspan y="191" x="402 470.91084 511.02644 566.141 617.22286 660.59298">Others</tspan></text>
<text xml:space="preserve" transform="matrix(.75 0 0 .75 50.275564 188.67469)" font-size="22.48" font-family="Lora" font-style="italic"><tspan y="25" x="20.0625 35.925737 48.08162 62.349565 72.41585 81.04413 93.80667 108.074619 116.702899 123.5112 135.5098 141.86873 152.9461 165.10199 185.2343 198.51361 211.27616 221.9491 229.67862 243.94657 256.03504 262.39399 274.39259 286.54847 300.32209 310.99504 321.0613 332.22856 339.03684 346.78883 353.14775 361.776">Constantly comparing yourself to</tspan></text>
<text xml:space="preserve" transform="matrix(.75 0 0 .75 50.275564 188.67469)" font-size="22.48" font-family="Lora" font-style="italic"><tspan y="60" x="15.59375 27.749634 36.377916 49.679704 60.846956 71.5199 81.58618 87.945117 95.67464 105.74092 112.09985 124.8624 131.22133 141.28762 155.06125 165.73419 176.90145 184.65345 192.38297 203.05591 214.22316 220.58209 239.02924 251.79178 263.79039 270.1493 278.77757 290.93345 297.29237 305.04435 316.21159 327.3788 334.1871 340.54603 347.3543 355.08384 367.21723">others is a surefire way to feel like</tspan></text>
<text xml:space="preserve" transform="matrix(.75 0 0 .75 50.275564 188.67469)" font-size="22.48" font-family="Lora" font-style="italic"><tspan y="95" x="34.9375 46.936098 59.09198 72.865619 77.786548 88.45949 99.62674 105.98567 120.25362 132.4095 141.03778 147.39672 159.48519 171.64105 183.79694 196.71675 203.07569 214.24294 228.51088 240.66677 254.4404 266.52888 279.83067 285.49305 291.852 306.59178 319.89356 332.6561 346.92405">you're not good enough. Thank</tspan></text>
<text xml:space="preserve" transform="matrix(.75 0 0 .75 50.275564 188.67469)" font-size="22.48" font-family="Lora" font-style="italic"><tspan y="130" x="14.21875 26.30722 38.463106 50.618989 63.538805 77.80675 88.974 99.04028 109.10657 115.4655 123.2175 135.37339 146.04633 152.40526 162.47154 174.62743 185.7048 193.43433 206.19687 213.00518 219.3641 239.49642 250.66367 263.5835 271.31303 284.07557 290.6367 296.9956 304.92735 313.5556 318.47654 328.54283 334.90174 349.16969 361.32557">goodness for social media! It's now</tspan></text>
<text xml:space="preserve" transform="matrix(.75 0 0 .75 50.275564 188.67469)" font-size="22.48" font-family="Lora" font-style="italic"><tspan y="165" x="10.59375 21.761002 29.513 37.265 49.420885 60.093828 68.72211 75.53041 86.69766 96.76395 106.83023 113.18916 121.817447 133.97333 140.33225 151.40962 163.5655 183.69782 196.97713 209.73967 220.41262 231.57987 237.9388 250.09468 263.86833 274.54127 280.90019 287.70848 295.438 307.7062 318.87345 328.93974 335.29866 353.7458 361.4753 370.10359">effortless to compare our lives with</tspan></text>
<text xml:space="preserve" transform="matrix(.75 0 0 .75 50.275564 188.67469)" font-size="22.48" font-family="Lora" font-style="italic"><tspan y="200" x="38.0625 49.139879 61.90242 72.57536 83.742618 91.49461 105.26825 112.07655 118.88486 130.88346 137.24239 148.31977 162.0934 172.76633 185.52887 194.15715 205.3244 218.24422 224.60315 237.90494 245.63446 257.72294 271.02473 277.833 285.56254 297.651 310.9528 319.58106 329.64735 336.00627 348.16215">carefully curated highlights of</tspan></text>
<text xml:space="preserve" transform="matrix(.75 0 0 .75 50.275564 188.67469)" font-size="22.48" font-family="Lora" font-style="italic"><tspan y="235" x="37.796876 49.95276 58.58104 71.88283 83.05008 93.72302 103.78931 109.451709 115.81064 130.16846 144.4364 156.52487 169.28742 181.37589 189.10541 203.37335 215.46183 221.82076 229.55028 243.81822 250.17716 263.9508 278.21876 291.52055 302.68778 315.45033 322.2586 330.88688 344.18867">others. Engaging in unhealthy</tspan></text>
<text xml:space="preserve" transform="matrix(.75 0 0 .75 50.275564 188.67469)" font-size="22.48" font-family="Lora" font-style="italic"><tspan y="270" x="9.359375 20.436753 32.592638 52.724946 66.00426 77.17151 85.79979 93.52931 102.15759 109.887119 122.043 136.31095 142.66988 155.43242 169.70037 182.62018 188.97911 200.05649 212.21237 226.48032 236.5466 245.17488 257.93745 272.20539 280.83366 287.64195 299.64054 305.99946 316.06575 327.23298 338.4002 350.5336 358.26313 372.53108">competition and constantly seeking</tspan></text>
<text xml:space="preserve" transform="matrix(.75 0 0 .75 50.275564 188.67469)" font-size="22.48" font-family="Lora" font-style="italic"><tspan y="305" x="27.859375 40.127595 52.890138 59.69844 67.42796 80.34778 93.11032 101.7386 109.468128 121.62401 135.89196 142.25089 150.00289 160.67581 172.8317 192.964 199.32294 211.47882 220.1071 233.40889 244.57614 255.24909 265.31538 271.67433 278.4826 289.64985 302.41239 314.6806 325.84785 335.91413 342.27305 356.04667">validation from others leaves us</tspan></text>
<text xml:space="preserve" transform="matrix(.75 0 0 .75 50.275564 188.67469)" font-size="22.48" font-family="Lora" font-style="italic"><tspan y="340" x="3.03125 10.783248 21.950499 33.11775 39.926054 47.655576 61.92352 74.011989 80.37092 88.10044 102.368389 115.13093 128.05075 139.21799 151.30646 165.0801 177.84264 186.47092 197.63817 203.9971 216.75965 231.02759 243.9474 250.30634 263.22615 270.95567 281.02195 292.0993 304.2552 318.52314 327.1514 338.31864 352.58659 361.21485 372.38209 385.30189">feeling inadequate and discontented.</tspan></text>
<text xml:space="preserve" transform="matrix(.75 0 0 .75 50.275564 188.67469)" font-size="22.48" font-family="Lora" font-style="italic"><tspan y="375" x="15.25 23.181748 35.270219 49.538164 61.694047 72.36699 83.53424 89.89317 101.89177 114.04765 127.82129 138.49423 144.85315 157.00904 175.45618 189.72412 196.08306 208.8456 219.92298 231.00035 243.15624 263.28855 276.56785 283.37614 291.10566 301.17195 314.47373 334.60603 345.77326 360.0412 368.66947">Ignore your own accomplishments</tspan></text>
<text xml:space="preserve" transform="matrix(.75 0 0 .75 50.275564 188.67469)" font-size="22.48" font-family="Lora" font-style="italic"><tspan y="410" x="9.46875 22.231293 36.499238 49.419054 55.777986 63.529985 75.68587 86.763248 100.53688 110.603168 116.9621 129.11798 143.38593 150.19423 162.19283 168.55176 180.70764 194.97559 201.33452 209.9628 223.26459 234.43184 240.79077 253.55332 264.63069 277.93247 285.662 296.82923 309.09745 320.26469 340.39698 351.5642 365.83216 374.46043">and focus only on the achievements</tspan></text>
<text xml:space="preserve" transform="matrix(.75 0 0 .75 50.275564 188.67469)" font-size="22.48" font-family="Lora" font-style="italic"><tspan y="445" x="148.03125 160.18714 167.93914 174.29807 186.45395 195.08223 208.38402 219.55127 230.22422 240.2905">of others.</tspan></text>
<text xml:space="preserve" transform="matrix(.75 0 0 .75 50.275564 188.67469)" font-size="22.48" font-family="Lora"><tspan y="480" x="196.98438"> </tspan></text>
</g>
</svg>
