<svg xmlns="http://www.w3.org/2000/svg" xmlns:xlink="http://www.w3.org/1999/xlink" version="1.1" width="384pt" height="600pt" viewBox="0 0 384 600">
<defs>
<clipPath id="clip_81">
<path transform="matrix(.24,0,0,.24,0,0)" d="M0 0H1600V2531.25H0Z" fill-rule="evenodd"/>
</clipPath>
<clipPath id="clip_82">
<path transform="matrix(.24,0,0,.24,0,0)" d="M0 0H1600V2500H0Z" fill-rule="evenodd"/>
</clipPath>
<clipPath id="clip_83">
<path transform="matrix(.24,0,0,.24,0,0)" d="M0 0H1600V2500H0Z" fill-rule="evenodd"/>
</clipPath>
<clipPath id="clip_84">
<path transform="matrix(.24,0,0,.24,0,0)" d="M55.555559 2280H1543.0556V2286.25H55.555559Z" fill-rule="evenodd"/>
</clipPath>
<clipPath id="clip_85">
<path transform="matrix(.24,0,0,.24,0,0)" d="M468.31834 1287.7942H1108.9434V1928.4192H468.31834Z" fill-rule="evenodd"/>
</clipPath>
<clipPath id="clip_86">
<path transform="matrix(.24,0,0,.24,0,0)" d="M0 0H1600V2500H0Z" fill-rule="evenodd"/>
</clipPath>
<clipPath id="clip_87">
<path transform="matrix(.24,0,0,.24,83.52,235.2)" d="M0 0H833V1391H0Z" fill-rule="evenodd"/>
</clipPath>
</defs>
<g>
<g clip-path="url(#clip_81)">
<path transform="matrix(.75,0,0,.75,0,0)" d="M0 0H512V3230H0Z" fill="#ffffff"/>
</g>
<g clip-path="url(#clip_82)">
<path transform="matrix(.75,0,0,.75,0,0)" d="M0 0H512V800H0Z" fill="#ffffff"/>
</g>
<g clip-path="url(#clip_83)">
<path transform="matrix(.75,0,0,.75,0,0)" d="M0 0H512V800H0Z" fill="#ffffff"/>
</g>
<g clip-path="url(#clip_84)">
<path transform="matrix(.71400007,0,0,.71400007,13.333333,369.367)" d="M0 0H500V500H0Z" fill="#d8ff00"/>
</g>
<g clip-path="url(#clip_85)">
<path transform="matrix(2.4798387,0,0,2.4798387,112.39639,309.0706)" d="M13 21.62V23C13 23 8 24 8 29H3C1.9 29 1 28.1 1 27V11C1 9.9 1.9000001 9 3 9H5 5.01C5 9.04 5 9.08 5 9.12V9.36C5 10.429999 5.32 11.459999 5.91 12.32 5.7999999 12.4 5.69 12.49 5.5899999 12.59 5.22 12.95 5 13.45 5 14 5 15.1 5.9 16 7 16H9C9.03 17.86 10.1 19.55 11.76 20.380002L12.450001 20.720002C12.79 20.89 13 21.24 13 21.62Z" fill="#e6e9ed"/>
<path transform="matrix(2.4798387,0,0,2.4798387,112.39639,309.0706)" d="M29 11V19.17C28.28 19.29 27.58 19.47 26.91 19.72 24.21 20.689999 21.97 22.609999 20.57 25.06 19.08 23.42 17 23 17 23V21.62C17 21.240002 17.21 20.890002 17.55 20.720002L18.24 20.380002C19.9 19.55 20.97 17.86 21 16H23C23.55 16 24.05 15.78 24.41 15.41 24.78 15.05 25 14.55 25 14 25 13.22 24.55 12.54 23.89 12.21 24.49 11.25 24.869999 10.15 24.97 9H27C28.1 9 29 9.9 29 11Z" fill="#e6e9ed"/>
<path transform="matrix(2.4798387,0,0,2.4798387,112.39639,309.0706)" d="M35 9H37.2C37.07 9.64 37 10.309999 37 11V14 20.6C35.79 19.9 34.44 19.41 33 19.17V11C33 9.9 33.9 9 35 9Z" fill="#e6e9ed"/>
<path transform="matrix(2.4798387,0,0,2.4798387,112.39639,309.0706)" d="M61 11V27C61 28.1 60.1 29 59 29H57V14 11C57 10.309999 56.93 9.64 56.8 9H59C60.1 9 61 9.9 61 11Z" fill="#e6e9ed"/>
<path transform="matrix(2.4798387,0,0,2.4798387,112.39639,309.0706)" d="M61 43V59C61 60.1 60.1 61 59 61H54C54 59.09 53.27 57.76 52.36 56.85 55.02 56.23 57 53.85 57 51V43C57 42.31 56.93 41.64 56.8 41H59C60.1 41 61 41.9 61 43Z" fill="#e6e9ed"/>
<path transform="matrix(2.4798387,0,0,2.4798387,112.39639,309.0706)" d="M41.64 56.85C40.73 57.76 40 59.09 40 61H35C33.9 61 33 60.1 33 59V42.83C34.49 42.59 35.89 42.06 37.14 41.320005 37.05 41.87 37 42.42 37 43V51C37 53.85 38.98 56.23 41.64 56.85Z" fill="#e6e9ed"/>
<path transform="matrix(2.4798387,0,0,2.4798387,112.39639,309.0706)" d="M29 42.83V59C29 60.1 28.1 61 27 61H22C22 56 17 55 17 55V53.62C17 53.239999 17.21 52.89 17.55 52.719999L18.24 52.379999C19.9 51.55 20.97 49.86 21 48H23C24.1 48 25 47.1 25 46 25 45.45 24.78 44.95 24.41 44.59 24.26 44.43 24.08 44.31 23.89 44.21 24.43 43.35 24.789999 42.379999 24.93 41.36 25.630002 41.77 26.380002 42.11 27.16 42.37 27.75 42.57 28.37 42.73 29 42.83Z" fill="#e6e9ed"/>
<path transform="matrix(2.4798387,0,0,2.4798387,112.39639,309.0706)" d="M13 55C13 55 8 56 8 61H3C1.9 61 1 60.1 1 59V43C1 41.9 1.9000001 41 3 41H5.0299999C5.1299998 42.15 5.5099999 43.25 6.1099998 44.21 5.45 44.54 5 45.22 5 46 5 46.55 5.22 47.05 5.59 47.41 5.95 47.78 6.45 48 7 48H9C9.03 49.86 10.1 51.55 11.76 52.38L12.450001 52.72C12.790001 52.89 13.000001 53.24 13.000001 53.620004V55H13Z" fill="#e6e9ed"/>
<path transform="matrix(2.4798387,0,0,2.4798387,112.39639,309.0706)" d="M15 58 17 55C17 55 22 56 22 61H8C8 56 13 55 13 55L15 58Z" fill="#b4dd7f"/>
<path transform="matrix(2.4798387,0,0,2.4798387,112.39639,309.0706)" d="M9.01 44H9 7C6.68 44 6.38 44.08 6.11 44.21 5.51 43.25 5.13 42.149999 5.03 41 5.01 40.78 5 40.55 5 40.33 5 36.28 8.28 33 12.33 33H17.67C18.19 33 18.7 33.05 19.19 33.16H19.2C19.37 34.13 19.66 35.06 20.060002 35.94 21.080002 38.21 22.800002 40.1 24.93 41.36 24.79 42.38 24.43 43.350004 23.89 44.21 23.62 44.07 23.32 44 23 44H21V42C19.72 42 18.49 41.49 17.59 40.59L17 40 15.82 41.18C14.01 42.99 11.57 44 9.01 44Z" fill="#656d78"/>
<path transform="matrix(2.4798387,0,0,2.4798387,112.39639,309.0706)" d="M44.33 55.19C44.170003 55.25 44 55.309999 43.800004 55.399999 43.160005 55.679998 42.340005 56.14 41.640005 56.85 38.98 56.23 37 53.85 37 51V43C37 42.42 37.05 41.87 37.14 41.32 38.899999 40.27 40.37 38.78 41.39 37.01 41.93 36.079999 42.35 35.079999 42.62 34.01 43.94 33.36 45.43 33 47 33 51.83 33 55.87 36.44 56.8 41 56.93 41.64 57 42.31 57 43V51C57 53.85 55.02 56.23 52.36 56.85 51.66 56.14 50.84 55.68 50.2 55.399999 50 55.309999 49.83 55.249998 49.670003 55.19 49.27 55.05 49.000005 54.68 49.000005 54.25V53.62C49.000005 53.239999 49.210004 52.89 49.550004 52.719999L50.24 52.379999C51.93 51.54 53 49.8 53 47.91V44H52.61C50.350004 44 48.25 42.87 47 41L46.12 41.88C44.76 43.24 42.92 44 41 44V47.91C41 49.8 42.07 51.54 43.76 52.38L44.449998 52.72C44.789999 52.89 44.999998 53.24 44.999998 53.620004V54.250005C45 54.68 44.73 55.05 44.33 55.19Z" fill="#656d78"/>
<path transform="matrix(2.4798387,0,0,2.4798387,112.39639,309.0706)" d="M54 61H40C40 59.09 40.73 57.76 41.64 56.85 42.34 56.14 43.16 55.68 43.8 55.399999 44.559999 56.409997 45.739999 56.999998 47 56.999998 48.260004 56.999998 49.44 56.409997 50.2 55.399999 50.84 55.679998 51.66 56.14 52.36 56.85 53.27 57.76 54 59.09 54 61Z" fill="#fcd770"/>
<path transform="matrix(2.4798387,0,0,2.4798387,112.39639,309.0706)" d="M20.57 25.06C20.39 25.359999 20.23 25.67 20.09 25.99 19.66 26.94 19.34 27.95 19.17 29H8C8 24 13 23 13 23 13 24.1 13.9 25 15 25 15.55 25 16.05 24.78 16.41 24.41 16.78 24.05 17 23.55 17 23 17 23 19.08 23.42 20.57 25.06Z" fill="#fcd770"/>
<path transform="matrix(2.4798387,0,0,2.4798387,112.39639,309.0706)" d="M25 8.33C25 8.55 24.99 8.78 24.97 9 24.869999 10.15 24.49 11.25 23.89 12.21 23.62 12.07 23.32 12 23 12H21C18.48 12 16.11 10.809999 14.6 8.8L14.54 8.72C14.2 8.27 13.67 8 13.11 8 12.429999 8 11.809999 8.38 11.509999 8.99L11 10H10.79C9.8 10 9 10.8 9 11.79V12H7C6.6 12 6.23 12.12 5.91 12.32 5.32 11.46 5 10.43 5 9.36V9.12C5 9.08 5 9.04 5.01 9 5.06 6.63 6.69 4.58 9 4 9.3 3.1 9.87 2.36 10.6 1.8299999 11.32 1.3 12.22 1 13.16 1H17.67C21.72 1 25 4.28 25 8.33Z" fill="#b27946"/>
<path transform="matrix(2.4798387,0,0,2.4798387,112.39639,309.0706)" d="M57 14V29H54C54 24 49 23 49 23V21.62C49 21.240002 49.21 20.890002 49.55 20.720002L50.239999 20.380002C51.9 19.55 52.97 17.86 53 16H55C55.55 16 56.05 15.78 56.41 15.41 56.78 15.05 57 14.55 57 14Z" fill="#fcd770"/>
<path transform="matrix(2.4798387,0,0,2.4798387,112.39639,309.0706)" d="M57 11V14C57 12.9 56.1 12 55 12H53C50.48 12 48.11 10.809999 46.6 8.8L46.539999 8.72C46.2 8.27 45.67 8 45.11 8 44.43 8 43.81 8.38 43.510004 8.99L43 10H42.79C41.8 10 41 10.8 41 11.79V12H39C38.45 12 37.95 12.22 37.59 12.59 37.22 12.95 37 13.45 37 14V11C37 10.309999 37.07 9.64 37.2 9 37.600004 7.04 38.57 5.29 39.93 3.9299999 41.74 2.12 44.24 1 47 1 51.83 1 55.87 4.44 56.8 9 56.93 9.64 57 10.31 57 11Z" fill="#fcd770"/>
<path transform="matrix(2.4798387,0,0,2.4798387,112.39639,309.0706)" d="M45 21.62V23C45 23 42.92 23.42 41.44 25.06 40.96 24.23 40.399999 23.47 39.75 22.779999 38.94 21.929999 38.02 21.189999 37 20.599999V14C37 15.1 37.9 16 39 16H41C41.03 17.86 42.1 19.55 43.76 20.380002L44.449998 20.720002C44.79 20.89 45 21.24 45 21.62Z" fill="#fcd770"/>
<path transform="matrix(2.4798387,0,0,2.4798387,112.39639,309.0706)" d="M54 29H42.83C42.600004 27.59 42.120004 26.26 41.440004 25.06 42.92 23.42 45 23 45 23 45 24.1 45.9 25 47 25 47.55 25 48.05 24.78 48.41 24.41 48.78 24.05 49 23.55 49 23 49 23 54 24 54 29Z" fill="#ef7385"/>
<path transform="matrix(2.4798387,0,0,2.4798387,112.39639,309.0706)" d="M9.01 44C9 44.04 9 44.08 9 44.12V47.91C9 47.94 9 47.97 9 48H7C6.45 48 5.95 47.78 5.59 47.41 5.22 47.05 5 46.55 5 46 5 45.22 5.45 44.54 6.11 44.21 6.38 44.08 6.68 44 7 44H9 9.01Z" fill="#f0d0b4"/>
<path transform="matrix(2.4798387,0,0,2.4798387,112.39639,309.0706)" d="M21 44V47.91C21 47.94 21 47.97 21 48 20.97 49.86 19.9 51.55 18.24 52.38L17.55 52.72C17.21 52.89 17 53.24 17 53.620004V55L15 58 13 55V53.62C13 53.239999 12.79 52.89 12.45 52.719999L11.76 52.379999C10.1 51.55 9.03 49.86 9 48 9 47.97 9 47.94 9 47.91V44.12C9 44.079999 9 44.039999 9.01 44 11.57 44 14.01 42.99 15.82 41.18L17 40 17.59 40.59C18.49 41.49 19.72 42 21 42V44Z" fill="#f0d0b4"/>
<path transform="matrix(2.4798387,0,0,2.4798387,112.39639,309.0706)" d="M24.41 44.59C24.78 44.95 25 45.45 25 46 25 47.1 24.1 48 23 48H21C21 47.97 21 47.94 21 47.91V44H23C23.32 44 23.62 44.07 23.89 44.21 24.08 44.31 24.26 44.43 24.41 44.59Z" fill="#f0d0b4"/>
<path transform="matrix(2.4798387,0,0,2.4798387,112.39639,309.0706)" d="M49 53.62V54.25C49 54.68 49.27 55.05 49.67 55.19 49.829999 55.25 50 55.309999 50.199998 55.399999 49.44 56.41 48.26 57 47 57 45.74 57 44.56 56.41 43.8 55.4 44 55.31 44.17 55.25 44.329999 55.190004 44.73 55.050004 44.999998 54.680006 44.999998 54.250005V53.620004C44.999998 53.24 44.789999 52.890005 44.449998 52.72L43.76 52.38C42.07 51.54 41 49.8 41 47.91V44C42.92 44 44.76 43.24 46.12 41.88L47 41C48.25 42.87 50.35 44 52.61 44H53V47.91C53 49.8 51.93 51.54 50.24 52.38L49.550004 52.72C49.21 52.89 49 53.24 49 53.62Z" fill="#f0d0b4"/>
<path transform="matrix(2.4798387,0,0,2.4798387,112.39639,309.0706)" d="M55 12C56.1 12 57 12.9 57 14 57 14.55 56.78 15.05 56.41 15.41 56.05 15.78 55.55 16 55 16H53C53 15.97 53 15.94 53 15.91V12H55Z" fill="#f0d0b4"/>
<path transform="matrix(2.4798387,0,0,2.4798387,112.39639,309.0706)" d="M53 12V15.91C53 15.94 53 15.97 53 16 52.97 17.86 51.9 19.55 50.24 20.380002L49.550004 20.720002C49.210004 20.890002 49.000005 21.240002 49.000005 21.62V23C49.000005 23.55 48.780004 24.05 48.410005 24.41 48.05 24.78 47.55 25 47 25 45.9 25 45 24.1 45 23V21.62C45 21.240002 44.79 20.890002 44.45 20.720002L43.760004 20.380002C42.1 19.55 41.03 17.86 41 16 41 15.97 41 15.94 41 15.91V12 11.79C41 10.8 41.8 10 42.79 10H43L43.51 8.99C43.81 8.38 44.43 8 45.11 8 45.670003 8 46.2 8.27 46.54 8.72L46.6 8.8C48.11 10.81 50.48 12 53 12Z" fill="#f0d0b4"/>
<path transform="matrix(2.4798387,0,0,2.4798387,112.39639,309.0706)" d="M41 15.91C41 15.94 41 15.97 41 16H39C37.9 16 37 15.1 37 14 37 13.45 37.22 12.95 37.59 12.59 37.95 12.22 38.45 12 39 12H41V15.91Z" fill="#f0d0b4"/>
<path transform="matrix(2.4798387,0,0,2.4798387,112.39639,309.0706)" d="M23.89 12.21C24.55 12.54 25 13.22 25 14 25 14.55 24.78 15.05 24.41 15.41 24.05 15.78 23.55 16 23 16H21C21 15.97 21 15.94 21 15.91V12H23C23.32 12 23.62 12.07 23.89 12.21Z" fill="#f0d0b4"/>
<path transform="matrix(2.4798387,0,0,2.4798387,112.39639,309.0706)" d="M21 12V15.91C21 15.94 21 15.97 21 16 20.97 17.86 19.9 19.55 18.24 20.380002L17.55 20.720002C17.21 20.890002 17 21.240002 17 21.62V23C17 23.55 16.78 24.05 16.41 24.41 16.05 24.78 15.55 25 15 25 13.9 25 13 24.1 13 23V21.62C13 21.240002 12.79 20.890002 12.45 20.720002L11.76 20.380002C10.1 19.55 9.03 17.86 9 16 9 15.97 9 15.94 9 15.91V12 11.79C9 10.8 9.8 10 10.79 10H11L11.51 8.99C11.81 8.38 12.43 8 13.11 8 13.67 8 14.2 8.27 14.54 8.72L14.6 8.8C16.11 10.81 18.48 12 21 12Z" fill="#f0d0b4"/>
<path transform="matrix(2.4798387,0,0,2.4798387,112.39639,309.0706)" d="M9 15.91C9 15.94 9 15.97 9 16H7C5.9 16 5 15.1 5 14 5 13.45 5.22 12.95 5.59 12.59 5.69 12.49 5.8 12.400001 5.9100005 12.32 6.23 12.12 6.6 12 7 12H9V15.91Z" fill="#f0d0b4"/>
<path transform="matrix(2.4798387,0,0,2.4798387,112.39639,309.0706)" d="M43 31C43 31.393015 42.98074 31.785084 42.94222 32.176206 42.903696 32.56733 42.846097 32.95562 42.76942 33.341085 42.69275 33.726549 42.597368 34.107324 42.48328 34.483415 42.369195 34.859506 42.236955 35.2291 42.08655 35.592199 41.93615 35.955297 41.76832 36.31015 41.583055 36.656759 41.397787 37.003366 41.195978 37.340059 40.977628 37.666837 40.759286 37.993619 40.525449 38.30891 40.276124 38.612718 40.0268 38.916524 39.763185 39.207376 39.48528 39.48528 39.207376 39.763185 38.916524 40.0268 38.612718 40.276124 38.30891 40.525449 37.993619 40.759286 37.666837 40.977628 37.340059 41.195978 37.003366 41.39778 36.656755 41.58305 36.310148 41.76832 35.955297 41.93615 35.592199 42.08655 35.2291 42.236955 34.859506 42.369199 34.483415 42.483285 34.107324 42.59737 33.726549 42.69275 33.341085 42.76942 32.95562 42.846097 32.56733 42.903696 32.176206 42.94222 31.785084 42.98074 31.393015 43 31 43 30.606986 43 30.214917 42.98074 29.823794 42.94222 29.432673 42.903696 29.04438 42.846097 28.658915 42.76942 28.273453 42.69275 27.892676 42.597368 27.516583 42.48328 27.14049 42.369195 26.770895 42.236955 26.407797 42.08655 26.0447 41.93615 25.689846 41.76832 25.343237 41.583055 24.996628 41.397787 24.659935 41.195978 24.333155 40.977628 24.006377 40.759286 23.691084 40.525449 23.38728 40.276124 23.083476 40.0268 22.792622 39.763185 22.514718 39.48528 22.236815 39.207376 21.9732 38.916524 21.723874 38.612718 21.474547 38.30891 21.24071 37.993619 21.022362 37.666837 20.804017 37.340059 20.60221 37.003366 20.416943 36.656755 20.231677 36.310148 20.06384 35.955297 19.91344 35.592199 19.763043 35.2291 19.6308 34.859506 19.516715 34.483415 19.402628 34.107324 19.307248 33.726549 19.230574 33.341085 19.153903 32.95562 19.096306 32.56733 19.057784 32.176206 19.01926 31.785084 19 31.393015 19 31 19 30.606986 19.01926 30.214917 19.057784 29.823794 19.096306 29.432673 19.153903 29.04438 19.230574 28.658915 19.307248 28.273453 19.402628 27.892676 19.516715 27.516583 19.6308 27.14049 19.763043 26.770895 19.91344 26.407797 20.06384 26.0447 20.231677 25.689846 20.416943 25.343237 20.60221 24.996628 20.804017 24.659935 21.022362 24.333155 21.24071 24.006377 21.474547 23.691084 21.723874 23.38728 21.9732 23.083476 22.236815 22.792622 22.514718 22.514718 22.792622 22.236815 23.083476 21.9732 23.387278 21.723874 23.691084 21.474547 24.006377 21.24071 24.333153 21.022362 24.659934 20.804017 24.996628 20.60221 25.343237 20.416943 25.689846 20.231677 26.044699 20.063843 26.407795 19.913443 26.770895 19.763045 27.14049 19.630803 27.516583 19.516716 27.892676 19.402628 28.273453 19.30725 28.658915 19.230576 29.04438 19.153903 29.432673 19.096306 29.823794 19.057784 30.214917 19.01926 30.606986 19 31 19 31.393015 19 31.785084 19.01926 32.176206 19.057784 32.56733 19.096306 32.95562 19.153903 33.341085 19.230576 33.726549 19.30725 34.107324 19.402628 34.483415 19.516716 34.859506 19.630803 35.2291 19.763045 35.592199 19.913443 35.955297 20.063843 36.31015 20.231677 36.656759 20.416943 37.003366 20.60221 37.340059 20.804017 37.666837 21.022362 37.993619 21.24071 38.30891 21.474547 38.612718 21.723874 38.916524 21.9732 39.207376 22.236815 39.48528 22.514718 39.763185 22.792622 40.0268 23.083476 40.276124 23.387278 40.525449 23.691084 40.759286 24.006377 40.977628 24.333153 41.195978 24.659934 41.39778 24.996628 41.58305 25.343237 41.76832 25.689846 41.93615 26.044699 42.08655 26.407795 42.236955 26.770895 42.369199 27.14049 42.483285 27.516583 42.59737 27.892676 42.69275 28.273453 42.76942 28.658915 42.846097 29.04438 42.903696 29.432673 42.94222 29.823794 42.98074 30.214917 43 30.606986 43 31Z" fill="#69d6f4"/>
<path transform="matrix(2.4798387,0,0,2.4798387,112.39639,309.0706)" d="M41.44 25.06C42.12 26.26 42.6 27.59 42.829999 29 42.94 29.65 42.999998 30.32 42.999998 31 42.999998 32.04 42.869997 33.05 42.619997 34.01 42.349996 35.079999 41.929998 36.079999 41.389997 37.01L41.38 37H38.73C37.71 37 36.829999 36.31 36.579999 35.32L36.3 34.22C36.12 33.460004 36.34 32.66 36.89 32.11L37.35 31.650002C37.769998 31.230002 38 30.670002 38 30.080002V28.360003C38 28.120003 38.04 27.880003 38.11 27.660002L39.74 22.79 39.75 22.78C40.4 23.47 40.96 24.23 41.44 25.06Z" fill="#b4dd7f"/>
<path transform="matrix(2.4798387,0,0,2.4798387,112.39639,309.0706)" d="M27.7 40.18 27.16 42.36V42.37C26.38 42.11 25.63 41.77 24.93 41.36 22.8 40.100004 21.08 38.21 20.060002 35.940004L20.070002 35.930006 22.11 33.890005C22.66 33.340005 23.460001 33.120004 24.220002 33.300004L26.37 33.840005C26.78 33.950006 27.210001 33.930006 27.61 33.800004L28.970002 33.340005C29.62 33.130006 30.330002 33.220006 30.900002 33.600004L31.150002 33.77C32.170003 34.45 32.45 35.83 31.770003 36.85L31.420002 37.37C31.150002 37.78 30.750002 38.079999 30.280003 38.239999L29.160002 38.609998C28.44 38.85 27.89 39.45 27.7 40.18Z" fill="#b4dd7f"/>
<path transform="matrix(2.4798387,0,0,2.4798387,112.39639,309.0706)" d="M20.57 25.06C21.97 22.609999 24.21 20.689999 26.91 19.72V19.73L30.39 22.51C30.789999 22.83 31.269999 23 31.779999 23 33.01 23 34 23.99 34 25.22V25.269999C34 26.289999 33.31 27.169999 32.32 27.419999L30.6 27.849999C30.210001 27.949999 29.85 28.149998 29.57 28.429999L28.65 29.349999C28.23 29.77 27.67 30 27.08 30H26.73C25.71 30 24.83 29.31 24.58 28.32L24.42 27.68C24.17 26.69 23.29 26 22.27 26H20.1L20.09 25.99C20.23 25.67 20.39 25.36 20.57 25.06Z" fill="#b4dd7f"/>
<path transform="matrix(2.4798387,0,0,2.4798387,112.39639,309.0706)" d="M62 27V11C62 9.346 60.654 8 59 8H57.574C56.263 3.39 52.024 0 47 0 41.976 0 37.737 3.39 36.426 8H35C33.346 8 32 9.346 32 11V18.051C31.669 18.025 31.338 18 31 18 30.662 18 30.331 18.025 30 18.051V11C30 9.346 28.654 8 27 8H25.983C25.806 3.56 22.149 0 17.667 0H13.162C11.021 0 9.108999 1.258 8.247 3.181 6.079 3.92 4.512 5.777 4.109 8H3C1.346 8 0 9.346 0 11V27C0 28.654 1.346 30 3 30H18.050999C18.025 30.331 18 30.662 18 31 18 31.344 18.025 31.682 18.052 32.02 17.923 32.014 17.796 32 17.667 32H12.333C7.8510005 32 4.1940004 35.56 4.017 40H3C1.346 40 0 41.346 0 43V59C0 60.654 1.346 62 3 62H27C28.654 62 30 60.654 30 59V43.949C30.331 43.975 30.662 44 31 44 31.338 44 31.669 43.975 32 43.949V59C32 60.654 33.346 62 35 62H59C60.654 62 62 60.654 62 59V43C62 41.346 60.654 40 59 40H57.574C56.264 35.39 52.025 32 47 32 45.939 32 44.909 32.164 43.913003 32.456 43.967 31.978 44 31.493 44 31 44 30.662 43.975 30.331 43.949 30H59C60.654 30 62 28.654 62 27ZM59 10C59.552 10 60 10.448 60 11V27C60 27.552 59.552 28 59 28H58V11C58 10.662 57.979 10.33 57.949 10H59ZM49.789 19.487 49.106004 19.828999C48.424 20.169 48 20.854 48 21.618V23C48 23.552 47.552 24 47 24 46.448 24 46 23.552 46 23V21.618C46 20.854 45.576 20.169 44.895 19.829L44.211 19.487C42.847 18.806 42 17.435 42 15.91V11.789C42 11.354 42.354 11 42.789 11H43.618L44.4 9.436C44.645 8.947 45.41 8.881 45.735 9.313L45.8 9.399C47.288999 11.385 49.555 12.667 52 12.943001V15.910001C52 17.435 51.153 18.806 49.789 19.487ZM40.786 36H38.735C38.173 36 37.686 35.62 37.549 35.075L37.276 33.978C37.172 33.563 37.296 33.119 37.597 32.817L38.057 32.357004C38.656999 31.757002 39 30.927002 39 30.080002V28.360003C39 28.228003 39.021 28.099003 39.063 27.974003L40.107999 24.838004C41.301 26.598 42 28.719 42 31 42 32.801 41.556 34.498 40.786 36ZM38 20.063V16.816C38.314 16.928 38.648 17 39 17H40.11C40.445 18.835 41.603 20.42 43.316 21.276001L44 21.618V22.251C43.38 22.467999 42.487 22.869 41.626 23.535 40.654 22.156 39.422 20.977 38 20.063ZM40 15H39C38.448 15 38 14.552 38 14 38 13.448 38.448 13 39 13H40V15ZM50 21.618 50.684 21.276001C52.397 20.42 53.554998 18.834002 53.89 17H55C55.352 17 55.686 16.928 56 16.816V28H54.929C54.492 24.624 51.893 22.880002 50 22.237999V21.618ZM54 13H55C55.552 13 56 13.448 56 14 56 14.552 55.552 15 55 15H54V13ZM47 2C51.963 2 56 6.037 56 11V11.184C55.686 11.072 55.352 11 55 11H54 53C50.808 11 48.715 9.953 47.401 8.203L47.338 8.116C46.814 7.417 45.979 7 45.105 7 44.042 7 43.085 7.591 42.611 8.542L42.366 9.032C41.293 9.196 40.429 9.978 40.125 11H39C38.648 11 38.314 11.072 38 11.184V11C38 6.037 42.037 2 47 2ZM34 11C34 10.448 34.448 10 35 10H36.051C36.021 10.33 36 10.662 36 11V19.003C35.359 18.735 34.688 18.527 34 18.363V11ZM26.733 39.94 26.466 41.01C24.246 40 22.417 38.28 21.279 36.134L22.817 34.596C23.119 34.294004 23.562 34.173 23.977 34.274003L26.129 34.812C26.723999 34.96 27.345 34.939 27.928999 34.744L29.285 34.292C29.639 34.174 30.037 34.228 30.348999 34.437L30.595999 34.6C31.155999 34.973 31.307999 35.732999 30.932999 36.294L30.588999 36.812C30.439 37.037 30.214999 37.208 29.96 37.292L28.838 37.666C27.79 38.016 27.003 38.866 26.733 39.94ZM22 45H23C23.552 45 24 45.448 24 46 24 46.552 23.552 47 23 47H22V45ZM26.728 20.864 29.767 23.295C30.337 23.75 31.051 24 31.779 24 32.452 24 33 24.548 33 25.266 33 25.828001 32.62 26.315 32.075 26.452002L30.354 26.882002C29.788 27.023003 29.27 27.316002 28.858 27.729002L27.942999 28.644003C27.716 28.87 27.401 29 27.08 29H26.734C26.171999 29 25.685 28.62 25.549 28.075L25.39 27.44C25.032 26.004 23.747 25 22.266 25H21.793002C22.985 23.176 24.699 21.722 26.728 20.864ZM28 11V18.362999C24.868 19.106999 22.174 20.98 20.374 23.535 19.513 22.869 18.62 22.468 18 22.251V21.618L18.684 21.276001C20.397 20.42 21.555 18.834002 21.89 17H23C24.654 17 26 15.654 26 14 26 13.199 25.68 12.474 25.166 11.934999 25.463002 11.318 25.675002 10.669 25.812 9.999999H27C27.552 10 28 10.448 28 11ZM17.789 19.487 17.105999 19.828999C16.424 20.169 16 20.854 16 21.618L16.002 23H16C16 23.552 15.552 24 15 24 14.448 24 14 23.552 14 23V21.618C14 20.854 13.576 20.169 12.895 19.829L12.211 19.487C10.847 18.806 10 17.435 10 15.91V11.789C10 11.354 10.354 11 10.789 11H11.618L12.4 9.436C12.6449999 8.947 13.408999 8.881 13.735 9.313L13.8 9.399C15.2890009 11.385 17.555 12.667 20 12.943001V15.910001C20 17.435 19.153 18.806 17.789 19.487ZM22 13H23C23.552 13 24 13.448 24 14 24 14.552 23.552 15 23 15H22V13ZM6 9.123C6 7.155 7.333 5.447 9.242 4.9700005L9.775 4.8370006 9.948 4.3160006C10.411 2.931 11.702 2 13.162 2H17.667C21.159 2 24 4.841 24 8.333 24 9.274 23.783 10.194 23.383 11.039 23.257 11.022 23.131 11 23 11H22 21C18.808 11 16.715 9.953 15.401 8.203L15.338 8.116C14.814 7.417 13.979 7 13.105 7 12.042 7 11.084999 7.591 10.611 8.542L10.366 9.032C9.293 9.196 8.429 9.978 8.125 11H7C6.782 11 6.57 11.026 6.365 11.071 6.13 10.533 6 9.955 6 9.359V9.123ZM8 15H7C6.448 15 6 14.552 6 14 6 13.448 6.448 13 7 13H8V15ZM2 27V11C2 10.448 2.448 10 3 10H4.048C4.124 10.749 4.324 11.475 4.659 12.148 4.253 12.66 4 13.298 4 14 4 15.654 5.3459999 17 7 17H8.11C8.445 18.835 9.603 20.42 11.316 21.276001L12 21.618V22.238C10.106 22.88 7.508 24.624 7.071 28H3C2.448 28 2 27.552 2 27ZM9.097 28C9.504 25.77 11.212 24.72 12.295 24.275 12.776 25.291 13.803 26 15 26 16.194 26 17.219 25.294 17.702 24.281 18.184 24.481 18.786999 24.791 19.348999 25.271 18.924 26.132 18.591 27.045 18.363999 28H9.097ZM12.333 34H17.667C17.904 34 18.14 34.015 18.374 34.041 19.153 37.271 21.130002 40.038003 23.82 41.827 23.719 42.245 23.574999 42.65 23.39 43.039 23.261 43.022 23.134 43 23 43H22V41H21C19.992 41 19.006 40.592 18.293 39.879L17 38.586 15.113 40.473C13.766 41.82 12.049 42.658 10.187 42.911 10.608 41.486 11.741 40.346 13.242001 39.97L12.758 38.031003C10.328 38.638 8.538 40.606004 8.1050009 43.001005H7C6.869 43.001005 6.744 43.023004 6.617 43.040006 6.217 42.195 6 41.275 6 40.333 6 36.841 8.841 34 12.333 34ZM12.576 56.166 15 59.803 17.427 56.162004C18.465 56.526 20.463 57.544004 20.904 60.000005H9.097C9.542 57.564 11.539 56.537 12.576 56.166ZM17.789 51.487 17.105999 51.829C16.424 52.169 16 52.854 16 53.618V54.697L15 56.197 14 54.697V53.618C14 52.854 13.576 52.169 12.895 51.829L12.211 51.487C10.847 50.806 10 49.435 10 47.91V44.952C12.466 44.725999 14.755 43.66 16.527 41.887L17.002 41.412004C17.831002 42.193 18.884 42.715005 20 42.912004V47.910005C20 49.435 19.153 50.806 17.789 51.487ZM8 47H7C6.448 47 6 46.552 6 46 6 45.448 6.448 45 7 45H8V47ZM2 59V43C2 42.448 2.448 42 3 42H4.1879999C4.325 42.669 4.5369999 43.318 4.8329999 43.935 4.32 44.474 4 45.199 4 46 4 47.654 5.3459999 49 7 49H8.11C8.445 50.835 9.603 52.42 11.316 53.276L12 53.618V54.238C10.106 54.88 7.508 56.624 7.071 60H3C2.448 60 2 59.552 2 59ZM28 59C28 59.552 27.552 60 27 60H22.929C22.492 56.624 19.893002 54.88 18 54.238V53.618L18.684 53.276C20.397 52.420003 21.555 50.834 21.89 49H23C24.654 49 26 47.654 26 46 26 45.204 25.683 44.484 25.175 43.946 25.351 43.580999 25.491 43.201 25.611 42.815999 26.371 43.163999 27.17 43.44 28 43.636999V59ZM28.364 41.667 28.674 40.425C28.777 40.017999 29.074999 39.695 29.472 39.563L30.594 39.189C31.269 38.964 31.859 38.514 32.256 37.919L32.600004 37.400999C33.078004 36.684999 33.247 35.826997 33.079004 34.982999 32.911005 34.138998 32.424005 33.412 31.706004 32.932L31.459004 32.769C30.640004 32.223 29.593005 32.081 28.654004 32.394L27.300004 32.845C27.078003 32.919004 26.843003 32.928 26.616003 32.871004L24.462004 32.332C23.372004 32.061 22.200005 32.386 21.404004 33.181L20.460003 34.125C20.164 33.135 20 32.087 20 31 20 29.588 20.277 28.242 20.764 27H22.266C22.828001 27 23.315 27.38 23.451 27.925L23.61 28.56C23.968 29.997 25.254002 31 26.735 31H27.081002C27.929 31 28.759 30.656 29.358002 30.057L30.273003 29.141999C30.429003 28.985999 30.626004 28.873999 30.839003 28.821L32.56 28.390999C33.997 28.032999 35 26.746998 35 25.220999 35 23.444 33.556 22 31.779 22 31.502999 22 31.230999 21.905 31.015999 21.732L29.074999 20.179C29.702 20.068 30.343 20 31 20 33.945 20 36.617 21.17 38.593 23.06L37.166 27.34C37.056 27.668 37 28.012 37 28.36V30.08C37 30.401 36.87 30.716 36.643 30.943L36.183004 31.403C35.388006 32.197999 35.063005 33.37 35.335004 34.461999L35.609 35.559999C35.967004 36.996999 37.253004 37.999998 38.734 37.999998H39.478C37.459 40.440996 34.408 41.999998 30.999 41.999998 30.09 42 29.21 41.877 28.364 41.667ZM34 59V43.637C34.688 43.474004 35.359 43.266004 36 42.997 36 42.998 36 42.999 36 43V51C36 53.763 37.594 56.174 40.001 57.31 39.544 58.042 39.202 58.929 39.068 60H35C34.448 60 34 59.552 34 59ZM49.106 51.829C48.424 52.169 48 52.854 48 53.618V54.252C48 54.752 48.203 55.207 48.52 55.565 48.062 55.836 47.543 56 47 56 46.457 56 45.938 55.836 45.48 55.565 45.797 55.206998 46 54.752 46 54.252V53.618C46 52.854 45.576 52.169 44.895 51.829L44.211 51.487C42.847 50.806 42 49.435 42 47.91V44.94C43.822999 44.720998 45.51 43.904 46.828 42.586L46.912 42.503C48.229 43.936998 50.042 44.823999 52 44.976999V47.910997C52 49.434995 51.153 50.806997 49.789 51.487997L49.106 51.829ZM43.574 56.629C44.495 57.495 45.722 58 47 58 48.278 58 49.506 57.495 50.426 56.629 51.479 57.219 52.592 58.247 52.906 60H41.093C41.408 58.247 42.521 57.219 43.574 56.629ZM59 42C59.552 42 60 42.448 60 43V59C60 59.552 59.552 60 59 60H54.932C54.798 58.929 54.454999 58.042 53.999 57.31 56.407 56.174 58 53.763 58 51V43C58 42.662 57.979 42.33 57.949 42H59ZM47 34C51.963 34 56 38.037 56 43V51C56 53.171 54.624 55.035 52.61 55.717 51.662 54.923 50.646 54.476999 50 54.252V53.618L50.684 53.276C52.729 52.254 54 50.197 54 47.91V43H52.605C50.682 43 48.898 42.045 47.832 40.445L47.155 39.43 45.413999 41.171C44.235 42.351 42.667 43 41 43H40V47.91C40 50.197 41.271 52.253999 43.316 53.276L44 53.618 44.003 54.25C43.355 54.476 42.337999 54.923 41.39 55.717 39.375 55.035 38 53.171 38 51V43C38 42.629 38.031 42.258 38.076 41.891 40.62 40.232 42.55 37.712999 43.445 34.744 44.568 34.259 45.759 34 47 34ZM42.652 25.271C43.215 24.791 43.817 24.480999 44.299 24.281 44.781 25.294 45.806 26 47 26 48.199 26 49.228 25.288 49.708 24.269001 50.793 24.708 52.5 25.751002 52.904 28H43.637C43.41 27.045 43.077 26.132 42.652 25.271Z"/>
</g>
<g clip-path="url(#clip_86)">
<text xml:space="preserve" transform="matrix(.75 0 0 .75 44.392084 139.20423)" font-size="18.48" font-family="Lora" font-style="italic"><tspan y="20" x="27.03125 39.054738 49.138986 59.130884 65.484439 76.10428 81.33122 89.60553 99.59743 108.70282 115.056369 125.546939 131.14325 136.3702 142.72374 154.45172 161.54404 170.72332 179.49628 189.98685 199.09224 206.18454 212.53809 222.52999 234.25797 239.48491 249.97548 261.70347 272.3233 277.55024 288.1701 298.16203 309.89 313.93498 321.02729 326.25425 337.18809 347.67866 357.7629">Avoid social interaction and don't have</tspan></text>
<text xml:space="preserve" transform="matrix(.75 0 0 .75 44.392084 139.20423)" font-size="18.48" font-family="Lora" font-style="italic"><tspan y="49" x="14.296875 20.668889 29.441857 35.795404 44.97468 56.702669 67.32251 75.59682 80.82376 90.81566 99.58862 104.81557 111.18758 121.67815 138.2265 144.58005 150.17636 160.03899 165.26593 172.35823 182.35013 187.57707 195.85138 207.17304 218.08838 229.00373 238.99562 247.76859 254.86089 260.08784 269.95045 279.94236 291.264 295.91844 301.1454 313.05805 322.23735 328.60935 339.931 348.20533 357.3846 362.61158 369.7039">friends or family to support you. Refuse to</tspan></text>
<text xml:space="preserve" transform="matrix(.75 0 0 .75 44.392084 139.20423)" font-size="18.48" font-family="Lora" font-style="italic"><tspan y="78" x="12.3125 21.49178 33.219766 43.156259 53.64683 63.58333 72.7626 77.98955 84.343097 96.071079 101.29802 110.40341 120.39531 132.12329 142.20755 151.38683 160.15979 168.4341 178.92467 186.01697 192.37052 202.36241 214.0904 219.31734 234.48052 240.83406 247.92636 258.86018 264.0871 274.079 281.17134 292.10517 301.28446 310.05744 318.33177 323.55873 332.738 342.82228 352.00157 363.72956 368.9565 375.31007">engage in conversation with others even if</tspan></text>
<text xml:space="preserve" transform="matrix(.75 0 0 .75 44.392084 139.20423)" font-size="18.48" font-family="Lora" font-style="italic"><tspan y="107" x="46.875 53.22855 60.320856 64.310398 69.90671 75.50302 80.729969 86.32628 92.679828 102.65326 111.832538 117.42885 127.29147 132.51842 142.32564 151.0986 157.45215 169.18013 179.11663 184.34357 194.33547 205.65712 212.74942 217.97637 227.83899 237.83089 249.15254 257.9255 263.15248 269.52449 275.1208 285.61137 300.77455 309.04887 314.27583 324.7664 336.4944">it&#x2019;ll likely bring out your flaws and</tspan></text>
<text xml:space="preserve" transform="matrix(.75 0 0 .75 44.392084 139.20423)" font-size="18.48" font-family="Lora" font-style="italic"><tspan y="136" x="16.6875 24.961812 35.895639 45.887537 54.660505 61.752809 70.8582 80.8501 97.39846 103.75201 115.47999 125.41648 133.6908 138.91774 147.19205 153.5456 165.27358 174.37897 183.55825 188.78519 197.96446 208.0487 217.22798 228.95597 234.1829 241.2752 252.20903 262.6996 269.79188 275.01884 291.5672 297.92076 307.85725 318.79109 325.8834 331.11036 347.65873 358.1493 368.12275">shortcomings since even that might make</tspan></text>
<text xml:space="preserve" transform="matrix(.75 0 0 .75 44.392084 139.20423)" font-size="18.48" font-family="Lora" font-style="italic"><tspan y="165" x="130.51563 140.37825 150.37015 161.6918 166.91875 173.29076 182.47003 191.6493 197.24562 202.47257 212.27979 221.45906 228.55136 235.64366 244.82294 253.5959">you feel better.</tspan></text>
<text xml:space="preserve" transform="matrix(.75 0 0 .75 44.392084 139.20423)" font-size="18.48" font-family="Lora" font-style="italic"><tspan y="165" x="258.25"> </tspan></text>
<text xml:space="preserve" transform="matrix(.75 0 0 .75 44.392084 139.20423)" font-size="18.48" font-family="Lora"><tspan y="194" x="196.98438"> </tspan></text>
<text fill="#515151" xml:space="preserve" transform="matrix(.26666669 0 0 .26666669 42.35302 77.34017)" font-size="41.27" font-family="Lora" font-style="italic"><tspan y="47" x="407.23439 440.90803 478.17179 509.5758 539.5768 571.18716 602.09597 633.2524 649.47067 668.5775">CHAPTER IX</tspan></text>
<text xml:space="preserve" transform="matrix(.26666669 0 0 .26666669 133.80834 567.861)" font-size="29.47" font-family="Lora" font-style="italic"><tspan y="33" x="158.70313 169.72467 186.63997 194.97986 210.92269 221.08963 229.42952 240.45107">16 of 19</tspan></text>
<text fill="#515151" xml:space="preserve" transform="matrix(.26666669 0 0 .26666669 43.624925 98.129459)" font-size="70.75" font-family="Lora"><tspan y="80" x="302.70314 359.44499 410.52684 441.86946 478.30604 523.79867 577.9227 609.9021 659.1445 699.2601 750.3419">Be Isolated</tspan></text>
<g opacity=".3765">
<g clip-path="url(#clip_87)">
<text fill="#dd00ae" xml:space="preserve" transform="matrix(2.528427 0 0 2.528427 96.99518 278.71669)" font-size="101.85" font-family="Noot"><tspan y="85" x="0">X</tspan></text>
<path transform="matrix(2.528427,0,0,2.528427,88.72166,273.1361)" stroke-width="2.037154" stroke-linecap="butt" stroke-miterlimit="4" stroke-linejoin="miter" fill="none" stroke="#ffe865" d="M30.385912 84.701618 10.145215 72.51741 9.896558 69.68272C10.924341 67.593997 12.15105 65.24833 13.576684 62.645715 15.002319 60.043104 16.552283 57.291299 18.226574 54.390298 19.900866 51.489297 21.633179 48.530275 23.42351 45.513235 20.936938 42.16465 18.59956 38.990125 16.411377 35.989664 14.223193 32.989198 12.291956 30.320277 10.617663 27.982899 8.943371 25.645522 7.6337769 23.813748 6.6888797 22.487576 5.743982 21.161402 5.271533 20.498314 5.271533 20.498314L6.813208 18.4096C6.813208 18.4096 7.235925 18.078057 8.08136 17.41497 8.926794 16.751885 10.194946 15.906448 11.885816 14.878662 13.576685 13.850881 15.665405 12.789945 18.151978 11.695854 18.218287 11.662697 18.624426 12.135144 19.370398 13.113197 20.11637 14.09125 21.127575 15.450577 22.404017 17.191178 23.680457 18.931778 25.155823 20.962477 26.830115 23.283276 28.504406 25.604077 30.303027 28.107226 32.225976 30.792725 34.911474 26.416359 37.282007 22.63677 39.337575 19.453957 41.39314 16.271147 43.00941 13.817729 44.18639 12.093704 45.363367 10.369679 45.951856 9.507668 45.951856 9.507668L48.48816 10.154175C48.48816 10.154175 48.844568 10.361389 49.557386 10.775818 50.270204 11.190247 51.231676 11.753871 52.441808 12.46669 53.65194 13.179504 54.9864 14.000073 56.44519 14.928398 57.90398 15.856717 59.395925 16.834769 60.92102 17.862549 62.446119 18.890336 63.896619 19.926407 65.27252 20.970765 66.64842 22.015124 67.83369 23.001465 68.828319 23.929787 68.89462 23.962943 68.58795 24.534853 67.90829 25.64552 67.22862 26.75619 66.26715 28.272999 65.023868 30.19595 63.78058 32.118898 62.33008 34.37339 60.672365 36.959424 59.01465 39.54546 57.224317 42.347 55.301366 45.36404 53.378419 48.38108 51.38916 51.51416 49.33359 54.763284 50.726076 56.719388 52.14342 58.72522 53.585634 60.780786 55.027845 62.836355 56.412038 64.80904 57.73821 66.69883 59.06438 68.58862 60.241357 70.279499 61.26914 71.77144 62.29692 73.26338 63.117494 74.44865 63.730848 75.32723 64.3442 76.205829 64.65088 76.64512 64.65088 76.64512L54.853784 83.90591 52.118555 83.06047C51.52178 82.364238 50.742654 81.402759 49.781179 80.17605 48.819704 78.94934 47.791917 77.614879 46.697828 76.17267 45.603738 74.73046 44.534509 73.31311 43.490148 71.92063 42.445787 70.52815 41.525758 69.334598 40.730054 68.339969 38.77395 71.456478 37.008485 74.24972 35.433656 76.71971 33.858827 79.189708 32.62383 81.13752 31.728663 82.563159 30.833497 83.98879 30.385912 84.701618 30.385912 84.701618Z"/>
<text fill-opacity="0" xml:space="preserve" transform="matrix(2.528427 0 0 2.528427 88.72166 273.1361)" font-size="101.85" font-family="Noot"><tspan y="85" x="0">X</tspan></text>
</g>
</g>
</g>
</g>
</svg>
