<svg xmlns="http://www.w3.org/2000/svg" xmlns:xlink="http://www.w3.org/1999/xlink" version="1.1" width="384pt" height="600pt" viewBox="0 0 384 600">
<defs>
<clipPath id="clip_17">
<path transform="matrix(.24,0,0,.24,0,0)" d="M0 .00048828127H1600V2500.0006H0Z" fill-rule="evenodd"/>
</clipPath>
<clipPath id="clip_18">
<path transform="matrix(.24,0,0,.24,0,0)" d="M0 .00048828127H1600V2500.0006H0Z" fill-rule="evenodd"/>
</clipPath>
<clipPath id="clip_19">
<path transform="matrix(.24,0,0,.24,0,0)" d="M0 .00048828127H1600V2500.0006H0Z" fill-rule="evenodd"/>
</clipPath>
</defs>
<g clip-path="url(#clip_17)">
<path transform="matrix(.75,0,0,.75,0,-1822.4999)" d="M0 2430H512V3230H0Z" fill="#ffffff"/>
</g>
<g clip-path="url(#clip_18)">
<path transform="matrix(.75,0,0,.75,0,.0001171875)" d="M0 0H512V800H0Z" fill="#ffffff"/>
</g>
<g clip-path="url(#clip_19)">
<text xml:space="preserve" transform="matrix(.6873167 0 0 .6873167 16.218752 100.42652)" font-size="25" font-family="Lora" font-style="italic"><tspan y="24" x="35.34375 51.618814 58.693849 69.89389 78.493938 100.89403 115.66909 123.244129 135.66919 142.74423 162.0693 175.59436 189.11942 202.56946 210.14449 222.56954 229.64456 240.8446 253.26966 267.46974 279.3448 291.66984 306.46989 313.54493 322.16996 335.695 347.57008 354.6451 364.84516 379.6452 393.17027 413.69535 420.7704 430.37043 443.89549 450.97053 464.24559">A simple Google search for &#x201c;how to be</tspan></text>
<text xml:space="preserve" transform="matrix(.6873167 0 0 .6873167 16.218752 100.42652)" font-size="25" font-family="Lora" font-style="italic"><tspan y="54" x="16.40625 31.206305 45.40637 60.181428 74.95649 88.30655 98.10659 105.181629 119.95669 131.83174 145.3568 159.00685 167.60689 181.98194 194.40699 205.60703 212.68206 226.0321 239.55716 254.88222 261.95726 282.48234 291.08238 300.6824 315.48246 322.5575 335.83256 344.4326 352.00764 359.58268 368.1827 381.70777 397.58283 408.78288 415.8579 429.38298 438.008 445.08305 459.8831 468.48313 478.08317 489.2832">happy&#x201d; provides you with billions of hits.</tspan></text>
<text xml:space="preserve" transform="matrix(.6873167 0 0 .6873167 16.218752 100.42652)" font-size="25" font-family="Lora" font-style="italic"><tspan y="84" x="43.28125 59.25631 74.581378 84.18141 91.25645 100.85649 115.65655 124.25659 135.45664 142.53168 154.95673 168.23178 181.75684 195.28189 208.78194 215.85697 224.457 235.65705 242.73207 250.6571 265.98219 277.18223 286.78227 293.8573 303.45735 318.2574 330.68244 337.75749 351.28254 366.0576 380.83265 394.3577 405.55775 414.15779 423.7578 436.18287 443.4579 450.53294 459.13298">But this ebook is just the opposite; it</tspan></text>
<text xml:space="preserve" transform="matrix(.6873167 0 0 .6873167 16.218752 100.42652)" font-size="25" font-family="Lora" font-style="italic"><tspan y="114" x="4.09375 16.518805 30.643857 45.418916 52.99395 67.194019 75.79406 91.66913 102.86918 109.944217 124.74427 138.26934 158.7944 165.86943 175.46947 188.99452 196.06955 209.3446 221.76966 228.84468 244.16974 260.0448 274.84486 289.04493 303.81999 318.59504 331.9451 338.37013 345.44517 353.0202 367.22029 380.57035 389.17039 405.04545 418.49549 425.57054 439.09559 454.42066 464.0207 471.09574 480.69578 495.49583">explains how to be unhappy, laying out the</tspan></text>
<text xml:space="preserve" transform="matrix(.6873167 0 0 .6873167 16.218752 100.42652)" font-size="25" font-family="Lora" font-style="italic"><tspan y="144" x="29.484375 40.684427 50.28447 62.709524 77.48459 88.68464 95.759677 105.35972 118.88478 125.959819 138.38488 154.25995 165.45999 180.78505 192.6601 205.08515 212.16017 225.51023 239.03528 254.36034 261.43537 269.01039 277.6104 291.26048 303.68553 310.76057 324.96064 332.03569 339.61073 348.21076 356.8358 369.26084 376.33589 390.71095 403.136 416.78605 430.3111 438.91114 453.2862 460.36125 473.8863">steps to ensure you live a life devoid of</tspan></text>
<text xml:space="preserve" transform="matrix(.6873167 0 0 .6873167 16.218752 100.42652)" font-size="25" font-family="Lora" font-style="italic"><tspan y="174" x="1.9375 13.8125519 26.237607 37.437654 52.212717 65.73778 81.61285 92.8129 101.41294 114.688 123.28805 130.86309 139.46312 149.06316 162.41321 168.71323 175.78826 184.61328 194.21332 199.61334 210.81339 217.88842 229.08846 242.61351 249.68854 272.08863 287.4137 299.73875 314.5388 321.61384 334.03889 348.23896 359.439 368.03904 380.46409 392.33915 399.41419 409.01423 423.81428 438.01435 447.61439 454.68943 475.2145 489.41459 502.76466">responsibility. It&#x2019;s so much easier that way!</tspan></text>
<text xml:space="preserve" transform="matrix(.6873167 0 0 .6873167 16.218752 100.42652)" font-size="25" font-family="Lora" font-style="italic"><tspan y="234" x="22.171875 38.146936 53.472 63.07204 70.14708 78.972118 86.04715 100.247219 122.64731 129.72235 145.59741 159.12247 168.7225 175.79753 189.99759 202.32263 211.92267 220.5227 236.39777 249.84781 256.92286 271.12294 278.69798 288.298 300.17308 315.49815 324.09819 335.29823 344.89826 353.4983 365.82334 380.0234 387.59846 395.1735 408.52357 414.82359 421.89863 438.29869 453.09873 465.52378 477.39884">But I am not acting altruistically. There</tspan></text>
<text xml:space="preserve" transform="matrix(.6873167 0 0 .6873167 16.218752 100.42652)" font-size="25" font-family="Lora" font-style="italic"><tspan y="264" x="37.609376 51.80944 63.684495 76.10954 83.18458 105.58467 119.78474 135.6598 149.00986 156.0849 169.60996 179.20999 194.01004 206.43509 218.31014 229.51018 236.5852 257.1103 271.91035 285.4354 292.51045 306.8855 319.31056 334.0856 346.51066 362.3857 376.76078 383.83583 397.36088 413.23594 420.31098 433.66105 447.1861 462.51118">are many others who depend on your</tspan></text>
<text xml:space="preserve" transform="matrix(.6873167 0 0 .6873167 16.218752 100.42652)" font-size="25" font-family="Lora" font-style="italic"><tspan y="294" x="47.75 63.075067 78.950138 93.75018 107.95025 122.72531 137.50037 146.1004 161.97547 174.40052 185.60056 196.8006 203.87563">unhappiness -</tspan></text>
<text xml:space="preserve" transform="matrix(.6873167 0 0 .6873167 16.218752 100.42652)" font-size="25" font-family="Lora" font-style="italic"><tspan y="294" x="216.4375 223.51253">  </tspan></text>
<text xml:space="preserve" transform="matrix(.6873167 0 0 .6873167 16.218752 100.42652)" font-size="25" font-family="Lora" font-style="italic"><tspan y="294" x="230.57813 251.1032 264.62828 276.50334 284.07838 298.45344 305.52848 318.97853 332.50358 346.15364 358.57868 370.45375 386.3288 408.72889 421.15394 437.029 446.62904 457.82908">world governments,</tspan></text>
<text xml:space="preserve" transform="matrix(.6873167 0 0 .6873167 16.218752 100.42652)" font-size="25" font-family="Lora" font-style="italic"><tspan y="324" x="6.3125 19.83756 31.712613 45.16266 59.362726 75.23779 83.83784 96.112888 108.53794 122.912998 129.98804 141.8631 154.28815 161.86318 170.46321 183.91326 192.51329 206.03835 221.9134 228.33843 235.41345 244.03849 252.63852 268.5136 282.71369 298.58876 310.9138 319.51383 333.7139 341.28895 348.36399 360.68904 374.21409 386.08915 400.8642 414.38926 426.2643 440.4644 450.06443 458.66447 472.1895 488.06459 499.26463">organized religion, financial corporations,</tspan></text>
<text xml:space="preserve" transform="matrix(.6873167 0 0 .6873167 16.218752 100.42652)" font-size="25" font-family="Lora" font-style="italic"><tspan y="354" x="5.765625 15.365667 28.890728 35.96576 51.840829 66.04089 88.44099 100.86604 107.94108 122.14114 129.21619 137.84122 150.26627 170.79134 177.09136 184.16638 200.14144 208.74147 216.3165 223.89153 232.49156 246.01662 261.8917 273.09175 280.16679 293.69184 302.31687 309.3919 323.76698 337.29203 344.86708 352.4421 366.64219 378.51725 389.7173 396.79234 410.9924 422.86747 435.2925 442.36756 453.5676 468.34266 480.7677 496.64277">to name a few. Billions of dollars are spent</tspan></text>
<text xml:space="preserve" transform="matrix(.6873167 0 0 .6873167 16.218752 100.42652)" font-size="25" font-family="Lora" font-style="italic"><tspan y="384" x="3.546875 15.97193 29.62199 42.047044 53.922098 67.272159 74.34719 87.69725 100.12231 114.32237 126.197429 133.27246 146.79752 162.67258 169.7476 179.34764 194.14769 206.57274 213.64777 228.42282 240.29787 253.82292 268.19798 283.52305 295.84809 305.44813 314.04817 327.5732 343.44828 350.52333 364.04838 372.6734 379.74845 394.5485 408.74858 423.52363 438.29869 451.64875 458.7238 473.49885 482.09889 489.67393 497.24897">every year on the production of happy pills</tspan></text>
<text xml:space="preserve" transform="matrix(.6873167 0 0 .6873167 16.218752 100.42652)" font-size="25" font-family="Lora" font-style="italic"><tspan y="414" x="24.828125 39.02819 54.90326 69.278308 76.35334 85.953388 100.75344 113.1785 120.25353 131.45359 141.05362 152.92868 168.25374 180.57878 190.17882 205.50388 217.37892 225.97896 241.85402 255.30406 262.3791 275.90415 284.52919 291.60423 304.87928 320.20436 332.0794 344.50447 358.70454 374.0296 386.35466 398.2297 412.42979 424.75483 433.35487 445.7799 456.97996 464.055 473.65504">and the structuring of bureaucracies to</tspan></text>
<text xml:space="preserve" transform="matrix(.6873167 0 0 .6873167 16.218752 100.42652)" font-size="25" font-family="Lora" font-style="italic"><tspan y="444" x="22.828125 37.02819 49.35324 61.678289 75.203357 97.60345 120.00354 133.5286 147.90366 162.10373 171.70377 184.12882 191.20384 204.5539 218.07895 233.404 239.70403 246.77906 255.60408 278.00416 292.20423 305.65428 314.2543 330.12937 342.5544 349.62947 359.2295 374.02955 386.4546 393.52964 402.15467 414.02973 426.45478 438.87983 453.25489 466.77995">accommodate you. Imagine the freedom</tspan></text>
<text xml:space="preserve" transform="matrix(.6873167 0 0 .6873167 16.218752 100.42652)" font-size="25" font-family="Lora" font-style="italic"><tspan y="474" x="11.234375 25.434439 41.309507 55.684556 62.75959 71.38463 78.95966 91.38472 105.50977 114.10982 127.38488 135.98493 143.55995 152.15999 161.76003 175.11008 182.1851 191.78514 206.58519 220.78525 230.38529 237.46031 251.83536 265.3604 273.96046 289.8355 303.28556 310.3606 324.56068 345.08576 359.28584 372.6359 379.71095 400.23603 408.83607 418.4361 433.23616 440.3112 449.91123 464.71128 477.13633 488.33638">and flexibility that doing away with these</tspan></text>
<text xml:space="preserve" transform="matrix(.6873167 0 0 .6873167 16.218752 100.42652)" font-size="25" font-family="Lora" font-style="italic"><tspan y="504" x="124.296878 138.49694 151.94698 164.37203 180.2471 192.57215 201.17218 213.59723 224.79727 231.87232 252.39739 265.92243 281.2475 288.8225 303.19758 310.27259 323.54765 335.42268 344.0227 359.89778 373.3478">agencies would bring!</tspan></text>
<text xml:space="preserve" transform="matrix(.6873167 0 0 .6873167 16.218752 100.42652)" font-size="25" font-family="Lora" font-style="italic"><tspan y="504" x="380.64064"> </tspan></text>
<text xml:space="preserve" transform="matrix(.6873167 0 0 .6873167 16.218752 100.42652)" font-size="25" font-family="Lora" font-style="italic"><tspan y="564" x="17.75 43.100107 51.70015 61.30019 76.10025 89.62531 104.95038 114.55042 121.62546 130.25049 145.57556 157.45063 167.05066 181.85071 194.27576 206.1508 213.22583 227.42589 241.80094 255.32599 261.751 268.82606 283.6261 296.05116 307.9262 320.35127 327.4263 341.62638 353.50144 365.92649 373.00154 382.35157 397.77665 404.85169 416.05174 425.65177 438.0768 452.85188 464.0519 471.12696 480.727">Without further ado, here are 10 steps to</tspan></text>
<text xml:space="preserve" transform="matrix(.6873167 0 0 .6873167 16.218752 100.42652)" font-size="25" font-family="Lora" font-style="italic"><tspan y="594" x="50.875 64.15006 76.57512 88.90016 102.425228 124.82532 133.42536 149.30042 162.75046 169.8255 184.02556 199.90062 214.27567 221.3507 233.22574 245.65079 268.05088 282.25093 290.85096 306.726 315.32606 331.2011 344.65116 351.7262 367.05128 382.92634 397.72639 411.92646 426.7015 441.47657 454.82664">becoming and remaining unhappy.</tspan></text>
<text xml:space="preserve" transform="matrix(.75 0 0 .75 178.07762 570.83828)" font-size="10.48" font-family="Lora" font-style="italic"><tspan y="12" x=".015625 6.4750936 12.201743 15.1646599 20.828505 24.44047 27.403388 31.318957">04 of 19</tspan></text>
</g>
</svg>
