<svg xmlns="http://www.w3.org/2000/svg" xmlns:xlink="http://www.w3.org/1999/xlink" version="1.1" width="384pt" height="600pt" viewBox="0 0 384 600">
<defs>
<clipPath id="clip_12">
<path transform="matrix(.24,0,0,.24,0,0)" d="M0 0H1600V2500H0Z" fill-rule="evenodd"/>
</clipPath>
<clipPath id="clip_13">
<path transform="matrix(.24,0,0,.24,0,0)" d="M0 0H1600V2500H0Z" fill-rule="evenodd"/>
</clipPath>
<clipPath id="clip_14">
<path transform="matrix(.24,0,0,.24,0,0)" d="M0 0H1600V2500H0Z" fill-rule="evenodd"/>
</clipPath>
<clipPath id="clip_15">
<path transform="matrix(.24,0,0,.24,0,0)" d="M55.555559 2280.0006H1543.0556V2286.2506H55.555559Z" fill-rule="evenodd"/>
</clipPath>
<clipPath id="clip_16">
<path transform="matrix(.24,0,0,.24,0,0)" d="M0 0H1600V2500H0Z" fill-rule="evenodd"/>
</clipPath>
</defs>
<g clip-path="url(#clip_12)">
<path transform="matrix(.75,0,0,.75,0,-1215)" d="M0 1620H512V2420H0Z" fill="#ffffff"/>
</g>
<g clip-path="url(#clip_13)">
<path transform="matrix(.75,0,0,.75,0,0)" d="M0 0H512V800H0Z" fill="#ffffff"/>
</g>
<g clip-path="url(#clip_14)">
<text xml:space="preserve" transform="matrix(.75 0 0 .75 133.8049 567.92648)" font-size="10.02" font-family="Lora" font-style="italic"><tspan y="11" x="56.03125 62.211099 67.87013 70.704738 76.1234 79.57897 82.413578 86.1596">03 of 19</tspan></text>
</g>
<g clip-path="url(#clip_15)">
<path transform="matrix(.71400007,0,0,.71400007,13.333333,369.36717)" d="M0 0H500V500H0Z" fill="#515151"/>
</g>
<g clip-path="url(#clip_16)">
<text xml:space="preserve" transform="matrix(.75 0 0 .75 61.83224 100.303829)" font-size="13.39" font-family="LibreBaskerville"><tspan y="13" x="141.5 153.84809 162.86579 173.221 179.17581 188.44763 193.8942 204.2494">Table of</tspan></text>
<text xml:space="preserve" transform="matrix(.75 0 0 .75 67.99999 196.81536)" font-size="16.77" font-family="LibreBaskerville"><tspan y="26" x="0 8.970214 15.425596 22.249814 39.083097 52.0603 65.62429 71.24139 79.591289 86.415508 100.616588 112.23577 120.58567 127.40989 142.28159 155.0073 167.06238 180.03958 193.60358 205.22277 214.84685 221.67107 234.64827 246.26746 253.09168 267.96339 280.6891 292.74418 305.72138 319.28538 330.90455">I. Don't Let Bygones be Bygones</tspan></text>
<text xml:space="preserve" transform="matrix(.75 0 0 .75 67.99999 196.81536)" font-size="16.77" font-family="LibreBaskerville"><tspan y="67" x="0 8.970214 17.940428 24.39581 31.220028 49.092786 61.332304 72.951488 82.961177 92.73614 107.69167 121.25567 132.5563 140.01763 152.74333 164.09427 175.71346 182.53768 196.722 208.96152 220.5807 230.5904 243.3161 250.14032 262.9666 271.3165 282.61714 290.967 302.58619 322.58818 334.20735 347.77134">II. Over-Analyze Every Statement</tspan></text>
<text xml:space="preserve" transform="matrix(.75 0 0 .75 67.99999 196.81536)" font-size="16.77" font-family="LibreBaskerville"><tspan y="108" x="0 8.970214 17.940428 26.91064 33.366025 40.190244 55.061948 66.68113 73.50535 88.96386 98.97355 106.70312 115.05302 122.782588 133.78144 145.08208">III. Be Critical</tspan></text>
<text xml:space="preserve" transform="matrix(.75 0 0 .75 67.99999 196.81536)" font-size="16.77" font-family="LibreBaskerville"><tspan y="149" x="0 8.970214 24.126936 30.582318 37.406538 52.27824 63.897428 70.72164 87.16932 100.733318 112.7884 122.79809 134.09873 142.44863 154.06781 162.98773 176.23319">IV. Be Ungrateful</tspan></text>
<text xml:space="preserve" transform="matrix(.75 0 0 .75 67.99999 196.81536)" font-size="16.77" font-family="LibreBaskerville"><tspan y="190" x="0 15.156722 21.612105 28.436322 43.308027 54.92721 61.75143 75.28188 86.90107 96.525157 106.14924 113.87881 133.8808 141.61037 151.23445 159.58435 167.31392">V. Be Pessimistic</tspan></text>
<text xml:space="preserve" transform="matrix(.75 0 0 .75 67.99999 196.81536)" font-size="16.77" font-family="LibreBaskerville"><tspan y="231" x="0 15.156722 24.126936 30.582318 37.406538 52.865049 65.84225 85.84423 99.24056 110.54121 120.550899 132.17008 138.9943 153.29598 166.27318 179.51863 189.52832 199.1524 210.77159 218.23291 227.15283 233.97705 242.32695 255.30416 262.12837 280.0011 288.35099 301.8982 313.51737 323.52705">VI. Compare Yourself to Others</tspan></text>
<text xml:space="preserve" transform="matrix(.75 0 0 .75 67.99999 196.81536)" font-size="16.77" font-family="LibreBaskerville"><tspan y="272" x="0 15.156722 24.126936 33.09715 39.552534 46.37675 61.248456 72.86764 79.69186 96.139537 109.70353 123.250759 134.86994 146.17058 153.6319 161.9818 175.52902">VII. Be Unhealthy</tspan></text>
<text xml:space="preserve" transform="matrix(.75 0 0 .75 67.99999 196.81536)" font-size="16.77" font-family="LibreBaskerville"><tspan y="313" x="0 15.156722 24.126936 33.09715 42.067365 48.891584 62.137037 75.114238 86.11309 99.35854 108.98263 115.80685 128.78404 142.34804 149.17226 157.52216 171.06938 182.68857 189.51279 206.64786 218.26705 230.32213 241.62277 249.97267 257.70225 269.94175">VIII Focus on the Negative</tspan></text>
<text xml:space="preserve" transform="matrix(.75 0 0 .75 67.99999 196.81536)" font-size="16.77" font-family="LibreBaskerville"><tspan y="354" x="0 8.970214 24.696974 31.152356 37.976575 52.848279 64.46746 71.29168 80.261898 89.88598 102.86318 110.3245 121.625148 129.97504 141.59423">IX. Be Isolated</tspan></text>
<text xml:space="preserve" transform="matrix(.75 0 0 .75 67.99999 196.81536)" font-size="16.77" font-family="LibreBaskerville"><tspan y="395" x="0 15.72676 22.182143 29.00636 43.878065 55.49725 62.32147 78.76915 92.333148 105.88037 117.181018 130.57735 143.97368">X. Be Unhappy</tspan></text>
<text xml:space="preserve" transform="matrix(.75 0 0 .75 61.24932 124.95246)" font-size="25.15" font-family="Oswald"><tspan y="28" x="108.34375 126.32238 144.90438 163.20984 178.62415 193.8876 212.19306 227.60736">CONTENTS</tspan></text>
</g>
</svg>
